{"glyphs":{"0":{"ha":812,"x_min":0,"x_max":0,"o":"m 539 469 b 589 501 554 483 570 494 b 492 563 555 536 522 557 b 422 572 460 569 437 572 b 332 554 392 572 361 566 b 381 510 350 541 367 526 b 424 514 396 513 410 514 b 539 469 466 514 505 499 z m 306 249 b 338 342 328 277 338 308 b 306 433 338 375 328 406 b 279 382 292 416 283 398 b 274 341 276 366 274 352 b 278 309 274 330 275 319 b 306 249 283 288 292 267 z m 443 373 b 445 341 444 363 445 352 b 443 309 445 331 444 320 b 527 341 474 311 502 322 b 443 373 502 361 474 371 z m 289 231 b 256 292 271 252 260 273 b 250 341 252 312 250 328 b 254 380 250 354 251 368 b 289 452 260 406 271 430 b 239 481 274 465 258 475 b 192 342 208 439 192 392 b 239 201 192 291 208 244 b 266 214 248 204 257 209 b 289 231 274 219 281 224 z m 589 181 b 539 213 570 189 554 199 b 424 168 505 183 466 168 b 381 173 410 168 396 170 b 356 147 374 163 365 155 b 332 129 348 140 340 134 b 422 111 361 117 392 111 b 469 115 437 111 453 112 b 589 181 515 125 555 146 z m 577 -57 b 565 -73 576 -68 572 -73 b 553 -57 557 -73 553 -67 b 565 -42 554 -47 558 -42 b 577 -57 573 -42 577 -47 z m 193 844 l 193 865 l 202 865 b 213 854 210 864 213 861 b 202 844 213 848 210 844 z m 300 846 l 300 865 l 309 865 b 321 856 317 865 321 861 b 309 846 321 849 317 846 z m 443 845 b 427 825 442 831 437 825 b 412 845 417 825 412 831 b 427 865 412 858 418 865 b 443 845 438 865 443 858 z m 548 838 l 555 862 l 564 838 z m 433 760 b 418 739 433 746 427 739 b 401 760 407 739 401 746 b 418 780 403 773 408 780 b 433 760 429 779 433 772 z m 625 196 b 628 191 627 195 628 193 l 628 189 b 627 188 628 189 627 188 b 508 98 587 137 547 107 b 422 85 469 90 440 85 b 300 117 380 85 340 96 l 288 123 b 286 127 287 124 286 126 b 286 130 286 128 286 129 l 288 132 b 386 224 332 157 365 188 b 418 340 408 261 418 300 l 418 342 b 385 458 418 383 407 422 b 288 551 363 496 331 526 b 286 555 287 552 286 553 b 286 557 286 555 286 557 l 288 559 b 427 596 334 584 380 596 b 471 593 442 596 457 595 b 628 494 533 582 585 549 b 629 490 629 493 629 492 b 624 486 629 488 627 487 b 579 469 608 484 594 477 b 543 439 565 460 553 450 b 538 437 541 437 540 437 b 535 438 538 437 536 437 b 479 479 515 458 496 471 b 425 490 461 486 444 490 b 399 488 417 490 408 490 b 439 398 418 460 431 431 b 559 345 486 397 526 378 b 561 342 560 344 561 342 b 559 338 561 340 560 339 b 439 285 526 304 486 286 b 399 195 431 252 418 222 b 422 193 407 193 415 193 b 536 245 467 193 505 210 b 540 247 537 246 538 247 l 541 247 b 545 245 543 246 544 245 b 625 196 569 218 595 202 z m 228 176 b 167 342 187 227 167 282 b 229 507 167 401 187 456 b 232 509 229 509 231 509 b 234 509 233 509 233 509 b 337 433 281 494 316 469 b 363 344 354 406 363 376 l 363 342 b 336 250 362 309 353 279 b 233 174 315 214 280 189 l 232 174 b 228 176 231 174 229 174 z m 461 -57 b 449 -73 460 -68 456 -73 b 437 -57 441 -73 437 -67 b 449 -42 438 -47 442 -42 b 461 -57 457 -42 461 -47 z m 129 679 b 85 661 112 679 98 673 b 68 618 74 650 68 635 l 68 64 b 85 20 68 47 74 32 b 129 3 98 9 112 3 l 684 3 b 726 20 701 3 715 9 b 745 64 739 32 745 47 l 745 618 b 726 661 745 635 739 650 b 684 679 715 673 701 679 z m 595 -34 l 595 -81 l 604 -81 l 604 -50 l 604 -50 l 616 -81 l 623 -81 l 635 -50 l 635 -81 l 646 -81 l 646 -34 l 633 -34 l 620 -66 l 619 -66 l 607 -34 z m 180 814 l 193 814 l 193 834 l 204 834 b 220 840 211 834 216 836 b 227 854 224 844 227 848 b 204 876 226 869 218 876 l 180 876 z m 235 814 l 277 814 l 277 825 l 248 825 l 248 840 l 275 840 l 275 850 l 248 850 l 248 865 l 277 865 l 277 876 l 235 876 z m 288 814 l 300 814 l 300 836 l 310 836 l 321 814 l 336 814 l 323 838 b 334 856 330 841 334 847 b 312 876 333 869 326 876 l 288 876 z m 377 858 l 390 858 b 367 877 388 870 380 877 b 350 871 360 877 354 875 b 343 858 345 868 343 863 b 360 841 343 849 349 843 l 367 840 b 378 831 374 838 377 835 b 366 824 377 826 373 824 b 354 833 359 824 355 827 l 341 833 b 349 818 342 826 344 821 b 367 813 353 814 359 813 b 391 831 382 813 389 819 b 372 850 390 842 384 848 l 366 851 b 357 859 360 852 357 854 b 367 866 357 863 360 866 b 377 858 373 866 376 863 z m 456 845 b 448 868 456 854 454 863 b 427 877 443 873 435 877 b 406 868 419 877 412 873 b 398 845 401 863 398 854 b 406 821 398 835 401 827 b 427 813 412 816 419 813 b 448 821 435 813 443 816 b 456 845 454 827 456 835 z m 518 876 l 505 876 l 505 837 l 505 837 l 478 876 l 466 876 l 466 814 l 479 814 l 479 852 l 507 814 l 518 814 z m 540 814 l 545 827 l 566 827 l 571 814 l 585 814 l 564 876 l 547 876 l 526 814 z m 593 814 l 633 814 l 633 825 l 606 825 l 606 876 l 593 876 z m 237 791 l 237 751 b 225 739 237 743 233 739 b 212 751 216 741 212 744 l 212 791 l 199 791 l 199 750 b 206 734 199 743 201 738 b 225 728 211 730 217 728 b 243 734 233 728 239 730 b 251 750 248 738 251 743 l 251 791 z m 295 772 l 308 772 b 285 791 307 785 298 791 b 268 787 278 791 273 790 b 261 772 264 783 262 779 b 278 755 262 764 267 758 l 285 754 b 296 746 292 753 296 750 b 284 739 295 741 291 739 b 273 748 277 739 274 742 l 260 748 b 267 733 260 741 262 736 b 285 728 271 730 277 728 b 309 746 300 728 308 734 b 290 764 308 756 302 762 l 284 766 b 275 773 278 767 275 769 b 285 781 275 778 278 781 b 295 772 291 781 294 778 z m 318 728 l 359 728 l 359 739 l 331 739 l 331 754 l 357 754 l 357 765 l 331 765 l 331 780 l 359 780 l 359 791 l 318 791 z m 447 760 b 438 783 447 770 444 778 b 418 791 433 789 426 791 b 397 783 410 791 403 789 b 389 760 391 778 389 770 b 397 736 389 749 391 742 b 418 728 403 730 410 728 b 438 736 426 728 433 730 b 447 760 444 742 447 749 z m 509 791 l 496 791 l 496 751 l 495 751 l 468 791 l 456 791 l 456 728 l 469 728 l 469 768 l 470 768 l 497 728 l 509 728 z m 519 728 l 559 728 l 559 739 l 532 739 l 532 791 l 519 791 z m 556 791 l 579 751 l 579 728 l 592 728 l 592 751 l 614 791 l 600 791 l 586 764 l 585 764 l 571 791 z m 167 -81 l 199 -81 l 199 -73 l 177 -73 l 177 -61 l 197 -61 l 197 -53 l 177 -53 l 177 -42 l 199 -42 l 199 -34 l 167 -34 z m 246 -34 l 236 -34 l 236 -63 l 235 -63 l 215 -34 l 207 -34 l 207 -81 l 216 -81 l 216 -51 l 217 -51 l 237 -81 l 246 -81 z m 263 -34 l 252 -34 l 267 -57 l 252 -81 l 263 -81 l 273 -64 l 283 -81 l 294 -81 l 279 -57 l 294 -34 l 283 -34 l 273 -50 z m 298 -34 l 315 -64 l 315 -81 l 325 -81 l 325 -64 l 342 -34 l 331 -34 l 320 -54 l 309 -34 z m 386 -50 b 380 -37 385 -45 383 -41 b 366 -33 376 -35 371 -33 b 350 -39 359 -33 354 -35 b 344 -57 346 -43 344 -50 b 350 -75 344 -65 346 -71 b 366 -81 354 -79 359 -81 b 380 -77 372 -81 376 -80 b 386 -64 383 -73 385 -69 l 376 -64 b 366 -73 374 -70 371 -73 b 353 -57 357 -73 353 -67 b 366 -42 355 -47 359 -42 b 376 -50 371 -42 374 -45 z m 393 -81 l 423 -81 l 423 -73 l 404 -73 l 404 -34 l 393 -34 z m 471 -57 b 465 -39 471 -50 469 -43 b 449 -33 460 -35 456 -33 b 433 -39 443 -33 437 -35 b 427 -57 429 -43 427 -50 b 433 -75 427 -65 429 -71 b 449 -81 437 -79 443 -81 b 465 -75 456 -81 460 -79 b 471 -57 469 -71 471 -65 z m 481 -81 b 487 -76 484 -81 486 -79 b 481 -71 486 -73 484 -71 b 475 -76 478 -71 476 -73 b 481 -81 476 -79 478 -81 z m 536 -50 b 530 -37 536 -45 534 -41 b 516 -33 526 -35 522 -33 b 500 -39 510 -33 505 -35 b 494 -57 496 -43 494 -50 b 500 -75 494 -65 496 -71 b 516 -81 505 -79 510 -81 b 530 -77 522 -81 527 -80 b 536 -64 534 -73 536 -69 l 526 -64 b 516 -73 525 -70 522 -73 b 505 -57 508 -73 505 -67 b 516 -42 505 -47 509 -42 b 526 -50 522 -42 525 -45 z m 587 -57 b 581 -39 587 -50 585 -43 b 565 -33 576 -35 571 -33 b 549 -39 559 -33 553 -35 b 543 -57 545 -43 543 -50 b 549 -75 543 -65 545 -71 b 565 -81 553 -79 559 -81 b 581 -75 571 -81 576 -79 b 587 -57 585 -71 587 -65 z "},"1":{"ha":812,"x_min":0,"x_max":0,"o":"m 539 469 b 589 501 554 483 570 494 b 492 563 555 536 522 557 b 422 572 460 569 437 572 b 332 554 392 572 361 566 b 381 510 350 541 367 526 b 424 514 396 513 410 514 b 539 469 466 514 505 499 z m 306 249 b 338 342 328 277 338 308 b 306 433 338 375 328 406 b 279 382 292 416 283 398 b 274 341 276 366 274 352 b 278 309 274 330 275 319 b 306 249 283 288 292 267 z m 443 373 b 445 341 444 363 445 352 b 443 309 445 331 444 320 b 527 341 474 311 502 322 b 443 373 502 361 474 371 z m 289 231 b 256 292 271 252 260 273 b 250 341 252 312 250 328 b 254 380 250 354 251 368 b 289 452 260 406 271 430 b 239 481 274 465 258 475 b 192 342 208 439 192 392 b 239 201 192 291 208 244 b 266 214 248 204 257 209 b 289 231 274 219 281 224 z m 589 181 b 539 213 570 189 554 199 b 424 168 505 183 466 168 b 381 173 410 168 396 170 b 356 147 374 163 365 155 b 332 129 348 140 340 134 b 422 111 361 117 392 111 b 469 115 437 111 453 112 b 589 181 515 125 555 146 z m 577 -57 b 565 -73 576 -68 572 -73 b 553 -57 557 -73 553 -67 b 565 -42 554 -47 558 -42 b 577 -57 573 -42 577 -47 z m 193 844 l 193 865 l 202 865 b 213 854 210 864 213 861 b 202 844 213 848 210 844 z m 300 846 l 300 865 l 309 865 b 321 856 317 865 321 861 b 309 846 321 849 317 846 z m 443 845 b 427 825 442 831 437 825 b 412 845 417 825 412 831 b 427 865 412 858 418 865 b 443 845 438 865 443 858 z m 548 838 l 555 862 l 564 838 z m 433 760 b 418 739 433 746 427 739 b 401 760 407 739 401 746 b 418 780 403 773 408 780 b 433 760 429 779 433 772 z m 625 196 b 628 191 627 195 628 193 l 628 189 b 627 188 628 189 627 188 b 508 98 587 137 547 107 b 422 85 469 90 440 85 b 300 117 380 85 340 96 l 288 123 b 286 127 287 124 286 126 b 286 130 286 128 286 129 l 288 132 b 386 224 332 157 365 188 b 418 340 408 261 418 300 l 418 342 b 385 458 418 383 407 422 b 288 551 363 496 331 526 b 286 555 287 552 286 553 b 286 557 286 555 286 557 l 288 559 b 427 596 334 584 380 596 b 471 593 442 596 457 595 b 628 494 533 582 585 549 b 629 490 629 493 629 492 b 624 486 629 488 627 487 b 579 469 608 484 594 477 b 543 439 565 460 553 450 b 538 437 541 437 540 437 b 535 438 538 437 536 437 b 479 479 515 458 496 471 b 425 490 461 486 444 490 b 399 488 417 490 408 490 b 439 398 418 460 431 431 b 559 345 486 397 526 378 b 561 342 560 344 561 342 b 559 338 561 340 560 339 b 439 285 526 304 486 286 b 399 195 431 252 418 222 b 422 193 407 193 415 193 b 536 245 467 193 505 210 b 540 247 537 246 538 247 l 541 247 b 545 245 543 246 544 245 b 625 196 569 218 595 202 z m 228 176 b 167 342 187 227 167 282 b 229 507 167 401 187 456 b 232 509 229 509 231 509 b 234 509 233 509 233 509 b 337 433 281 494 316 469 b 363 344 354 406 363 376 l 363 342 b 336 250 362 309 353 279 b 233 174 315 214 280 189 l 232 174 b 228 176 231 174 229 174 z m 461 -57 b 449 -73 460 -68 456 -73 b 437 -57 441 -73 437 -67 b 449 -42 438 -47 442 -42 b 461 -57 457 -42 461 -47 z m 129 679 b 85 661 112 679 98 673 b 68 618 74 650 68 635 l 68 64 b 85 20 68 47 74 32 b 129 3 98 9 112 3 l 684 3 b 726 20 701 3 715 9 b 745 64 739 32 745 47 l 745 618 b 726 661 745 635 739 650 b 684 679 715 673 701 679 z m 595 -34 l 595 -81 l 604 -81 l 604 -50 l 604 -50 l 616 -81 l 623 -81 l 635 -50 l 635 -81 l 646 -81 l 646 -34 l 633 -34 l 620 -66 l 619 -66 l 607 -34 z m 180 814 l 193 814 l 193 834 l 204 834 b 220 840 211 834 216 836 b 227 854 224 844 227 848 b 204 876 226 869 218 876 l 180 876 z m 235 814 l 277 814 l 277 825 l 248 825 l 248 840 l 275 840 l 275 850 l 248 850 l 248 865 l 277 865 l 277 876 l 235 876 z m 288 814 l 300 814 l 300 836 l 310 836 l 321 814 l 336 814 l 323 838 b 334 856 330 841 334 847 b 312 876 333 869 326 876 l 288 876 z m 377 858 l 390 858 b 367 877 388 870 380 877 b 350 871 360 877 354 875 b 343 858 345 868 343 863 b 360 841 343 849 349 843 l 367 840 b 378 831 374 838 377 835 b 366 824 377 826 373 824 b 354 833 359 824 355 827 l 341 833 b 349 818 342 826 344 821 b 367 813 353 814 359 813 b 391 831 382 813 389 819 b 372 850 390 842 384 848 l 366 851 b 357 859 360 852 357 854 b 367 866 357 863 360 866 b 377 858 373 866 376 863 z m 456 845 b 448 868 456 854 454 863 b 427 877 443 873 435 877 b 406 868 419 877 412 873 b 398 845 401 863 398 854 b 406 821 398 835 401 827 b 427 813 412 816 419 813 b 448 821 435 813 443 816 b 456 845 454 827 456 835 z m 518 876 l 505 876 l 505 837 l 505 837 l 478 876 l 466 876 l 466 814 l 479 814 l 479 852 l 507 814 l 518 814 z m 540 814 l 545 827 l 566 827 l 571 814 l 585 814 l 564 876 l 547 876 l 526 814 z m 593 814 l 633 814 l 633 825 l 606 825 l 606 876 l 593 876 z m 237 791 l 237 751 b 225 739 237 743 233 739 b 212 751 216 741 212 744 l 212 791 l 199 791 l 199 750 b 206 734 199 743 201 738 b 225 728 211 730 217 728 b 243 734 233 728 239 730 b 251 750 248 738 251 743 l 251 791 z m 295 772 l 308 772 b 285 791 307 785 298 791 b 268 787 278 791 273 790 b 261 772 264 783 262 779 b 278 755 262 764 267 758 l 285 754 b 296 746 292 753 296 750 b 284 739 295 741 291 739 b 273 748 277 739 274 742 l 260 748 b 267 733 260 741 262 736 b 285 728 271 730 277 728 b 309 746 300 728 308 734 b 290 764 308 756 302 762 l 284 766 b 275 773 278 767 275 769 b 285 781 275 778 278 781 b 295 772 291 781 294 778 z m 318 728 l 359 728 l 359 739 l 331 739 l 331 754 l 357 754 l 357 765 l 331 765 l 331 780 l 359 780 l 359 791 l 318 791 z m 447 760 b 438 783 447 770 444 778 b 418 791 433 789 426 791 b 397 783 410 791 403 789 b 389 760 391 778 389 770 b 397 736 389 749 391 742 b 418 728 403 730 410 728 b 438 736 426 728 433 730 b 447 760 444 742 447 749 z m 509 791 l 496 791 l 496 751 l 495 751 l 468 791 l 456 791 l 456 728 l 469 728 l 469 768 l 470 768 l 497 728 l 509 728 z m 519 728 l 559 728 l 559 739 l 532 739 l 532 791 l 519 791 z m 556 791 l 579 751 l 579 728 l 592 728 l 592 751 l 614 791 l 600 791 l 586 764 l 585 764 l 571 791 z m 167 -81 l 199 -81 l 199 -73 l 177 -73 l 177 -61 l 197 -61 l 197 -53 l 177 -53 l 177 -42 l 199 -42 l 199 -34 l 167 -34 z m 246 -34 l 236 -34 l 236 -63 l 235 -63 l 215 -34 l 207 -34 l 207 -81 l 216 -81 l 216 -51 l 217 -51 l 237 -81 l 246 -81 z m 263 -34 l 252 -34 l 267 -57 l 252 -81 l 263 -81 l 273 -64 l 283 -81 l 294 -81 l 279 -57 l 294 -34 l 283 -34 l 273 -50 z m 298 -34 l 315 -64 l 315 -81 l 325 -81 l 325 -64 l 342 -34 l 331 -34 l 320 -54 l 309 -34 z m 386 -50 b 380 -37 385 -45 383 -41 b 366 -33 376 -35 371 -33 b 350 -39 359 -33 354 -35 b 344 -57 346 -43 344 -50 b 350 -75 344 -65 346 -71 b 366 -81 354 -79 359 -81 b 380 -77 372 -81 376 -80 b 386 -64 383 -73 385 -69 l 376 -64 b 366 -73 374 -70 371 -73 b 353 -57 357 -73 353 -67 b 366 -42 355 -47 359 -42 b 376 -50 371 -42 374 -45 z m 393 -81 l 423 -81 l 423 -73 l 404 -73 l 404 -34 l 393 -34 z m 471 -57 b 465 -39 471 -50 469 -43 b 449 -33 460 -35 456 -33 b 433 -39 443 -33 437 -35 b 427 -57 429 -43 427 -50 b 433 -75 427 -65 429 -71 b 449 -81 437 -79 443 -81 b 465 -75 456 -81 460 -79 b 471 -57 469 -71 471 -65 z m 481 -81 b 487 -76 484 -81 486 -79 b 481 -71 486 -73 484 -71 b 475 -76 478 -71 476 -73 b 481 -81 476 -79 478 -81 z m 536 -50 b 530 -37 536 -45 534 -41 b 516 -33 526 -35 522 -33 b 500 -39 510 -33 505 -35 b 494 -57 496 -43 494 -50 b 500 -75 494 -65 496 -71 b 516 -81 505 -79 510 -81 b 530 -77 522 -81 527 -80 b 536 -64 534 -73 536 -69 l 526 -64 b 516 -73 525 -70 522 -73 b 505 -57 508 -73 505 -67 b 516 -42 505 -47 509 -42 b 526 -50 522 -42 525 -45 z m 587 -57 b 581 -39 587 -50 585 -43 b 565 -33 576 -35 571 -33 b 549 -39 559 -33 553 -35 b 543 -57 545 -43 543 -50 b 549 -75 543 -65 545 -71 b 565 -81 553 -79 559 -81 b 581 -75 571 -81 576 -79 b 587 -57 585 -71 587 -65 z "},"2":{"ha":812,"x_min":0,"x_max":0,"o":"m 539 469 b 589 501 554 483 570 494 b 492 563 555 536 522 557 b 422 572 460 569 437 572 b 332 554 392 572 361 566 b 381 510 350 541 367 526 b 424 514 396 513 410 514 b 539 469 466 514 505 499 z m 306 249 b 338 342 328 277 338 308 b 306 433 338 375 328 406 b 279 382 292 416 283 398 b 274 341 276 366 274 352 b 278 309 274 330 275 319 b 306 249 283 288 292 267 z m 443 373 b 445 341 444 363 445 352 b 443 309 445 331 444 320 b 527 341 474 311 502 322 b 443 373 502 361 474 371 z m 289 231 b 256 292 271 252 260 273 b 250 341 252 312 250 328 b 254 380 250 354 251 368 b 289 452 260 406 271 430 b 239 481 274 465 258 475 b 192 342 208 439 192 392 b 239 201 192 291 208 244 b 266 214 248 204 257 209 b 289 231 274 219 281 224 z m 589 181 b 539 213 570 189 554 199 b 424 168 505 183 466 168 b 381 173 410 168 396 170 b 356 147 374 163 365 155 b 332 129 348 140 340 134 b 422 111 361 117 392 111 b 469 115 437 111 453 112 b 589 181 515 125 555 146 z m 577 -57 b 565 -73 576 -68 572 -73 b 553 -57 557 -73 553 -67 b 565 -42 554 -47 558 -42 b 577 -57 573 -42 577 -47 z m 193 844 l 193 865 l 202 865 b 213 854 210 864 213 861 b 202 844 213 848 210 844 z m 300 846 l 300 865 l 309 865 b 321 856 317 865 321 861 b 309 846 321 849 317 846 z m 443 845 b 427 825 442 831 437 825 b 412 845 417 825 412 831 b 427 865 412 858 418 865 b 443 845 438 865 443 858 z m 548 838 l 555 862 l 564 838 z m 433 760 b 418 739 433 746 427 739 b 401 760 407 739 401 746 b 418 780 403 773 408 780 b 433 760 429 779 433 772 z m 625 196 b 628 191 627 195 628 193 l 628 189 b 627 188 628 189 627 188 b 508 98 587 137 547 107 b 422 85 469 90 440 85 b 300 117 380 85 340 96 l 288 123 b 286 127 287 124 286 126 b 286 130 286 128 286 129 l 288 132 b 386 224 332 157 365 188 b 418 340 408 261 418 300 l 418 342 b 385 458 418 383 407 422 b 288 551 363 496 331 526 b 286 555 287 552 286 553 b 286 557 286 555 286 557 l 288 559 b 427 596 334 584 380 596 b 471 593 442 596 457 595 b 628 494 533 582 585 549 b 629 490 629 493 629 492 b 624 486 629 488 627 487 b 579 469 608 484 594 477 b 543 439 565 460 553 450 b 538 437 541 437 540 437 b 535 438 538 437 536 437 b 479 479 515 458 496 471 b 425 490 461 486 444 490 b 399 488 417 490 408 490 b 439 398 418 460 431 431 b 559 345 486 397 526 378 b 561 342 560 344 561 342 b 559 338 561 340 560 339 b 439 285 526 304 486 286 b 399 195 431 252 418 222 b 422 193 407 193 415 193 b 536 245 467 193 505 210 b 540 247 537 246 538 247 l 541 247 b 545 245 543 246 544 245 b 625 196 569 218 595 202 z m 228 176 b 167 342 187 227 167 282 b 229 507 167 401 187 456 b 232 509 229 509 231 509 b 234 509 233 509 233 509 b 337 433 281 494 316 469 b 363 344 354 406 363 376 l 363 342 b 336 250 362 309 353 279 b 233 174 315 214 280 189 l 232 174 b 228 176 231 174 229 174 z m 461 -57 b 449 -73 460 -68 456 -73 b 437 -57 441 -73 437 -67 b 449 -42 438 -47 442 -42 b 461 -57 457 -42 461 -47 z m 129 679 b 85 661 112 679 98 673 b 68 618 74 650 68 635 l 68 64 b 85 20 68 47 74 32 b 129 3 98 9 112 3 l 684 3 b 726 20 701 3 715 9 b 745 64 739 32 745 47 l 745 618 b 726 661 745 635 739 650 b 684 679 715 673 701 679 z m 595 -34 l 595 -81 l 604 -81 l 604 -50 l 604 -50 l 616 -81 l 623 -81 l 635 -50 l 635 -81 l 646 -81 l 646 -34 l 633 -34 l 620 -66 l 619 -66 l 607 -34 z m 180 814 l 193 814 l 193 834 l 204 834 b 220 840 211 834 216 836 b 227 854 224 844 227 848 b 204 876 226 869 218 876 l 180 876 z m 235 814 l 277 814 l 277 825 l 248 825 l 248 840 l 275 840 l 275 850 l 248 850 l 248 865 l 277 865 l 277 876 l 235 876 z m 288 814 l 300 814 l 300 836 l 310 836 l 321 814 l 336 814 l 323 838 b 334 856 330 841 334 847 b 312 876 333 869 326 876 l 288 876 z m 377 858 l 390 858 b 367 877 388 870 380 877 b 350 871 360 877 354 875 b 343 858 345 868 343 863 b 360 841 343 849 349 843 l 367 840 b 378 831 374 838 377 835 b 366 824 377 826 373 824 b 354 833 359 824 355 827 l 341 833 b 349 818 342 826 344 821 b 367 813 353 814 359 813 b 391 831 382 813 389 819 b 372 850 390 842 384 848 l 366 851 b 357 859 360 852 357 854 b 367 866 357 863 360 866 b 377 858 373 866 376 863 z m 456 845 b 448 868 456 854 454 863 b 427 877 443 873 435 877 b 406 868 419 877 412 873 b 398 845 401 863 398 854 b 406 821 398 835 401 827 b 427 813 412 816 419 813 b 448 821 435 813 443 816 b 456 845 454 827 456 835 z m 518 876 l 505 876 l 505 837 l 505 837 l 478 876 l 466 876 l 466 814 l 479 814 l 479 852 l 507 814 l 518 814 z m 540 814 l 545 827 l 566 827 l 571 814 l 585 814 l 564 876 l 547 876 l 526 814 z m 593 814 l 633 814 l 633 825 l 606 825 l 606 876 l 593 876 z m 237 791 l 237 751 b 225 739 237 743 233 739 b 212 751 216 741 212 744 l 212 791 l 199 791 l 199 750 b 206 734 199 743 201 738 b 225 728 211 730 217 728 b 243 734 233 728 239 730 b 251 750 248 738 251 743 l 251 791 z m 295 772 l 308 772 b 285 791 307 785 298 791 b 268 787 278 791 273 790 b 261 772 264 783 262 779 b 278 755 262 764 267 758 l 285 754 b 296 746 292 753 296 750 b 284 739 295 741 291 739 b 273 748 277 739 274 742 l 260 748 b 267 733 260 741 262 736 b 285 728 271 730 277 728 b 309 746 300 728 308 734 b 290 764 308 756 302 762 l 284 766 b 275 773 278 767 275 769 b 285 781 275 778 278 781 b 295 772 291 781 294 778 z m 318 728 l 359 728 l 359 739 l 331 739 l 331 754 l 357 754 l 357 765 l 331 765 l 331 780 l 359 780 l 359 791 l 318 791 z m 447 760 b 438 783 447 770 444 778 b 418 791 433 789 426 791 b 397 783 410 791 403 789 b 389 760 391 778 389 770 b 397 736 389 749 391 742 b 418 728 403 730 410 728 b 438 736 426 728 433 730 b 447 760 444 742 447 749 z m 509 791 l 496 791 l 496 751 l 495 751 l 468 791 l 456 791 l 456 728 l 469 728 l 469 768 l 470 768 l 497 728 l 509 728 z m 519 728 l 559 728 l 559 739 l 532 739 l 532 791 l 519 791 z m 556 791 l 579 751 l 579 728 l 592 728 l 592 751 l 614 791 l 600 791 l 586 764 l 585 764 l 571 791 z m 167 -81 l 199 -81 l 199 -73 l 177 -73 l 177 -61 l 197 -61 l 197 -53 l 177 -53 l 177 -42 l 199 -42 l 199 -34 l 167 -34 z m 246 -34 l 236 -34 l 236 -63 l 235 -63 l 215 -34 l 207 -34 l 207 -81 l 216 -81 l 216 -51 l 217 -51 l 237 -81 l 246 -81 z m 263 -34 l 252 -34 l 267 -57 l 252 -81 l 263 -81 l 273 -64 l 283 -81 l 294 -81 l 279 -57 l 294 -34 l 283 -34 l 273 -50 z m 298 -34 l 315 -64 l 315 -81 l 325 -81 l 325 -64 l 342 -34 l 331 -34 l 320 -54 l 309 -34 z m 386 -50 b 380 -37 385 -45 383 -41 b 366 -33 376 -35 371 -33 b 350 -39 359 -33 354 -35 b 344 -57 346 -43 344 -50 b 350 -75 344 -65 346 -71 b 366 -81 354 -79 359 -81 b 380 -77 372 -81 376 -80 b 386 -64 383 -73 385 -69 l 376 -64 b 366 -73 374 -70 371 -73 b 353 -57 357 -73 353 -67 b 366 -42 355 -47 359 -42 b 376 -50 371 -42 374 -45 z m 393 -81 l 423 -81 l 423 -73 l 404 -73 l 404 -34 l 393 -34 z m 471 -57 b 465 -39 471 -50 469 -43 b 449 -33 460 -35 456 -33 b 433 -39 443 -33 437 -35 b 427 -57 429 -43 427 -50 b 433 -75 427 -65 429 -71 b 449 -81 437 -79 443 -81 b 465 -75 456 -81 460 -79 b 471 -57 469 -71 471 -65 z m 481 -81 b 487 -76 484 -81 486 -79 b 481 -71 486 -73 484 -71 b 475 -76 478 -71 476 -73 b 481 -81 476 -79 478 -81 z m 536 -50 b 530 -37 536 -45 534 -41 b 516 -33 526 -35 522 -33 b 500 -39 510 -33 505 -35 b 494 -57 496 -43 494 -50 b 500 -75 494 -65 496 -71 b 516 -81 505 -79 510 -81 b 530 -77 522 -81 527 -80 b 536 -64 534 -73 536 -69 l 526 -64 b 516 -73 525 -70 522 -73 b 505 -57 508 -73 505 -67 b 516 -42 505 -47 509 -42 b 526 -50 522 -42 525 -45 z m 587 -57 b 581 -39 587 -50 585 -43 b 565 -33 576 -35 571 -33 b 549 -39 559 -33 553 -35 b 543 -57 545 -43 543 -50 b 549 -75 543 -65 545 -71 b 565 -81 553 -79 559 -81 b 581 -75 571 -81 576 -79 b 587 -57 585 -71 587 -65 z "},"3":{"ha":812,"x_min":0,"x_max":0,"o":"m 539 469 b 589 501 554 483 570 494 b 492 563 555 536 522 557 b 422 572 460 569 437 572 b 332 554 392 572 361 566 b 381 510 350 541 367 526 b 424 514 396 513 410 514 b 539 469 466 514 505 499 z m 306 249 b 338 342 328 277 338 308 b 306 433 338 375 328 406 b 279 382 292 416 283 398 b 274 341 276 366 274 352 b 278 309 274 330 275 319 b 306 249 283 288 292 267 z m 443 373 b 445 341 444 363 445 352 b 443 309 445 331 444 320 b 527 341 474 311 502 322 b 443 373 502 361 474 371 z m 289 231 b 256 292 271 252 260 273 b 250 341 252 312 250 328 b 254 380 250 354 251 368 b 289 452 260 406 271 430 b 239 481 274 465 258 475 b 192 342 208 439 192 392 b 239 201 192 291 208 244 b 266 214 248 204 257 209 b 289 231 274 219 281 224 z m 589 181 b 539 213 570 189 554 199 b 424 168 505 183 466 168 b 381 173 410 168 396 170 b 356 147 374 163 365 155 b 332 129 348 140 340 134 b 422 111 361 117 392 111 b 469 115 437 111 453 112 b 589 181 515 125 555 146 z m 577 -57 b 565 -73 576 -68 572 -73 b 553 -57 557 -73 553 -67 b 565 -42 554 -47 558 -42 b 577 -57 573 -42 577 -47 z m 193 844 l 193 865 l 202 865 b 213 854 210 864 213 861 b 202 844 213 848 210 844 z m 300 846 l 300 865 l 309 865 b 321 856 317 865 321 861 b 309 846 321 849 317 846 z m 443 845 b 427 825 442 831 437 825 b 412 845 417 825 412 831 b 427 865 412 858 418 865 b 443 845 438 865 443 858 z m 548 838 l 555 862 l 564 838 z m 433 760 b 418 739 433 746 427 739 b 401 760 407 739 401 746 b 418 780 403 773 408 780 b 433 760 429 779 433 772 z m 625 196 b 628 191 627 195 628 193 l 628 189 b 627 188 628 189 627 188 b 508 98 587 137 547 107 b 422 85 469 90 440 85 b 300 117 380 85 340 96 l 288 123 b 286 127 287 124 286 126 b 286 130 286 128 286 129 l 288 132 b 386 224 332 157 365 188 b 418 340 408 261 418 300 l 418 342 b 385 458 418 383 407 422 b 288 551 363 496 331 526 b 286 555 287 552 286 553 b 286 557 286 555 286 557 l 288 559 b 427 596 334 584 380 596 b 471 593 442 596 457 595 b 628 494 533 582 585 549 b 629 490 629 493 629 492 b 624 486 629 488 627 487 b 579 469 608 484 594 477 b 543 439 565 460 553 450 b 538 437 541 437 540 437 b 535 438 538 437 536 437 b 479 479 515 458 496 471 b 425 490 461 486 444 490 b 399 488 417 490 408 490 b 439 398 418 460 431 431 b 559 345 486 397 526 378 b 561 342 560 344 561 342 b 559 338 561 340 560 339 b 439 285 526 304 486 286 b 399 195 431 252 418 222 b 422 193 407 193 415 193 b 536 245 467 193 505 210 b 540 247 537 246 538 247 l 541 247 b 545 245 543 246 544 245 b 625 196 569 218 595 202 z m 228 176 b 167 342 187 227 167 282 b 229 507 167 401 187 456 b 232 509 229 509 231 509 b 234 509 233 509 233 509 b 337 433 281 494 316 469 b 363 344 354 406 363 376 l 363 342 b 336 250 362 309 353 279 b 233 174 315 214 280 189 l 232 174 b 228 176 231 174 229 174 z m 461 -57 b 449 -73 460 -68 456 -73 b 437 -57 441 -73 437 -67 b 449 -42 438 -47 442 -42 b 461 -57 457 -42 461 -47 z m 129 679 b 85 661 112 679 98 673 b 68 618 74 650 68 635 l 68 64 b 85 20 68 47 74 32 b 129 3 98 9 112 3 l 684 3 b 726 20 701 3 715 9 b 745 64 739 32 745 47 l 745 618 b 726 661 745 635 739 650 b 684 679 715 673 701 679 z m 595 -34 l 595 -81 l 604 -81 l 604 -50 l 604 -50 l 616 -81 l 623 -81 l 635 -50 l 635 -81 l 646 -81 l 646 -34 l 633 -34 l 620 -66 l 619 -66 l 607 -34 z m 180 814 l 193 814 l 193 834 l 204 834 b 220 840 211 834 216 836 b 227 854 224 844 227 848 b 204 876 226 869 218 876 l 180 876 z m 235 814 l 277 814 l 277 825 l 248 825 l 248 840 l 275 840 l 275 850 l 248 850 l 248 865 l 277 865 l 277 876 l 235 876 z m 288 814 l 300 814 l 300 836 l 310 836 l 321 814 l 336 814 l 323 838 b 334 856 330 841 334 847 b 312 876 333 869 326 876 l 288 876 z m 377 858 l 390 858 b 367 877 388 870 380 877 b 350 871 360 877 354 875 b 343 858 345 868 343 863 b 360 841 343 849 349 843 l 367 840 b 378 831 374 838 377 835 b 366 824 377 826 373 824 b 354 833 359 824 355 827 l 341 833 b 349 818 342 826 344 821 b 367 813 353 814 359 813 b 391 831 382 813 389 819 b 372 850 390 842 384 848 l 366 851 b 357 859 360 852 357 854 b 367 866 357 863 360 866 b 377 858 373 866 376 863 z m 456 845 b 448 868 456 854 454 863 b 427 877 443 873 435 877 b 406 868 419 877 412 873 b 398 845 401 863 398 854 b 406 821 398 835 401 827 b 427 813 412 816 419 813 b 448 821 435 813 443 816 b 456 845 454 827 456 835 z m 518 876 l 505 876 l 505 837 l 505 837 l 478 876 l 466 876 l 466 814 l 479 814 l 479 852 l 507 814 l 518 814 z m 540 814 l 545 827 l 566 827 l 571 814 l 585 814 l 564 876 l 547 876 l 526 814 z m 593 814 l 633 814 l 633 825 l 606 825 l 606 876 l 593 876 z m 237 791 l 237 751 b 225 739 237 743 233 739 b 212 751 216 741 212 744 l 212 791 l 199 791 l 199 750 b 206 734 199 743 201 738 b 225 728 211 730 217 728 b 243 734 233 728 239 730 b 251 750 248 738 251 743 l 251 791 z m 295 772 l 308 772 b 285 791 307 785 298 791 b 268 787 278 791 273 790 b 261 772 264 783 262 779 b 278 755 262 764 267 758 l 285 754 b 296 746 292 753 296 750 b 284 739 295 741 291 739 b 273 748 277 739 274 742 l 260 748 b 267 733 260 741 262 736 b 285 728 271 730 277 728 b 309 746 300 728 308 734 b 290 764 308 756 302 762 l 284 766 b 275 773 278 767 275 769 b 285 781 275 778 278 781 b 295 772 291 781 294 778 z m 318 728 l 359 728 l 359 739 l 331 739 l 331 754 l 357 754 l 357 765 l 331 765 l 331 780 l 359 780 l 359 791 l 318 791 z m 447 760 b 438 783 447 770 444 778 b 418 791 433 789 426 791 b 397 783 410 791 403 789 b 389 760 391 778 389 770 b 397 736 389 749 391 742 b 418 728 403 730 410 728 b 438 736 426 728 433 730 b 447 760 444 742 447 749 z m 509 791 l 496 791 l 496 751 l 495 751 l 468 791 l 456 791 l 456 728 l 469 728 l 469 768 l 470 768 l 497 728 l 509 728 z m 519 728 l 559 728 l 559 739 l 532 739 l 532 791 l 519 791 z m 556 791 l 579 751 l 579 728 l 592 728 l 592 751 l 614 791 l 600 791 l 586 764 l 585 764 l 571 791 z m 167 -81 l 199 -81 l 199 -73 l 177 -73 l 177 -61 l 197 -61 l 197 -53 l 177 -53 l 177 -42 l 199 -42 l 199 -34 l 167 -34 z m 246 -34 l 236 -34 l 236 -63 l 235 -63 l 215 -34 l 207 -34 l 207 -81 l 216 -81 l 216 -51 l 217 -51 l 237 -81 l 246 -81 z m 263 -34 l 252 -34 l 267 -57 l 252 -81 l 263 -81 l 273 -64 l 283 -81 l 294 -81 l 279 -57 l 294 -34 l 283 -34 l 273 -50 z m 298 -34 l 315 -64 l 315 -81 l 325 -81 l 325 -64 l 342 -34 l 331 -34 l 320 -54 l 309 -34 z m 386 -50 b 380 -37 385 -45 383 -41 b 366 -33 376 -35 371 -33 b 350 -39 359 -33 354 -35 b 344 -57 346 -43 344 -50 b 350 -75 344 -65 346 -71 b 366 -81 354 -79 359 -81 b 380 -77 372 -81 376 -80 b 386 -64 383 -73 385 -69 l 376 -64 b 366 -73 374 -70 371 -73 b 353 -57 357 -73 353 -67 b 366 -42 355 -47 359 -42 b 376 -50 371 -42 374 -45 z m 393 -81 l 423 -81 l 423 -73 l 404 -73 l 404 -34 l 393 -34 z m 471 -57 b 465 -39 471 -50 469 -43 b 449 -33 460 -35 456 -33 b 433 -39 443 -33 437 -35 b 427 -57 429 -43 427 -50 b 433 -75 427 -65 429 -71 b 449 -81 437 -79 443 -81 b 465 -75 456 -81 460 -79 b 471 -57 469 -71 471 -65 z m 481 -81 b 487 -76 484 -81 486 -79 b 481 -71 486 -73 484 -71 b 475 -76 478 -71 476 -73 b 481 -81 476 -79 478 -81 z m 536 -50 b 530 -37 536 -45 534 -41 b 516 -33 526 -35 522 -33 b 500 -39 510 -33 505 -35 b 494 -57 496 -43 494 -50 b 500 -75 494 -65 496 -71 b 516 -81 505 -79 510 -81 b 530 -77 522 -81 527 -80 b 536 -64 534 -73 536 -69 l 526 -64 b 516 -73 525 -70 522 -73 b 505 -57 508 -73 505 -67 b 516 -42 505 -47 509 -42 b 526 -50 522 -42 525 -45 z m 587 -57 b 581 -39 587 -50 585 -43 b 565 -33 576 -35 571 -33 b 549 -39 559 -33 553 -35 b 543 -57 545 -43 543 -50 b 549 -75 543 -65 545 -71 b 565 -81 553 -79 559 -81 b 581 -75 571 -81 576 -79 b 587 -57 585 -71 587 -65 z "},"4":{"ha":812,"x_min":0,"x_max":0,"o":"m 539 469 b 589 501 554 483 570 494 b 492 563 555 536 522 557 b 422 572 460 569 437 572 b 332 554 392 572 361 566 b 381 510 350 541 367 526 b 424 514 396 513 410 514 b 539 469 466 514 505 499 z m 306 249 b 338 342 328 277 338 308 b 306 433 338 375 328 406 b 279 382 292 416 283 398 b 274 341 276 366 274 352 b 278 309 274 330 275 319 b 306 249 283 288 292 267 z m 443 373 b 445 341 444 363 445 352 b 443 309 445 331 444 320 b 527 341 474 311 502 322 b 443 373 502 361 474 371 z m 289 231 b 256 292 271 252 260 273 b 250 341 252 312 250 328 b 254 380 250 354 251 368 b 289 452 260 406 271 430 b 239 481 274 465 258 475 b 192 342 208 439 192 392 b 239 201 192 291 208 244 b 266 214 248 204 257 209 b 289 231 274 219 281 224 z m 589 181 b 539 213 570 189 554 199 b 424 168 505 183 466 168 b 381 173 410 168 396 170 b 356 147 374 163 365 155 b 332 129 348 140 340 134 b 422 111 361 117 392 111 b 469 115 437 111 453 112 b 589 181 515 125 555 146 z m 577 -57 b 565 -73 576 -68 572 -73 b 553 -57 557 -73 553 -67 b 565 -42 554 -47 558 -42 b 577 -57 573 -42 577 -47 z m 193 844 l 193 865 l 202 865 b 213 854 210 864 213 861 b 202 844 213 848 210 844 z m 300 846 l 300 865 l 309 865 b 321 856 317 865 321 861 b 309 846 321 849 317 846 z m 443 845 b 427 825 442 831 437 825 b 412 845 417 825 412 831 b 427 865 412 858 418 865 b 443 845 438 865 443 858 z m 548 838 l 555 862 l 564 838 z m 433 760 b 418 739 433 746 427 739 b 401 760 407 739 401 746 b 418 780 403 773 408 780 b 433 760 429 779 433 772 z m 625 196 b 628 191 627 195 628 193 l 628 189 b 627 188 628 189 627 188 b 508 98 587 137 547 107 b 422 85 469 90 440 85 b 300 117 380 85 340 96 l 288 123 b 286 127 287 124 286 126 b 286 130 286 128 286 129 l 288 132 b 386 224 332 157 365 188 b 418 340 408 261 418 300 l 418 342 b 385 458 418 383 407 422 b 288 551 363 496 331 526 b 286 555 287 552 286 553 b 286 557 286 555 286 557 l 288 559 b 427 596 334 584 380 596 b 471 593 442 596 457 595 b 628 494 533 582 585 549 b 629 490 629 493 629 492 b 624 486 629 488 627 487 b 579 469 608 484 594 477 b 543 439 565 460 553 450 b 538 437 541 437 540 437 b 535 438 538 437 536 437 b 479 479 515 458 496 471 b 425 490 461 486 444 490 b 399 488 417 490 408 490 b 439 398 418 460 431 431 b 559 345 486 397 526 378 b 561 342 560 344 561 342 b 559 338 561 340 560 339 b 439 285 526 304 486 286 b 399 195 431 252 418 222 b 422 193 407 193 415 193 b 536 245 467 193 505 210 b 540 247 537 246 538 247 l 541 247 b 545 245 543 246 544 245 b 625 196 569 218 595 202 z m 228 176 b 167 342 187 227 167 282 b 229 507 167 401 187 456 b 232 509 229 509 231 509 b 234 509 233 509 233 509 b 337 433 281 494 316 469 b 363 344 354 406 363 376 l 363 342 b 336 250 362 309 353 279 b 233 174 315 214 280 189 l 232 174 b 228 176 231 174 229 174 z m 461 -57 b 449 -73 460 -68 456 -73 b 437 -57 441 -73 437 -67 b 449 -42 438 -47 442 -42 b 461 -57 457 -42 461 -47 z m 129 679 b 85 661 112 679 98 673 b 68 618 74 650 68 635 l 68 64 b 85 20 68 47 74 32 b 129 3 98 9 112 3 l 684 3 b 726 20 701 3 715 9 b 745 64 739 32 745 47 l 745 618 b 726 661 745 635 739 650 b 684 679 715 673 701 679 z m 595 -34 l 595 -81 l 604 -81 l 604 -50 l 604 -50 l 616 -81 l 623 -81 l 635 -50 l 635 -81 l 646 -81 l 646 -34 l 633 -34 l 620 -66 l 619 -66 l 607 -34 z m 180 814 l 193 814 l 193 834 l 204 834 b 220 840 211 834 216 836 b 227 854 224 844 227 848 b 204 876 226 869 218 876 l 180 876 z m 235 814 l 277 814 l 277 825 l 248 825 l 248 840 l 275 840 l 275 850 l 248 850 l 248 865 l 277 865 l 277 876 l 235 876 z m 288 814 l 300 814 l 300 836 l 310 836 l 321 814 l 336 814 l 323 838 b 334 856 330 841 334 847 b 312 876 333 869 326 876 l 288 876 z m 377 858 l 390 858 b 367 877 388 870 380 877 b 350 871 360 877 354 875 b 343 858 345 868 343 863 b 360 841 343 849 349 843 l 367 840 b 378 831 374 838 377 835 b 366 824 377 826 373 824 b 354 833 359 824 355 827 l 341 833 b 349 818 342 826 344 821 b 367 813 353 814 359 813 b 391 831 382 813 389 819 b 372 850 390 842 384 848 l 366 851 b 357 859 360 852 357 854 b 367 866 357 863 360 866 b 377 858 373 866 376 863 z m 456 845 b 448 868 456 854 454 863 b 427 877 443 873 435 877 b 406 868 419 877 412 873 b 398 845 401 863 398 854 b 406 821 398 835 401 827 b 427 813 412 816 419 813 b 448 821 435 813 443 816 b 456 845 454 827 456 835 z m 518 876 l 505 876 l 505 837 l 505 837 l 478 876 l 466 876 l 466 814 l 479 814 l 479 852 l 507 814 l 518 814 z m 540 814 l 545 827 l 566 827 l 571 814 l 585 814 l 564 876 l 547 876 l 526 814 z m 593 814 l 633 814 l 633 825 l 606 825 l 606 876 l 593 876 z m 237 791 l 237 751 b 225 739 237 743 233 739 b 212 751 216 741 212 744 l 212 791 l 199 791 l 199 750 b 206 734 199 743 201 738 b 225 728 211 730 217 728 b 243 734 233 728 239 730 b 251 750 248 738 251 743 l 251 791 z m 295 772 l 308 772 b 285 791 307 785 298 791 b 268 787 278 791 273 790 b 261 772 264 783 262 779 b 278 755 262 764 267 758 l 285 754 b 296 746 292 753 296 750 b 284 739 295 741 291 739 b 273 748 277 739 274 742 l 260 748 b 267 733 260 741 262 736 b 285 728 271 730 277 728 b 309 746 300 728 308 734 b 290 764 308 756 302 762 l 284 766 b 275 773 278 767 275 769 b 285 781 275 778 278 781 b 295 772 291 781 294 778 z m 318 728 l 359 728 l 359 739 l 331 739 l 331 754 l 357 754 l 357 765 l 331 765 l 331 780 l 359 780 l 359 791 l 318 791 z m 447 760 b 438 783 447 770 444 778 b 418 791 433 789 426 791 b 397 783 410 791 403 789 b 389 760 391 778 389 770 b 397 736 389 749 391 742 b 418 728 403 730 410 728 b 438 736 426 728 433 730 b 447 760 444 742 447 749 z m 509 791 l 496 791 l 496 751 l 495 751 l 468 791 l 456 791 l 456 728 l 469 728 l 469 768 l 470 768 l 497 728 l 509 728 z m 519 728 l 559 728 l 559 739 l 532 739 l 532 791 l 519 791 z m 556 791 l 579 751 l 579 728 l 592 728 l 592 751 l 614 791 l 600 791 l 586 764 l 585 764 l 571 791 z m 167 -81 l 199 -81 l 199 -73 l 177 -73 l 177 -61 l 197 -61 l 197 -53 l 177 -53 l 177 -42 l 199 -42 l 199 -34 l 167 -34 z m 246 -34 l 236 -34 l 236 -63 l 235 -63 l 215 -34 l 207 -34 l 207 -81 l 216 -81 l 216 -51 l 217 -51 l 237 -81 l 246 -81 z m 263 -34 l 252 -34 l 267 -57 l 252 -81 l 263 -81 l 273 -64 l 283 -81 l 294 -81 l 279 -57 l 294 -34 l 283 -34 l 273 -50 z m 298 -34 l 315 -64 l 315 -81 l 325 -81 l 325 -64 l 342 -34 l 331 -34 l 320 -54 l 309 -34 z m 386 -50 b 380 -37 385 -45 383 -41 b 366 -33 376 -35 371 -33 b 350 -39 359 -33 354 -35 b 344 -57 346 -43 344 -50 b 350 -75 344 -65 346 -71 b 366 -81 354 -79 359 -81 b 380 -77 372 -81 376 -80 b 386 -64 383 -73 385 -69 l 376 -64 b 366 -73 374 -70 371 -73 b 353 -57 357 -73 353 -67 b 366 -42 355 -47 359 -42 b 376 -50 371 -42 374 -45 z m 393 -81 l 423 -81 l 423 -73 l 404 -73 l 404 -34 l 393 -34 z m 471 -57 b 465 -39 471 -50 469 -43 b 449 -33 460 -35 456 -33 b 433 -39 443 -33 437 -35 b 427 -57 429 -43 427 -50 b 433 -75 427 -65 429 -71 b 449 -81 437 -79 443 -81 b 465 -75 456 -81 460 -79 b 471 -57 469 -71 471 -65 z m 481 -81 b 487 -76 484 -81 486 -79 b 481 -71 486 -73 484 -71 b 475 -76 478 -71 476 -73 b 481 -81 476 -79 478 -81 z m 536 -50 b 530 -37 536 -45 534 -41 b 516 -33 526 -35 522 -33 b 500 -39 510 -33 505 -35 b 494 -57 496 -43 494 -50 b 500 -75 494 -65 496 -71 b 516 -81 505 -79 510 -81 b 530 -77 522 -81 527 -80 b 536 -64 534 -73 536 -69 l 526 -64 b 516 -73 525 -70 522 -73 b 505 -57 508 -73 505 -67 b 516 -42 505 -47 509 -42 b 526 -50 522 -42 525 -45 z m 587 -57 b 581 -39 587 -50 585 -43 b 565 -33 576 -35 571 -33 b 549 -39 559 -33 553 -35 b 543 -57 545 -43 543 -50 b 549 -75 543 -65 545 -71 b 565 -81 553 -79 559 -81 b 581 -75 571 -81 576 -79 b 587 -57 585 -71 587 -65 z "},"5":{"ha":812,"x_min":0,"x_max":0,"o":"m 539 469 b 589 501 554 483 570 494 b 492 563 555 536 522 557 b 422 572 460 569 437 572 b 332 554 392 572 361 566 b 381 510 350 541 367 526 b 424 514 396 513 410 514 b 539 469 466 514 505 499 z m 306 249 b 338 342 328 277 338 308 b 306 433 338 375 328 406 b 279 382 292 416 283 398 b 274 341 276 366 274 352 b 278 309 274 330 275 319 b 306 249 283 288 292 267 z m 443 373 b 445 341 444 363 445 352 b 443 309 445 331 444 320 b 527 341 474 311 502 322 b 443 373 502 361 474 371 z m 289 231 b 256 292 271 252 260 273 b 250 341 252 312 250 328 b 254 380 250 354 251 368 b 289 452 260 406 271 430 b 239 481 274 465 258 475 b 192 342 208 439 192 392 b 239 201 192 291 208 244 b 266 214 248 204 257 209 b 289 231 274 219 281 224 z m 589 181 b 539 213 570 189 554 199 b 424 168 505 183 466 168 b 381 173 410 168 396 170 b 356 147 374 163 365 155 b 332 129 348 140 340 134 b 422 111 361 117 392 111 b 469 115 437 111 453 112 b 589 181 515 125 555 146 z m 577 -57 b 565 -73 576 -68 572 -73 b 553 -57 557 -73 553 -67 b 565 -42 554 -47 558 -42 b 577 -57 573 -42 577 -47 z m 193 844 l 193 865 l 202 865 b 213 854 210 864 213 861 b 202 844 213 848 210 844 z m 300 846 l 300 865 l 309 865 b 321 856 317 865 321 861 b 309 846 321 849 317 846 z m 443 845 b 427 825 442 831 437 825 b 412 845 417 825 412 831 b 427 865 412 858 418 865 b 443 845 438 865 443 858 z m 548 838 l 555 862 l 564 838 z m 433 760 b 418 739 433 746 427 739 b 401 760 407 739 401 746 b 418 780 403 773 408 780 b 433 760 429 779 433 772 z m 625 196 b 628 191 627 195 628 193 l 628 189 b 627 188 628 189 627 188 b 508 98 587 137 547 107 b 422 85 469 90 440 85 b 300 117 380 85 340 96 l 288 123 b 286 127 287 124 286 126 b 286 130 286 128 286 129 l 288 132 b 386 224 332 157 365 188 b 418 340 408 261 418 300 l 418 342 b 385 458 418 383 407 422 b 288 551 363 496 331 526 b 286 555 287 552 286 553 b 286 557 286 555 286 557 l 288 559 b 427 596 334 584 380 596 b 471 593 442 596 457 595 b 628 494 533 582 585 549 b 629 490 629 493 629 492 b 624 486 629 488 627 487 b 579 469 608 484 594 477 b 543 439 565 460 553 450 b 538 437 541 437 540 437 b 535 438 538 437 536 437 b 479 479 515 458 496 471 b 425 490 461 486 444 490 b 399 488 417 490 408 490 b 439 398 418 460 431 431 b 559 345 486 397 526 378 b 561 342 560 344 561 342 b 559 338 561 340 560 339 b 439 285 526 304 486 286 b 399 195 431 252 418 222 b 422 193 407 193 415 193 b 536 245 467 193 505 210 b 540 247 537 246 538 247 l 541 247 b 545 245 543 246 544 245 b 625 196 569 218 595 202 z m 228 176 b 167 342 187 227 167 282 b 229 507 167 401 187 456 b 232 509 229 509 231 509 b 234 509 233 509 233 509 b 337 433 281 494 316 469 b 363 344 354 406 363 376 l 363 342 b 336 250 362 309 353 279 b 233 174 315 214 280 189 l 232 174 b 228 176 231 174 229 174 z m 461 -57 b 449 -73 460 -68 456 -73 b 437 -57 441 -73 437 -67 b 449 -42 438 -47 442 -42 b 461 -57 457 -42 461 -47 z m 129 679 b 85 661 112 679 98 673 b 68 618 74 650 68 635 l 68 64 b 85 20 68 47 74 32 b 129 3 98 9 112 3 l 684 3 b 726 20 701 3 715 9 b 745 64 739 32 745 47 l 745 618 b 726 661 745 635 739 650 b 684 679 715 673 701 679 z m 595 -34 l 595 -81 l 604 -81 l 604 -50 l 604 -50 l 616 -81 l 623 -81 l 635 -50 l 635 -81 l 646 -81 l 646 -34 l 633 -34 l 620 -66 l 619 -66 l 607 -34 z m 180 814 l 193 814 l 193 834 l 204 834 b 220 840 211 834 216 836 b 227 854 224 844 227 848 b 204 876 226 869 218 876 l 180 876 z m 235 814 l 277 814 l 277 825 l 248 825 l 248 840 l 275 840 l 275 850 l 248 850 l 248 865 l 277 865 l 277 876 l 235 876 z m 288 814 l 300 814 l 300 836 l 310 836 l 321 814 l 336 814 l 323 838 b 334 856 330 841 334 847 b 312 876 333 869 326 876 l 288 876 z m 377 858 l 390 858 b 367 877 388 870 380 877 b 350 871 360 877 354 875 b 343 858 345 868 343 863 b 360 841 343 849 349 843 l 367 840 b 378 831 374 838 377 835 b 366 824 377 826 373 824 b 354 833 359 824 355 827 l 341 833 b 349 818 342 826 344 821 b 367 813 353 814 359 813 b 391 831 382 813 389 819 b 372 850 390 842 384 848 l 366 851 b 357 859 360 852 357 854 b 367 866 357 863 360 866 b 377 858 373 866 376 863 z m 456 845 b 448 868 456 854 454 863 b 427 877 443 873 435 877 b 406 868 419 877 412 873 b 398 845 401 863 398 854 b 406 821 398 835 401 827 b 427 813 412 816 419 813 b 448 821 435 813 443 816 b 456 845 454 827 456 835 z m 518 876 l 505 876 l 505 837 l 505 837 l 478 876 l 466 876 l 466 814 l 479 814 l 479 852 l 507 814 l 518 814 z m 540 814 l 545 827 l 566 827 l 571 814 l 585 814 l 564 876 l 547 876 l 526 814 z m 593 814 l 633 814 l 633 825 l 606 825 l 606 876 l 593 876 z m 237 791 l 237 751 b 225 739 237 743 233 739 b 212 751 216 741 212 744 l 212 791 l 199 791 l 199 750 b 206 734 199 743 201 738 b 225 728 211 730 217 728 b 243 734 233 728 239 730 b 251 750 248 738 251 743 l 251 791 z m 295 772 l 308 772 b 285 791 307 785 298 791 b 268 787 278 791 273 790 b 261 772 264 783 262 779 b 278 755 262 764 267 758 l 285 754 b 296 746 292 753 296 750 b 284 739 295 741 291 739 b 273 748 277 739 274 742 l 260 748 b 267 733 260 741 262 736 b 285 728 271 730 277 728 b 309 746 300 728 308 734 b 290 764 308 756 302 762 l 284 766 b 275 773 278 767 275 769 b 285 781 275 778 278 781 b 295 772 291 781 294 778 z m 318 728 l 359 728 l 359 739 l 331 739 l 331 754 l 357 754 l 357 765 l 331 765 l 331 780 l 359 780 l 359 791 l 318 791 z m 447 760 b 438 783 447 770 444 778 b 418 791 433 789 426 791 b 397 783 410 791 403 789 b 389 760 391 778 389 770 b 397 736 389 749 391 742 b 418 728 403 730 410 728 b 438 736 426 728 433 730 b 447 760 444 742 447 749 z m 509 791 l 496 791 l 496 751 l 495 751 l 468 791 l 456 791 l 456 728 l 469 728 l 469 768 l 470 768 l 497 728 l 509 728 z m 519 728 l 559 728 l 559 739 l 532 739 l 532 791 l 519 791 z m 556 791 l 579 751 l 579 728 l 592 728 l 592 751 l 614 791 l 600 791 l 586 764 l 585 764 l 571 791 z m 167 -81 l 199 -81 l 199 -73 l 177 -73 l 177 -61 l 197 -61 l 197 -53 l 177 -53 l 177 -42 l 199 -42 l 199 -34 l 167 -34 z m 246 -34 l 236 -34 l 236 -63 l 235 -63 l 215 -34 l 207 -34 l 207 -81 l 216 -81 l 216 -51 l 217 -51 l 237 -81 l 246 -81 z m 263 -34 l 252 -34 l 267 -57 l 252 -81 l 263 -81 l 273 -64 l 283 -81 l 294 -81 l 279 -57 l 294 -34 l 283 -34 l 273 -50 z m 298 -34 l 315 -64 l 315 -81 l 325 -81 l 325 -64 l 342 -34 l 331 -34 l 320 -54 l 309 -34 z m 386 -50 b 380 -37 385 -45 383 -41 b 366 -33 376 -35 371 -33 b 350 -39 359 -33 354 -35 b 344 -57 346 -43 344 -50 b 350 -75 344 -65 346 -71 b 366 -81 354 -79 359 -81 b 380 -77 372 -81 376 -80 b 386 -64 383 -73 385 -69 l 376 -64 b 366 -73 374 -70 371 -73 b 353 -57 357 -73 353 -67 b 366 -42 355 -47 359 -42 b 376 -50 371 -42 374 -45 z m 393 -81 l 423 -81 l 423 -73 l 404 -73 l 404 -34 l 393 -34 z m 471 -57 b 465 -39 471 -50 469 -43 b 449 -33 460 -35 456 -33 b 433 -39 443 -33 437 -35 b 427 -57 429 -43 427 -50 b 433 -75 427 -65 429 -71 b 449 -81 437 -79 443 -81 b 465 -75 456 -81 460 -79 b 471 -57 469 -71 471 -65 z m 481 -81 b 487 -76 484 -81 486 -79 b 481 -71 486 -73 484 -71 b 475 -76 478 -71 476 -73 b 481 -81 476 -79 478 -81 z m 536 -50 b 530 -37 536 -45 534 -41 b 516 -33 526 -35 522 -33 b 500 -39 510 -33 505 -35 b 494 -57 496 -43 494 -50 b 500 -75 494 -65 496 -71 b 516 -81 505 -79 510 -81 b 530 -77 522 -81 527 -80 b 536 -64 534 -73 536 -69 l 526 -64 b 516 -73 525 -70 522 -73 b 505 -57 508 -73 505 -67 b 516 -42 505 -47 509 -42 b 526 -50 522 -42 525 -45 z m 587 -57 b 581 -39 587 -50 585 -43 b 565 -33 576 -35 571 -33 b 549 -39 559 -33 553 -35 b 543 -57 545 -43 543 -50 b 549 -75 543 -65 545 -71 b 565 -81 553 -79 559 -81 b 581 -75 571 -81 576 -79 b 587 -57 585 -71 587 -65 z "},"6":{"ha":812,"x_min":0,"x_max":0,"o":"m 539 469 b 589 501 554 483 570 494 b 492 563 555 536 522 557 b 422 572 460 569 437 572 b 332 554 392 572 361 566 b 381 510 350 541 367 526 b 424 514 396 513 410 514 b 539 469 466 514 505 499 z m 306 249 b 338 342 328 277 338 308 b 306 433 338 375 328 406 b 279 382 292 416 283 398 b 274 341 276 366 274 352 b 278 309 274 330 275 319 b 306 249 283 288 292 267 z m 443 373 b 445 341 444 363 445 352 b 443 309 445 331 444 320 b 527 341 474 311 502 322 b 443 373 502 361 474 371 z m 289 231 b 256 292 271 252 260 273 b 250 341 252 312 250 328 b 254 380 250 354 251 368 b 289 452 260 406 271 430 b 239 481 274 465 258 475 b 192 342 208 439 192 392 b 239 201 192 291 208 244 b 266 214 248 204 257 209 b 289 231 274 219 281 224 z m 589 181 b 539 213 570 189 554 199 b 424 168 505 183 466 168 b 381 173 410 168 396 170 b 356 147 374 163 365 155 b 332 129 348 140 340 134 b 422 111 361 117 392 111 b 469 115 437 111 453 112 b 589 181 515 125 555 146 z m 577 -57 b 565 -73 576 -68 572 -73 b 553 -57 557 -73 553 -67 b 565 -42 554 -47 558 -42 b 577 -57 573 -42 577 -47 z m 193 844 l 193 865 l 202 865 b 213 854 210 864 213 861 b 202 844 213 848 210 844 z m 300 846 l 300 865 l 309 865 b 321 856 317 865 321 861 b 309 846 321 849 317 846 z m 443 845 b 427 825 442 831 437 825 b 412 845 417 825 412 831 b 427 865 412 858 418 865 b 443 845 438 865 443 858 z m 548 838 l 555 862 l 564 838 z m 433 760 b 418 739 433 746 427 739 b 401 760 407 739 401 746 b 418 780 403 773 408 780 b 433 760 429 779 433 772 z m 625 196 b 628 191 627 195 628 193 l 628 189 b 627 188 628 189 627 188 b 508 98 587 137 547 107 b 422 85 469 90 440 85 b 300 117 380 85 340 96 l 288 123 b 286 127 287 124 286 126 b 286 130 286 128 286 129 l 288 132 b 386 224 332 157 365 188 b 418 340 408 261 418 300 l 418 342 b 385 458 418 383 407 422 b 288 551 363 496 331 526 b 286 555 287 552 286 553 b 286 557 286 555 286 557 l 288 559 b 427 596 334 584 380 596 b 471 593 442 596 457 595 b 628 494 533 582 585 549 b 629 490 629 493 629 492 b 624 486 629 488 627 487 b 579 469 608 484 594 477 b 543 439 565 460 553 450 b 538 437 541 437 540 437 b 535 438 538 437 536 437 b 479 479 515 458 496 471 b 425 490 461 486 444 490 b 399 488 417 490 408 490 b 439 398 418 460 431 431 b 559 345 486 397 526 378 b 561 342 560 344 561 342 b 559 338 561 340 560 339 b 439 285 526 304 486 286 b 399 195 431 252 418 222 b 422 193 407 193 415 193 b 536 245 467 193 505 210 b 540 247 537 246 538 247 l 541 247 b 545 245 543 246 544 245 b 625 196 569 218 595 202 z m 228 176 b 167 342 187 227 167 282 b 229 507 167 401 187 456 b 232 509 229 509 231 509 b 234 509 233 509 233 509 b 337 433 281 494 316 469 b 363 344 354 406 363 376 l 363 342 b 336 250 362 309 353 279 b 233 174 315 214 280 189 l 232 174 b 228 176 231 174 229 174 z m 461 -57 b 449 -73 460 -68 456 -73 b 437 -57 441 -73 437 -67 b 449 -42 438 -47 442 -42 b 461 -57 457 -42 461 -47 z m 129 679 b 85 661 112 679 98 673 b 68 618 74 650 68 635 l 68 64 b 85 20 68 47 74 32 b 129 3 98 9 112 3 l 684 3 b 726 20 701 3 715 9 b 745 64 739 32 745 47 l 745 618 b 726 661 745 635 739 650 b 684 679 715 673 701 679 z m 595 -34 l 595 -81 l 604 -81 l 604 -50 l 604 -50 l 616 -81 l 623 -81 l 635 -50 l 635 -81 l 646 -81 l 646 -34 l 633 -34 l 620 -66 l 619 -66 l 607 -34 z m 180 814 l 193 814 l 193 834 l 204 834 b 220 840 211 834 216 836 b 227 854 224 844 227 848 b 204 876 226 869 218 876 l 180 876 z m 235 814 l 277 814 l 277 825 l 248 825 l 248 840 l 275 840 l 275 850 l 248 850 l 248 865 l 277 865 l 277 876 l 235 876 z m 288 814 l 300 814 l 300 836 l 310 836 l 321 814 l 336 814 l 323 838 b 334 856 330 841 334 847 b 312 876 333 869 326 876 l 288 876 z m 377 858 l 390 858 b 367 877 388 870 380 877 b 350 871 360 877 354 875 b 343 858 345 868 343 863 b 360 841 343 849 349 843 l 367 840 b 378 831 374 838 377 835 b 366 824 377 826 373 824 b 354 833 359 824 355 827 l 341 833 b 349 818 342 826 344 821 b 367 813 353 814 359 813 b 391 831 382 813 389 819 b 372 850 390 842 384 848 l 366 851 b 357 859 360 852 357 854 b 367 866 357 863 360 866 b 377 858 373 866 376 863 z m 456 845 b 448 868 456 854 454 863 b 427 877 443 873 435 877 b 406 868 419 877 412 873 b 398 845 401 863 398 854 b 406 821 398 835 401 827 b 427 813 412 816 419 813 b 448 821 435 813 443 816 b 456 845 454 827 456 835 z m 518 876 l 505 876 l 505 837 l 505 837 l 478 876 l 466 876 l 466 814 l 479 814 l 479 852 l 507 814 l 518 814 z m 540 814 l 545 827 l 566 827 l 571 814 l 585 814 l 564 876 l 547 876 l 526 814 z m 593 814 l 633 814 l 633 825 l 606 825 l 606 876 l 593 876 z m 237 791 l 237 751 b 225 739 237 743 233 739 b 212 751 216 741 212 744 l 212 791 l 199 791 l 199 750 b 206 734 199 743 201 738 b 225 728 211 730 217 728 b 243 734 233 728 239 730 b 251 750 248 738 251 743 l 251 791 z m 295 772 l 308 772 b 285 791 307 785 298 791 b 268 787 278 791 273 790 b 261 772 264 783 262 779 b 278 755 262 764 267 758 l 285 754 b 296 746 292 753 296 750 b 284 739 295 741 291 739 b 273 748 277 739 274 742 l 260 748 b 267 733 260 741 262 736 b 285 728 271 730 277 728 b 309 746 300 728 308 734 b 290 764 308 756 302 762 l 284 766 b 275 773 278 767 275 769 b 285 781 275 778 278 781 b 295 772 291 781 294 778 z m 318 728 l 359 728 l 359 739 l 331 739 l 331 754 l 357 754 l 357 765 l 331 765 l 331 780 l 359 780 l 359 791 l 318 791 z m 447 760 b 438 783 447 770 444 778 b 418 791 433 789 426 791 b 397 783 410 791 403 789 b 389 760 391 778 389 770 b 397 736 389 749 391 742 b 418 728 403 730 410 728 b 438 736 426 728 433 730 b 447 760 444 742 447 749 z m 509 791 l 496 791 l 496 751 l 495 751 l 468 791 l 456 791 l 456 728 l 469 728 l 469 768 l 470 768 l 497 728 l 509 728 z m 519 728 l 559 728 l 559 739 l 532 739 l 532 791 l 519 791 z m 556 791 l 579 751 l 579 728 l 592 728 l 592 751 l 614 791 l 600 791 l 586 764 l 585 764 l 571 791 z m 167 -81 l 199 -81 l 199 -73 l 177 -73 l 177 -61 l 197 -61 l 197 -53 l 177 -53 l 177 -42 l 199 -42 l 199 -34 l 167 -34 z m 246 -34 l 236 -34 l 236 -63 l 235 -63 l 215 -34 l 207 -34 l 207 -81 l 216 -81 l 216 -51 l 217 -51 l 237 -81 l 246 -81 z m 263 -34 l 252 -34 l 267 -57 l 252 -81 l 263 -81 l 273 -64 l 283 -81 l 294 -81 l 279 -57 l 294 -34 l 283 -34 l 273 -50 z m 298 -34 l 315 -64 l 315 -81 l 325 -81 l 325 -64 l 342 -34 l 331 -34 l 320 -54 l 309 -34 z m 386 -50 b 380 -37 385 -45 383 -41 b 366 -33 376 -35 371 -33 b 350 -39 359 -33 354 -35 b 344 -57 346 -43 344 -50 b 350 -75 344 -65 346 -71 b 366 -81 354 -79 359 -81 b 380 -77 372 -81 376 -80 b 386 -64 383 -73 385 -69 l 376 -64 b 366 -73 374 -70 371 -73 b 353 -57 357 -73 353 -67 b 366 -42 355 -47 359 -42 b 376 -50 371 -42 374 -45 z m 393 -81 l 423 -81 l 423 -73 l 404 -73 l 404 -34 l 393 -34 z m 471 -57 b 465 -39 471 -50 469 -43 b 449 -33 460 -35 456 -33 b 433 -39 443 -33 437 -35 b 427 -57 429 -43 427 -50 b 433 -75 427 -65 429 -71 b 449 -81 437 -79 443 -81 b 465 -75 456 -81 460 -79 b 471 -57 469 -71 471 -65 z m 481 -81 b 487 -76 484 -81 486 -79 b 481 -71 486 -73 484 -71 b 475 -76 478 -71 476 -73 b 481 -81 476 -79 478 -81 z m 536 -50 b 530 -37 536 -45 534 -41 b 516 -33 526 -35 522 -33 b 500 -39 510 -33 505 -35 b 494 -57 496 -43 494 -50 b 500 -75 494 -65 496 -71 b 516 -81 505 -79 510 -81 b 530 -77 522 -81 527 -80 b 536 -64 534 -73 536 -69 l 526 -64 b 516 -73 525 -70 522 -73 b 505 -57 508 -73 505 -67 b 516 -42 505 -47 509 -42 b 526 -50 522 -42 525 -45 z m 587 -57 b 581 -39 587 -50 585 -43 b 565 -33 576 -35 571 -33 b 549 -39 559 -33 553 -35 b 543 -57 545 -43 543 -50 b 549 -75 543 -65 545 -71 b 565 -81 553 -79 559 -81 b 581 -75 571 -81 576 -79 b 587 -57 585 -71 587 -65 z "},"7":{"ha":812,"x_min":0,"x_max":0,"o":"m 539 469 b 589 501 554 483 570 494 b 492 563 555 536 522 557 b 422 572 460 569 437 572 b 332 554 392 572 361 566 b 381 510 350 541 367 526 b 424 514 396 513 410 514 b 539 469 466 514 505 499 z m 306 249 b 338 342 328 277 338 308 b 306 433 338 375 328 406 b 279 382 292 416 283 398 b 274 341 276 366 274 352 b 278 309 274 330 275 319 b 306 249 283 288 292 267 z m 443 373 b 445 341 444 363 445 352 b 443 309 445 331 444 320 b 527 341 474 311 502 322 b 443 373 502 361 474 371 z m 289 231 b 256 292 271 252 260 273 b 250 341 252 312 250 328 b 254 380 250 354 251 368 b 289 452 260 406 271 430 b 239 481 274 465 258 475 b 192 342 208 439 192 392 b 239 201 192 291 208 244 b 266 214 248 204 257 209 b 289 231 274 219 281 224 z m 589 181 b 539 213 570 189 554 199 b 424 168 505 183 466 168 b 381 173 410 168 396 170 b 356 147 374 163 365 155 b 332 129 348 140 340 134 b 422 111 361 117 392 111 b 469 115 437 111 453 112 b 589 181 515 125 555 146 z m 577 -57 b 565 -73 576 -68 572 -73 b 553 -57 557 -73 553 -67 b 565 -42 554 -47 558 -42 b 577 -57 573 -42 577 -47 z m 193 844 l 193 865 l 202 865 b 213 854 210 864 213 861 b 202 844 213 848 210 844 z m 300 846 l 300 865 l 309 865 b 321 856 317 865 321 861 b 309 846 321 849 317 846 z m 443 845 b 427 825 442 831 437 825 b 412 845 417 825 412 831 b 427 865 412 858 418 865 b 443 845 438 865 443 858 z m 548 838 l 555 862 l 564 838 z m 433 760 b 418 739 433 746 427 739 b 401 760 407 739 401 746 b 418 780 403 773 408 780 b 433 760 429 779 433 772 z m 625 196 b 628 191 627 195 628 193 l 628 189 b 627 188 628 189 627 188 b 508 98 587 137 547 107 b 422 85 469 90 440 85 b 300 117 380 85 340 96 l 288 123 b 286 127 287 124 286 126 b 286 130 286 128 286 129 l 288 132 b 386 224 332 157 365 188 b 418 340 408 261 418 300 l 418 342 b 385 458 418 383 407 422 b 288 551 363 496 331 526 b 286 555 287 552 286 553 b 286 557 286 555 286 557 l 288 559 b 427 596 334 584 380 596 b 471 593 442 596 457 595 b 628 494 533 582 585 549 b 629 490 629 493 629 492 b 624 486 629 488 627 487 b 579 469 608 484 594 477 b 543 439 565 460 553 450 b 538 437 541 437 540 437 b 535 438 538 437 536 437 b 479 479 515 458 496 471 b 425 490 461 486 444 490 b 399 488 417 490 408 490 b 439 398 418 460 431 431 b 559 345 486 397 526 378 b 561 342 560 344 561 342 b 559 338 561 340 560 339 b 439 285 526 304 486 286 b 399 195 431 252 418 222 b 422 193 407 193 415 193 b 536 245 467 193 505 210 b 540 247 537 246 538 247 l 541 247 b 545 245 543 246 544 245 b 625 196 569 218 595 202 z m 228 176 b 167 342 187 227 167 282 b 229 507 167 401 187 456 b 232 509 229 509 231 509 b 234 509 233 509 233 509 b 337 433 281 494 316 469 b 363 344 354 406 363 376 l 363 342 b 336 250 362 309 353 279 b 233 174 315 214 280 189 l 232 174 b 228 176 231 174 229 174 z m 461 -57 b 449 -73 460 -68 456 -73 b 437 -57 441 -73 437 -67 b 449 -42 438 -47 442 -42 b 461 -57 457 -42 461 -47 z m 129 679 b 85 661 112 679 98 673 b 68 618 74 650 68 635 l 68 64 b 85 20 68 47 74 32 b 129 3 98 9 112 3 l 684 3 b 726 20 701 3 715 9 b 745 64 739 32 745 47 l 745 618 b 726 661 745 635 739 650 b 684 679 715 673 701 679 z m 595 -34 l 595 -81 l 604 -81 l 604 -50 l 604 -50 l 616 -81 l 623 -81 l 635 -50 l 635 -81 l 646 -81 l 646 -34 l 633 -34 l 620 -66 l 619 -66 l 607 -34 z m 180 814 l 193 814 l 193 834 l 204 834 b 220 840 211 834 216 836 b 227 854 224 844 227 848 b 204 876 226 869 218 876 l 180 876 z m 235 814 l 277 814 l 277 825 l 248 825 l 248 840 l 275 840 l 275 850 l 248 850 l 248 865 l 277 865 l 277 876 l 235 876 z m 288 814 l 300 814 l 300 836 l 310 836 l 321 814 l 336 814 l 323 838 b 334 856 330 841 334 847 b 312 876 333 869 326 876 l 288 876 z m 377 858 l 390 858 b 367 877 388 870 380 877 b 350 871 360 877 354 875 b 343 858 345 868 343 863 b 360 841 343 849 349 843 l 367 840 b 378 831 374 838 377 835 b 366 824 377 826 373 824 b 354 833 359 824 355 827 l 341 833 b 349 818 342 826 344 821 b 367 813 353 814 359 813 b 391 831 382 813 389 819 b 372 850 390 842 384 848 l 366 851 b 357 859 360 852 357 854 b 367 866 357 863 360 866 b 377 858 373 866 376 863 z m 456 845 b 448 868 456 854 454 863 b 427 877 443 873 435 877 b 406 868 419 877 412 873 b 398 845 401 863 398 854 b 406 821 398 835 401 827 b 427 813 412 816 419 813 b 448 821 435 813 443 816 b 456 845 454 827 456 835 z m 518 876 l 505 876 l 505 837 l 505 837 l 478 876 l 466 876 l 466 814 l 479 814 l 479 852 l 507 814 l 518 814 z m 540 814 l 545 827 l 566 827 l 571 814 l 585 814 l 564 876 l 547 876 l 526 814 z m 593 814 l 633 814 l 633 825 l 606 825 l 606 876 l 593 876 z m 237 791 l 237 751 b 225 739 237 743 233 739 b 212 751 216 741 212 744 l 212 791 l 199 791 l 199 750 b 206 734 199 743 201 738 b 225 728 211 730 217 728 b 243 734 233 728 239 730 b 251 750 248 738 251 743 l 251 791 z m 295 772 l 308 772 b 285 791 307 785 298 791 b 268 787 278 791 273 790 b 261 772 264 783 262 779 b 278 755 262 764 267 758 l 285 754 b 296 746 292 753 296 750 b 284 739 295 741 291 739 b 273 748 277 739 274 742 l 260 748 b 267 733 260 741 262 736 b 285 728 271 730 277 728 b 309 746 300 728 308 734 b 290 764 308 756 302 762 l 284 766 b 275 773 278 767 275 769 b 285 781 275 778 278 781 b 295 772 291 781 294 778 z m 318 728 l 359 728 l 359 739 l 331 739 l 331 754 l 357 754 l 357 765 l 331 765 l 331 780 l 359 780 l 359 791 l 318 791 z m 447 760 b 438 783 447 770 444 778 b 418 791 433 789 426 791 b 397 783 410 791 403 789 b 389 760 391 778 389 770 b 397 736 389 749 391 742 b 418 728 403 730 410 728 b 438 736 426 728 433 730 b 447 760 444 742 447 749 z m 509 791 l 496 791 l 496 751 l 495 751 l 468 791 l 456 791 l 456 728 l 469 728 l 469 768 l 470 768 l 497 728 l 509 728 z m 519 728 l 559 728 l 559 739 l 532 739 l 532 791 l 519 791 z m 556 791 l 579 751 l 579 728 l 592 728 l 592 751 l 614 791 l 600 791 l 586 764 l 585 764 l 571 791 z m 167 -81 l 199 -81 l 199 -73 l 177 -73 l 177 -61 l 197 -61 l 197 -53 l 177 -53 l 177 -42 l 199 -42 l 199 -34 l 167 -34 z m 246 -34 l 236 -34 l 236 -63 l 235 -63 l 215 -34 l 207 -34 l 207 -81 l 216 -81 l 216 -51 l 217 -51 l 237 -81 l 246 -81 z m 263 -34 l 252 -34 l 267 -57 l 252 -81 l 263 -81 l 273 -64 l 283 -81 l 294 -81 l 279 -57 l 294 -34 l 283 -34 l 273 -50 z m 298 -34 l 315 -64 l 315 -81 l 325 -81 l 325 -64 l 342 -34 l 331 -34 l 320 -54 l 309 -34 z m 386 -50 b 380 -37 385 -45 383 -41 b 366 -33 376 -35 371 -33 b 350 -39 359 -33 354 -35 b 344 -57 346 -43 344 -50 b 350 -75 344 -65 346 -71 b 366 -81 354 -79 359 -81 b 380 -77 372 -81 376 -80 b 386 -64 383 -73 385 -69 l 376 -64 b 366 -73 374 -70 371 -73 b 353 -57 357 -73 353 -67 b 366 -42 355 -47 359 -42 b 376 -50 371 -42 374 -45 z m 393 -81 l 423 -81 l 423 -73 l 404 -73 l 404 -34 l 393 -34 z m 471 -57 b 465 -39 471 -50 469 -43 b 449 -33 460 -35 456 -33 b 433 -39 443 -33 437 -35 b 427 -57 429 -43 427 -50 b 433 -75 427 -65 429 -71 b 449 -81 437 -79 443 -81 b 465 -75 456 -81 460 -79 b 471 -57 469 -71 471 -65 z m 481 -81 b 487 -76 484 -81 486 -79 b 481 -71 486 -73 484 -71 b 475 -76 478 -71 476 -73 b 481 -81 476 -79 478 -81 z m 536 -50 b 530 -37 536 -45 534 -41 b 516 -33 526 -35 522 -33 b 500 -39 510 -33 505 -35 b 494 -57 496 -43 494 -50 b 500 -75 494 -65 496 -71 b 516 -81 505 -79 510 -81 b 530 -77 522 -81 527 -80 b 536 -64 534 -73 536 -69 l 526 -64 b 516 -73 525 -70 522 -73 b 505 -57 508 -73 505 -67 b 516 -42 505 -47 509 -42 b 526 -50 522 -42 525 -45 z m 587 -57 b 581 -39 587 -50 585 -43 b 565 -33 576 -35 571 -33 b 549 -39 559 -33 553 -35 b 543 -57 545 -43 543 -50 b 549 -75 543 -65 545 -71 b 565 -81 553 -79 559 -81 b 581 -75 571 -81 576 -79 b 587 -57 585 -71 587 -65 z "},"8":{"ha":812,"x_min":0,"x_max":0,"o":"m 539 469 b 589 501 554 483 570 494 b 492 563 555 536 522 557 b 422 572 460 569 437 572 b 332 554 392 572 361 566 b 381 510 350 541 367 526 b 424 514 396 513 410 514 b 539 469 466 514 505 499 z m 306 249 b 338 342 328 277 338 308 b 306 433 338 375 328 406 b 279 382 292 416 283 398 b 274 341 276 366 274 352 b 278 309 274 330 275 319 b 306 249 283 288 292 267 z m 443 373 b 445 341 444 363 445 352 b 443 309 445 331 444 320 b 527 341 474 311 502 322 b 443 373 502 361 474 371 z m 289 231 b 256 292 271 252 260 273 b 250 341 252 312 250 328 b 254 380 250 354 251 368 b 289 452 260 406 271 430 b 239 481 274 465 258 475 b 192 342 208 439 192 392 b 239 201 192 291 208 244 b 266 214 248 204 257 209 b 289 231 274 219 281 224 z m 589 181 b 539 213 570 189 554 199 b 424 168 505 183 466 168 b 381 173 410 168 396 170 b 356 147 374 163 365 155 b 332 129 348 140 340 134 b 422 111 361 117 392 111 b 469 115 437 111 453 112 b 589 181 515 125 555 146 z m 577 -57 b 565 -73 576 -68 572 -73 b 553 -57 557 -73 553 -67 b 565 -42 554 -47 558 -42 b 577 -57 573 -42 577 -47 z m 193 844 l 193 865 l 202 865 b 213 854 210 864 213 861 b 202 844 213 848 210 844 z m 300 846 l 300 865 l 309 865 b 321 856 317 865 321 861 b 309 846 321 849 317 846 z m 443 845 b 427 825 442 831 437 825 b 412 845 417 825 412 831 b 427 865 412 858 418 865 b 443 845 438 865 443 858 z m 548 838 l 555 862 l 564 838 z m 433 760 b 418 739 433 746 427 739 b 401 760 407 739 401 746 b 418 780 403 773 408 780 b 433 760 429 779 433 772 z m 625 196 b 628 191 627 195 628 193 l 628 189 b 627 188 628 189 627 188 b 508 98 587 137 547 107 b 422 85 469 90 440 85 b 300 117 380 85 340 96 l 288 123 b 286 127 287 124 286 126 b 286 130 286 128 286 129 l 288 132 b 386 224 332 157 365 188 b 418 340 408 261 418 300 l 418 342 b 385 458 418 383 407 422 b 288 551 363 496 331 526 b 286 555 287 552 286 553 b 286 557 286 555 286 557 l 288 559 b 427 596 334 584 380 596 b 471 593 442 596 457 595 b 628 494 533 582 585 549 b 629 490 629 493 629 492 b 624 486 629 488 627 487 b 579 469 608 484 594 477 b 543 439 565 460 553 450 b 538 437 541 437 540 437 b 535 438 538 437 536 437 b 479 479 515 458 496 471 b 425 490 461 486 444 490 b 399 488 417 490 408 490 b 439 398 418 460 431 431 b 559 345 486 397 526 378 b 561 342 560 344 561 342 b 559 338 561 340 560 339 b 439 285 526 304 486 286 b 399 195 431 252 418 222 b 422 193 407 193 415 193 b 536 245 467 193 505 210 b 540 247 537 246 538 247 l 541 247 b 545 245 543 246 544 245 b 625 196 569 218 595 202 z m 228 176 b 167 342 187 227 167 282 b 229 507 167 401 187 456 b 232 509 229 509 231 509 b 234 509 233 509 233 509 b 337 433 281 494 316 469 b 363 344 354 406 363 376 l 363 342 b 336 250 362 309 353 279 b 233 174 315 214 280 189 l 232 174 b 228 176 231 174 229 174 z m 461 -57 b 449 -73 460 -68 456 -73 b 437 -57 441 -73 437 -67 b 449 -42 438 -47 442 -42 b 461 -57 457 -42 461 -47 z m 129 679 b 85 661 112 679 98 673 b 68 618 74 650 68 635 l 68 64 b 85 20 68 47 74 32 b 129 3 98 9 112 3 l 684 3 b 726 20 701 3 715 9 b 745 64 739 32 745 47 l 745 618 b 726 661 745 635 739 650 b 684 679 715 673 701 679 z m 595 -34 l 595 -81 l 604 -81 l 604 -50 l 604 -50 l 616 -81 l 623 -81 l 635 -50 l 635 -81 l 646 -81 l 646 -34 l 633 -34 l 620 -66 l 619 -66 l 607 -34 z m 180 814 l 193 814 l 193 834 l 204 834 b 220 840 211 834 216 836 b 227 854 224 844 227 848 b 204 876 226 869 218 876 l 180 876 z m 235 814 l 277 814 l 277 825 l 248 825 l 248 840 l 275 840 l 275 850 l 248 850 l 248 865 l 277 865 l 277 876 l 235 876 z m 288 814 l 300 814 l 300 836 l 310 836 l 321 814 l 336 814 l 323 838 b 334 856 330 841 334 847 b 312 876 333 869 326 876 l 288 876 z m 377 858 l 390 858 b 367 877 388 870 380 877 b 350 871 360 877 354 875 b 343 858 345 868 343 863 b 360 841 343 849 349 843 l 367 840 b 378 831 374 838 377 835 b 366 824 377 826 373 824 b 354 833 359 824 355 827 l 341 833 b 349 818 342 826 344 821 b 367 813 353 814 359 813 b 391 831 382 813 389 819 b 372 850 390 842 384 848 l 366 851 b 357 859 360 852 357 854 b 367 866 357 863 360 866 b 377 858 373 866 376 863 z m 456 845 b 448 868 456 854 454 863 b 427 877 443 873 435 877 b 406 868 419 877 412 873 b 398 845 401 863 398 854 b 406 821 398 835 401 827 b 427 813 412 816 419 813 b 448 821 435 813 443 816 b 456 845 454 827 456 835 z m 518 876 l 505 876 l 505 837 l 505 837 l 478 876 l 466 876 l 466 814 l 479 814 l 479 852 l 507 814 l 518 814 z m 540 814 l 545 827 l 566 827 l 571 814 l 585 814 l 564 876 l 547 876 l 526 814 z m 593 814 l 633 814 l 633 825 l 606 825 l 606 876 l 593 876 z m 237 791 l 237 751 b 225 739 237 743 233 739 b 212 751 216 741 212 744 l 212 791 l 199 791 l 199 750 b 206 734 199 743 201 738 b 225 728 211 730 217 728 b 243 734 233 728 239 730 b 251 750 248 738 251 743 l 251 791 z m 295 772 l 308 772 b 285 791 307 785 298 791 b 268 787 278 791 273 790 b 261 772 264 783 262 779 b 278 755 262 764 267 758 l 285 754 b 296 746 292 753 296 750 b 284 739 295 741 291 739 b 273 748 277 739 274 742 l 260 748 b 267 733 260 741 262 736 b 285 728 271 730 277 728 b 309 746 300 728 308 734 b 290 764 308 756 302 762 l 284 766 b 275 773 278 767 275 769 b 285 781 275 778 278 781 b 295 772 291 781 294 778 z m 318 728 l 359 728 l 359 739 l 331 739 l 331 754 l 357 754 l 357 765 l 331 765 l 331 780 l 359 780 l 359 791 l 318 791 z m 447 760 b 438 783 447 770 444 778 b 418 791 433 789 426 791 b 397 783 410 791 403 789 b 389 760 391 778 389 770 b 397 736 389 749 391 742 b 418 728 403 730 410 728 b 438 736 426 728 433 730 b 447 760 444 742 447 749 z m 509 791 l 496 791 l 496 751 l 495 751 l 468 791 l 456 791 l 456 728 l 469 728 l 469 768 l 470 768 l 497 728 l 509 728 z m 519 728 l 559 728 l 559 739 l 532 739 l 532 791 l 519 791 z m 556 791 l 579 751 l 579 728 l 592 728 l 592 751 l 614 791 l 600 791 l 586 764 l 585 764 l 571 791 z m 167 -81 l 199 -81 l 199 -73 l 177 -73 l 177 -61 l 197 -61 l 197 -53 l 177 -53 l 177 -42 l 199 -42 l 199 -34 l 167 -34 z m 246 -34 l 236 -34 l 236 -63 l 235 -63 l 215 -34 l 207 -34 l 207 -81 l 216 -81 l 216 -51 l 217 -51 l 237 -81 l 246 -81 z m 263 -34 l 252 -34 l 267 -57 l 252 -81 l 263 -81 l 273 -64 l 283 -81 l 294 -81 l 279 -57 l 294 -34 l 283 -34 l 273 -50 z m 298 -34 l 315 -64 l 315 -81 l 325 -81 l 325 -64 l 342 -34 l 331 -34 l 320 -54 l 309 -34 z m 386 -50 b 380 -37 385 -45 383 -41 b 366 -33 376 -35 371 -33 b 350 -39 359 -33 354 -35 b 344 -57 346 -43 344 -50 b 350 -75 344 -65 346 -71 b 366 -81 354 -79 359 -81 b 380 -77 372 -81 376 -80 b 386 -64 383 -73 385 -69 l 376 -64 b 366 -73 374 -70 371 -73 b 353 -57 357 -73 353 -67 b 366 -42 355 -47 359 -42 b 376 -50 371 -42 374 -45 z m 393 -81 l 423 -81 l 423 -73 l 404 -73 l 404 -34 l 393 -34 z m 471 -57 b 465 -39 471 -50 469 -43 b 449 -33 460 -35 456 -33 b 433 -39 443 -33 437 -35 b 427 -57 429 -43 427 -50 b 433 -75 427 -65 429 -71 b 449 -81 437 -79 443 -81 b 465 -75 456 -81 460 -79 b 471 -57 469 -71 471 -65 z m 481 -81 b 487 -76 484 -81 486 -79 b 481 -71 486 -73 484 -71 b 475 -76 478 -71 476 -73 b 481 -81 476 -79 478 -81 z m 536 -50 b 530 -37 536 -45 534 -41 b 516 -33 526 -35 522 -33 b 500 -39 510 -33 505 -35 b 494 -57 496 -43 494 -50 b 500 -75 494 -65 496 -71 b 516 -81 505 -79 510 -81 b 530 -77 522 -81 527 -80 b 536 -64 534 -73 536 -69 l 526 -64 b 516 -73 525 -70 522 -73 b 505 -57 508 -73 505 -67 b 516 -42 505 -47 509 -42 b 526 -50 522 -42 525 -45 z m 587 -57 b 581 -39 587 -50 585 -43 b 565 -33 576 -35 571 -33 b 549 -39 559 -33 553 -35 b 543 -57 545 -43 543 -50 b 549 -75 543 -65 545 -71 b 565 -81 553 -79 559 -81 b 581 -75 571 -81 576 -79 b 587 -57 585 -71 587 -65 z "},"9":{"ha":812,"x_min":0,"x_max":0,"o":"m 539 469 b 589 501 554 483 570 494 b 492 563 555 536 522 557 b 422 572 460 569 437 572 b 332 554 392 572 361 566 b 381 510 350 541 367 526 b 424 514 396 513 410 514 b 539 469 466 514 505 499 z m 306 249 b 338 342 328 277 338 308 b 306 433 338 375 328 406 b 279 382 292 416 283 398 b 274 341 276 366 274 352 b 278 309 274 330 275 319 b 306 249 283 288 292 267 z m 443 373 b 445 341 444 363 445 352 b 443 309 445 331 444 320 b 527 341 474 311 502 322 b 443 373 502 361 474 371 z m 289 231 b 256 292 271 252 260 273 b 250 341 252 312 250 328 b 254 380 250 354 251 368 b 289 452 260 406 271 430 b 239 481 274 465 258 475 b 192 342 208 439 192 392 b 239 201 192 291 208 244 b 266 214 248 204 257 209 b 289 231 274 219 281 224 z m 589 181 b 539 213 570 189 554 199 b 424 168 505 183 466 168 b 381 173 410 168 396 170 b 356 147 374 163 365 155 b 332 129 348 140 340 134 b 422 111 361 117 392 111 b 469 115 437 111 453 112 b 589 181 515 125 555 146 z m 577 -57 b 565 -73 576 -68 572 -73 b 553 -57 557 -73 553 -67 b 565 -42 554 -47 558 -42 b 577 -57 573 -42 577 -47 z m 193 844 l 193 865 l 202 865 b 213 854 210 864 213 861 b 202 844 213 848 210 844 z m 300 846 l 300 865 l 309 865 b 321 856 317 865 321 861 b 309 846 321 849 317 846 z m 443 845 b 427 825 442 831 437 825 b 412 845 417 825 412 831 b 427 865 412 858 418 865 b 443 845 438 865 443 858 z m 548 838 l 555 862 l 564 838 z m 433 760 b 418 739 433 746 427 739 b 401 760 407 739 401 746 b 418 780 403 773 408 780 b 433 760 429 779 433 772 z m 625 196 b 628 191 627 195 628 193 l 628 189 b 627 188 628 189 627 188 b 508 98 587 137 547 107 b 422 85 469 90 440 85 b 300 117 380 85 340 96 l 288 123 b 286 127 287 124 286 126 b 286 130 286 128 286 129 l 288 132 b 386 224 332 157 365 188 b 418 340 408 261 418 300 l 418 342 b 385 458 418 383 407 422 b 288 551 363 496 331 526 b 286 555 287 552 286 553 b 286 557 286 555 286 557 l 288 559 b 427 596 334 584 380 596 b 471 593 442 596 457 595 b 628 494 533 582 585 549 b 629 490 629 493 629 492 b 624 486 629 488 627 487 b 579 469 608 484 594 477 b 543 439 565 460 553 450 b 538 437 541 437 540 437 b 535 438 538 437 536 437 b 479 479 515 458 496 471 b 425 490 461 486 444 490 b 399 488 417 490 408 490 b 439 398 418 460 431 431 b 559 345 486 397 526 378 b 561 342 560 344 561 342 b 559 338 561 340 560 339 b 439 285 526 304 486 286 b 399 195 431 252 418 222 b 422 193 407 193 415 193 b 536 245 467 193 505 210 b 540 247 537 246 538 247 l 541 247 b 545 245 543 246 544 245 b 625 196 569 218 595 202 z m 228 176 b 167 342 187 227 167 282 b 229 507 167 401 187 456 b 232 509 229 509 231 509 b 234 509 233 509 233 509 b 337 433 281 494 316 469 b 363 344 354 406 363 376 l 363 342 b 336 250 362 309 353 279 b 233 174 315 214 280 189 l 232 174 b 228 176 231 174 229 174 z m 461 -57 b 449 -73 460 -68 456 -73 b 437 -57 441 -73 437 -67 b 449 -42 438 -47 442 -42 b 461 -57 457 -42 461 -47 z m 129 679 b 85 661 112 679 98 673 b 68 618 74 650 68 635 l 68 64 b 85 20 68 47 74 32 b 129 3 98 9 112 3 l 684 3 b 726 20 701 3 715 9 b 745 64 739 32 745 47 l 745 618 b 726 661 745 635 739 650 b 684 679 715 673 701 679 z m 595 -34 l 595 -81 l 604 -81 l 604 -50 l 604 -50 l 616 -81 l 623 -81 l 635 -50 l 635 -81 l 646 -81 l 646 -34 l 633 -34 l 620 -66 l 619 -66 l 607 -34 z m 180 814 l 193 814 l 193 834 l 204 834 b 220 840 211 834 216 836 b 227 854 224 844 227 848 b 204 876 226 869 218 876 l 180 876 z m 235 814 l 277 814 l 277 825 l 248 825 l 248 840 l 275 840 l 275 850 l 248 850 l 248 865 l 277 865 l 277 876 l 235 876 z m 288 814 l 300 814 l 300 836 l 310 836 l 321 814 l 336 814 l 323 838 b 334 856 330 841 334 847 b 312 876 333 869 326 876 l 288 876 z m 377 858 l 390 858 b 367 877 388 870 380 877 b 350 871 360 877 354 875 b 343 858 345 868 343 863 b 360 841 343 849 349 843 l 367 840 b 378 831 374 838 377 835 b 366 824 377 826 373 824 b 354 833 359 824 355 827 l 341 833 b 349 818 342 826 344 821 b 367 813 353 814 359 813 b 391 831 382 813 389 819 b 372 850 390 842 384 848 l 366 851 b 357 859 360 852 357 854 b 367 866 357 863 360 866 b 377 858 373 866 376 863 z m 456 845 b 448 868 456 854 454 863 b 427 877 443 873 435 877 b 406 868 419 877 412 873 b 398 845 401 863 398 854 b 406 821 398 835 401 827 b 427 813 412 816 419 813 b 448 821 435 813 443 816 b 456 845 454 827 456 835 z m 518 876 l 505 876 l 505 837 l 505 837 l 478 876 l 466 876 l 466 814 l 479 814 l 479 852 l 507 814 l 518 814 z m 540 814 l 545 827 l 566 827 l 571 814 l 585 814 l 564 876 l 547 876 l 526 814 z m 593 814 l 633 814 l 633 825 l 606 825 l 606 876 l 593 876 z m 237 791 l 237 751 b 225 739 237 743 233 739 b 212 751 216 741 212 744 l 212 791 l 199 791 l 199 750 b 206 734 199 743 201 738 b 225 728 211 730 217 728 b 243 734 233 728 239 730 b 251 750 248 738 251 743 l 251 791 z m 295 772 l 308 772 b 285 791 307 785 298 791 b 268 787 278 791 273 790 b 261 772 264 783 262 779 b 278 755 262 764 267 758 l 285 754 b 296 746 292 753 296 750 b 284 739 295 741 291 739 b 273 748 277 739 274 742 l 260 748 b 267 733 260 741 262 736 b 285 728 271 730 277 728 b 309 746 300 728 308 734 b 290 764 308 756 302 762 l 284 766 b 275 773 278 767 275 769 b 285 781 275 778 278 781 b 295 772 291 781 294 778 z m 318 728 l 359 728 l 359 739 l 331 739 l 331 754 l 357 754 l 357 765 l 331 765 l 331 780 l 359 780 l 359 791 l 318 791 z m 447 760 b 438 783 447 770 444 778 b 418 791 433 789 426 791 b 397 783 410 791 403 789 b 389 760 391 778 389 770 b 397 736 389 749 391 742 b 418 728 403 730 410 728 b 438 736 426 728 433 730 b 447 760 444 742 447 749 z m 509 791 l 496 791 l 496 751 l 495 751 l 468 791 l 456 791 l 456 728 l 469 728 l 469 768 l 470 768 l 497 728 l 509 728 z m 519 728 l 559 728 l 559 739 l 532 739 l 532 791 l 519 791 z m 556 791 l 579 751 l 579 728 l 592 728 l 592 751 l 614 791 l 600 791 l 586 764 l 585 764 l 571 791 z m 167 -81 l 199 -81 l 199 -73 l 177 -73 l 177 -61 l 197 -61 l 197 -53 l 177 -53 l 177 -42 l 199 -42 l 199 -34 l 167 -34 z m 246 -34 l 236 -34 l 236 -63 l 235 -63 l 215 -34 l 207 -34 l 207 -81 l 216 -81 l 216 -51 l 217 -51 l 237 -81 l 246 -81 z m 263 -34 l 252 -34 l 267 -57 l 252 -81 l 263 -81 l 273 -64 l 283 -81 l 294 -81 l 279 -57 l 294 -34 l 283 -34 l 273 -50 z m 298 -34 l 315 -64 l 315 -81 l 325 -81 l 325 -64 l 342 -34 l 331 -34 l 320 -54 l 309 -34 z m 386 -50 b 380 -37 385 -45 383 -41 b 366 -33 376 -35 371 -33 b 350 -39 359 -33 354 -35 b 344 -57 346 -43 344 -50 b 350 -75 344 -65 346 -71 b 366 -81 354 -79 359 -81 b 380 -77 372 -81 376 -80 b 386 -64 383 -73 385 -69 l 376 -64 b 366 -73 374 -70 371 -73 b 353 -57 357 -73 353 -67 b 366 -42 355 -47 359 -42 b 376 -50 371 -42 374 -45 z m 393 -81 l 423 -81 l 423 -73 l 404 -73 l 404 -34 l 393 -34 z m 471 -57 b 465 -39 471 -50 469 -43 b 449 -33 460 -35 456 -33 b 433 -39 443 -33 437 -35 b 427 -57 429 -43 427 -50 b 433 -75 427 -65 429 -71 b 449 -81 437 -79 443 -81 b 465 -75 456 -81 460 -79 b 471 -57 469 -71 471 -65 z m 481 -81 b 487 -76 484 -81 486 -79 b 481 -71 486 -73 484 -71 b 475 -76 478 -71 476 -73 b 481 -81 476 -79 478 -81 z m 536 -50 b 530 -37 536 -45 534 -41 b 516 -33 526 -35 522 -33 b 500 -39 510 -33 505 -35 b 494 -57 496 -43 494 -50 b 500 -75 494 -65 496 -71 b 516 -81 505 -79 510 -81 b 530 -77 522 -81 527 -80 b 536 -64 534 -73 536 -69 l 526 -64 b 516 -73 525 -70 522 -73 b 505 -57 508 -73 505 -67 b 516 -42 505 -47 509 -42 b 526 -50 522 -42 525 -45 z m 587 -57 b 581 -39 587 -50 585 -43 b 565 -33 576 -35 571 -33 b 549 -39 559 -33 553 -35 b 543 -57 545 -43 543 -50 b 549 -75 543 -65 545 -71 b 565 -81 553 -79 559 -81 b 581 -75 571 -81 576 -79 b 587 -57 585 -71 587 -65 z "}," ":{"ha":339,"x_min":0,"x_max":0,"o":""},"":{"ha":339,"x_min":0,"x_max":0,"o":""},"!":{"ha":490,"x_min":0,"x_max":0,"o":"m 422 277 l 422 779 l 253 948 l 68 948 l 68 709 l 154 709 l 183 680 l 183 277 z m 422 235 l 183 235 l 183 1 l 422 1 z "},"\"":{"ha":734,"x_min":0,"x_max":0,"o":"m 113 656 l 352 656 l 352 779 l 183 948 l 68 948 l 68 714 l 84 714 l 113 685 z m 428 656 l 667 656 l 667 779 l 498 948 l 382 948 l 382 714 l 399 714 l 428 685 z "},"#":{"ha":1223,"x_min":0,"x_max":0,"o":"m 721 353 l 721 269 l 692 240 l 525 240 l 525 1 l 791 1 l 960 170 l 960 353 l 1029 353 l 1029 592 l 960 592 l 960 680 l 989 709 l 1156 709 l 1156 948 l 890 948 l 721 779 l 721 592 l 503 592 l 503 680 l 532 709 l 699 709 l 699 948 l 433 948 l 264 779 l 264 592 l 195 592 l 195 353 l 264 353 l 264 269 l 235 240 l 68 240 l 68 1 l 334 1 l 503 170 l 503 353 z "},"$":{"ha":1019,"x_min":0,"x_max":0,"o":"m 390 619 l 336 619 l 307 648 l 307 680 l 336 709 l 390 709 z m 629 380 l 683 380 l 712 351 l 712 269 l 683 239 l 629 239 z m 629 1128 l 390 1128 l 390 948 l 237 948 l 68 779 l 68 549 l 237 380 l 390 380 l 390 239 l 68 239 l 68 1 l 390 1 l 390 -183 l 629 -183 l 629 1 l 782 1 l 951 170 l 951 450 l 782 619 l 629 619 l 629 709 l 951 709 l 951 948 l 629 948 z "},"%":{"ha":1208,"x_min":0,"x_max":0,"o":"m 485 779 l 485 269 l 456 239 l 289 239 l 289 1 l 555 1 l 724 170 l 724 680 l 753 709 l 920 709 l 920 948 l 654 948 z m 222 774 l 222 775 l 241 794 l 258 794 l 277 775 l 277 774 l 258 755 l 241 755 z m 177 948 l 68 839 l 68 711 l 177 602 l 322 602 l 431 711 l 431 839 l 322 948 z m 931 174 l 931 175 l 950 193 l 968 193 l 986 175 l 986 174 l 968 155 l 950 155 z m 886 347 l 777 239 l 777 110 l 886 1 l 1031 1 l 1140 110 l 1140 239 l 1031 347 z "},"&":{"ha":1230,"x_min":0,"x_max":0,"o":"m 307 269 l 307 354 l 336 383 l 361 383 l 475 277 l 543 277 l 658 383 l 782 383 l 951 552 l 951 779 l 782 948 l 237 948 l 68 779 l 68 552 l 117 503 l 68 453 l 68 170 l 237 1 l 861 1 l 1029 170 l 1029 261 l 1059 290 l 1162 290 l 1162 529 l 960 529 l 791 360 l 791 269 l 762 239 l 336 239 z m 336 622 l 307 651 l 307 680 l 336 709 l 683 709 l 712 680 l 712 651 l 683 622 l 559 622 l 509 572 l 460 622 z "},"'":{"ha":420,"x_min":0,"x_max":0,"o":"m 113 656 l 352 656 l 352 779 l 183 948 l 68 948 l 68 714 l 84 714 l 113 685 z "},"(":{"ha":490,"x_min":0,"x_max":0,"o":"m 68 1049 l 68 -100 l 237 -269 l 422 -269 l 422 -30 l 336 -30 l 307 -1 l 307 950 l 336 979 l 422 979 l 422 1218 l 237 1218 z "},")":{"ha":490,"x_min":0,"x_max":0,"o":"m 422 1049 l 253 1218 l 68 1218 l 68 979 l 154 979 l 183 950 l 183 -1 l 154 -30 l 68 -30 l 68 -269 l 253 -269 l 422 -100 z "},"*":{"ha":502,"x_min":0,"x_max":0,"o":"m 174 844 l 68 844 l 68 787 l 143 711 l 197 711 l 197 702 l 184 689 l 172 689 l 172 582 l 229 582 l 304 658 l 304 711 l 314 711 l 327 699 l 327 686 l 434 686 l 434 743 l 358 819 l 304 819 l 304 828 l 317 842 l 330 842 l 330 948 l 273 948 l 197 873 l 197 819 l 188 819 l 174 831 z "},"+":{"ha":805,"x_min":0,"x_max":0,"o":"m 68 594 l 68 355 l 283 355 l 283 140 l 522 140 l 522 355 l 737 355 l 737 594 l 522 594 l 522 809 l 283 809 l 283 594 z "},",":{"ha":420,"x_min":0,"x_max":0,"o":"m 113 -57 l 352 -57 l 352 66 l 183 235 l 68 235 l 68 1 l 84 1 l 113 -28 z "},"-":{"ha":805,"x_min":0,"x_max":0,"o":"m 68 594 l 68 355 l 737 355 l 737 594 z "},"":{"ha":805,"x_min":0,"x_max":0,"o":"m 68 594 l 68 355 l 737 355 l 737 594 z "},".":{"ha":374,"x_min":0,"x_max":0,"o":"m 307 235 l 68 235 l 68 1 l 307 1 z "},"/":{"ha":766,"x_min":0,"x_max":0,"o":"m 264 779 l 264 269 l 235 239 l 68 239 l 68 1 l 334 1 l 503 170 l 503 680 l 532 709 l 699 709 l 699 948 l 433 948 z "},":":{"ha":374,"x_min":0,"x_max":0,"o":"m 307 823 l 68 823 l 68 589 l 307 589 z m 307 360 l 68 360 l 68 126 l 307 126 z "},";":{"ha":420,"x_min":0,"x_max":0,"o":"m 307 823 l 68 823 l 68 589 l 307 589 z m 113 126 l 352 126 l 352 250 l 183 418 l 68 418 l 68 184 l 84 184 l 113 155 z "},"<":{"ha":568,"x_min":0,"x_max":0,"o":"m 307 386 l 307 475 l 336 505 l 500 505 l 500 743 l 237 743 l 68 574 l 68 287 l 237 118 l 500 118 l 500 357 l 336 357 z "},"=":{"ha":805,"x_min":0,"x_max":0,"o":"m 68 783 l 68 544 l 737 544 l 737 783 z m 68 406 l 68 167 l 737 167 l 737 406 z "},">":{"ha":568,"x_min":0,"x_max":0,"o":"m 261 386 l 233 357 l 68 357 l 68 118 l 331 118 l 500 287 l 500 574 l 331 743 l 68 743 l 68 505 l 233 505 l 261 475 z "},"?":{"ha":1019,"x_min":0,"x_max":0,"o":"m 712 680 l 712 618 l 683 589 l 489 589 l 320 420 l 320 277 l 559 277 l 559 321 l 587 351 l 782 351 l 951 519 l 951 779 l 782 948 l 237 948 l 68 779 l 68 651 l 307 651 l 307 680 l 336 709 l 683 709 z m 558 235 l 320 235 l 320 1 l 558 1 z "},"@":{"ha":1494,"x_min":0,"x_max":0,"o":"m 876 603 l 518 603 l 349 434 l 349 229 l 518 60 l 1257 60 l 1426 229 l 1426 1053 l 1257 1222 l 237 1222 l 68 1053 l 68 -109 l 237 -277 l 1257 -277 l 1426 -109 l 1426 20 l 1187 20 l 1187 -9 l 1158 -39 l 336 -39 l 307 -9 l 307 954 l 336 983 l 1158 983 l 1187 954 l 1187 328 l 1158 299 l 1144 299 l 1144 755 l 975 924 l 518 924 l 349 755 l 349 628 l 588 628 l 588 657 l 617 686 l 876 686 l 905 657 l 905 632 z m 905 364 l 905 299 l 617 299 l 588 328 l 588 335 l 617 364 z "},"A":{"ha":812,"x_min":0,"x_max":0,"o":"m 539 469 b 589 501 554 483 570 494 b 492 563 555 536 522 557 b 422 572 460 569 437 572 b 332 554 392 572 361 566 b 381 510 350 541 367 526 b 424 514 396 513 410 514 b 539 469 466 514 505 499 z m 306 249 b 338 342 328 277 338 308 b 306 433 338 375 328 406 b 279 382 292 416 283 398 b 274 341 276 366 274 352 b 278 309 274 330 275 319 b 306 249 283 288 292 267 z m 443 373 b 445 341 444 363 445 352 b 443 309 445 331 444 320 b 527 341 474 311 502 322 b 443 373 502 361 474 371 z m 289 231 b 256 292 271 252 260 273 b 250 341 252 312 250 328 b 254 380 250 354 251 368 b 289 452 260 406 271 430 b 239 481 274 465 258 475 b 192 342 208 439 192 392 b 239 201 192 291 208 244 b 266 214 248 204 257 209 b 289 231 274 219 281 224 z m 589 181 b 539 213 570 189 554 199 b 424 168 505 183 466 168 b 381 173 410 168 396 170 b 356 147 374 163 365 155 b 332 129 348 140 340 134 b 422 111 361 117 392 111 b 469 115 437 111 453 112 b 589 181 515 125 555 146 z m 577 -57 b 565 -73 576 -68 572 -73 b 553 -57 557 -73 553 -67 b 565 -42 554 -47 558 -42 b 577 -57 573 -42 577 -47 z m 193 844 l 193 865 l 202 865 b 213 854 210 864 213 861 b 202 844 213 848 210 844 z m 300 846 l 300 865 l 309 865 b 321 856 317 865 321 861 b 309 846 321 849 317 846 z m 443 845 b 427 825 442 831 437 825 b 412 845 417 825 412 831 b 427 865 412 858 418 865 b 443 845 438 865 443 858 z m 548 838 l 555 862 l 564 838 z m 433 760 b 418 739 433 746 427 739 b 401 760 407 739 401 746 b 418 780 403 773 408 780 b 433 760 429 779 433 772 z m 625 196 b 628 191 627 195 628 193 l 628 189 b 627 188 628 189 627 188 b 508 98 587 137 547 107 b 422 85 469 90 440 85 b 300 117 380 85 340 96 l 288 123 b 286 127 287 124 286 126 b 286 130 286 128 286 129 l 288 132 b 386 224 332 157 365 188 b 418 340 408 261 418 300 l 418 342 b 385 458 418 383 407 422 b 288 551 363 496 331 526 b 286 555 287 552 286 553 b 286 557 286 555 286 557 l 288 559 b 427 596 334 584 380 596 b 471 593 442 596 457 595 b 628 494 533 582 585 549 b 629 490 629 493 629 492 b 624 486 629 488 627 487 b 579 469 608 484 594 477 b 543 439 565 460 553 450 b 538 437 541 437 540 437 b 535 438 538 437 536 437 b 479 479 515 458 496 471 b 425 490 461 486 444 490 b 399 488 417 490 408 490 b 439 398 418 460 431 431 b 559 345 486 397 526 378 b 561 342 560 344 561 342 b 559 338 561 340 560 339 b 439 285 526 304 486 286 b 399 195 431 252 418 222 b 422 193 407 193 415 193 b 536 245 467 193 505 210 b 540 247 537 246 538 247 l 541 247 b 545 245 543 246 544 245 b 625 196 569 218 595 202 z m 228 176 b 167 342 187 227 167 282 b 229 507 167 401 187 456 b 232 509 229 509 231 509 b 234 509 233 509 233 509 b 337 433 281 494 316 469 b 363 344 354 406 363 376 l 363 342 b 336 250 362 309 353 279 b 233 174 315 214 280 189 l 232 174 b 228 176 231 174 229 174 z m 461 -57 b 449 -73 460 -68 456 -73 b 437 -57 441 -73 437 -67 b 449 -42 438 -47 442 -42 b 461 -57 457 -42 461 -47 z m 129 679 b 85 661 112 679 98 673 b 68 618 74 650 68 635 l 68 64 b 85 20 68 47 74 32 b 129 3 98 9 112 3 l 684 3 b 726 20 701 3 715 9 b 745 64 739 32 745 47 l 745 618 b 726 661 745 635 739 650 b 684 679 715 673 701 679 z m 595 -34 l 595 -81 l 604 -81 l 604 -50 l 604 -50 l 616 -81 l 623 -81 l 635 -50 l 635 -81 l 646 -81 l 646 -34 l 633 -34 l 620 -66 l 619 -66 l 607 -34 z m 180 814 l 193 814 l 193 834 l 204 834 b 220 840 211 834 216 836 b 227 854 224 844 227 848 b 204 876 226 869 218 876 l 180 876 z m 235 814 l 277 814 l 277 825 l 248 825 l 248 840 l 275 840 l 275 850 l 248 850 l 248 865 l 277 865 l 277 876 l 235 876 z m 288 814 l 300 814 l 300 836 l 310 836 l 321 814 l 336 814 l 323 838 b 334 856 330 841 334 847 b 312 876 333 869 326 876 l 288 876 z m 377 858 l 390 858 b 367 877 388 870 380 877 b 350 871 360 877 354 875 b 343 858 345 868 343 863 b 360 841 343 849 349 843 l 367 840 b 378 831 374 838 377 835 b 366 824 377 826 373 824 b 354 833 359 824 355 827 l 341 833 b 349 818 342 826 344 821 b 367 813 353 814 359 813 b 391 831 382 813 389 819 b 372 850 390 842 384 848 l 366 851 b 357 859 360 852 357 854 b 367 866 357 863 360 866 b 377 858 373 866 376 863 z m 456 845 b 448 868 456 854 454 863 b 427 877 443 873 435 877 b 406 868 419 877 412 873 b 398 845 401 863 398 854 b 406 821 398 835 401 827 b 427 813 412 816 419 813 b 448 821 435 813 443 816 b 456 845 454 827 456 835 z m 518 876 l 505 876 l 505 837 l 505 837 l 478 876 l 466 876 l 466 814 l 479 814 l 479 852 l 507 814 l 518 814 z m 540 814 l 545 827 l 566 827 l 571 814 l 585 814 l 564 876 l 547 876 l 526 814 z m 593 814 l 633 814 l 633 825 l 606 825 l 606 876 l 593 876 z m 237 791 l 237 751 b 225 739 237 743 233 739 b 212 751 216 741 212 744 l 212 791 l 199 791 l 199 750 b 206 734 199 743 201 738 b 225 728 211 730 217 728 b 243 734 233 728 239 730 b 251 750 248 738 251 743 l 251 791 z m 295 772 l 308 772 b 285 791 307 785 298 791 b 268 787 278 791 273 790 b 261 772 264 783 262 779 b 278 755 262 764 267 758 l 285 754 b 296 746 292 753 296 750 b 284 739 295 741 291 739 b 273 748 277 739 274 742 l 260 748 b 267 733 260 741 262 736 b 285 728 271 730 277 728 b 309 746 300 728 308 734 b 290 764 308 756 302 762 l 284 766 b 275 773 278 767 275 769 b 285 781 275 778 278 781 b 295 772 291 781 294 778 z m 318 728 l 359 728 l 359 739 l 331 739 l 331 754 l 357 754 l 357 765 l 331 765 l 331 780 l 359 780 l 359 791 l 318 791 z m 447 760 b 438 783 447 770 444 778 b 418 791 433 789 426 791 b 397 783 410 791 403 789 b 389 760 391 778 389 770 b 397 736 389 749 391 742 b 418 728 403 730 410 728 b 438 736 426 728 433 730 b 447 760 444 742 447 749 z m 509 791 l 496 791 l 496 751 l 495 751 l 468 791 l 456 791 l 456 728 l 469 728 l 469 768 l 470 768 l 497 728 l 509 728 z m 519 728 l 559 728 l 559 739 l 532 739 l 532 791 l 519 791 z m 556 791 l 579 751 l 579 728 l 592 728 l 592 751 l 614 791 l 600 791 l 586 764 l 585 764 l 571 791 z m 167 -81 l 199 -81 l 199 -73 l 177 -73 l 177 -61 l 197 -61 l 197 -53 l 177 -53 l 177 -42 l 199 -42 l 199 -34 l 167 -34 z m 246 -34 l 236 -34 l 236 -63 l 235 -63 l 215 -34 l 207 -34 l 207 -81 l 216 -81 l 216 -51 l 217 -51 l 237 -81 l 246 -81 z m 263 -34 l 252 -34 l 267 -57 l 252 -81 l 263 -81 l 273 -64 l 283 -81 l 294 -81 l 279 -57 l 294 -34 l 283 -34 l 273 -50 z m 298 -34 l 315 -64 l 315 -81 l 325 -81 l 325 -64 l 342 -34 l 331 -34 l 320 -54 l 309 -34 z m 386 -50 b 380 -37 385 -45 383 -41 b 366 -33 376 -35 371 -33 b 350 -39 359 -33 354 -35 b 344 -57 346 -43 344 -50 b 350 -75 344 -65 346 -71 b 366 -81 354 -79 359 -81 b 380 -77 372 -81 376 -80 b 386 -64 383 -73 385 -69 l 376 -64 b 366 -73 374 -70 371 -73 b 353 -57 357 -73 353 -67 b 366 -42 355 -47 359 -42 b 376 -50 371 -42 374 -45 z m 393 -81 l 423 -81 l 423 -73 l 404 -73 l 404 -34 l 393 -34 z m 471 -57 b 465 -39 471 -50 469 -43 b 449 -33 460 -35 456 -33 b 433 -39 443 -33 437 -35 b 427 -57 429 -43 427 -50 b 433 -75 427 -65 429 -71 b 449 -81 437 -79 443 -81 b 465 -75 456 -81 460 -79 b 471 -57 469 -71 471 -65 z m 481 -81 b 487 -76 484 -81 486 -79 b 481 -71 486 -73 484 -71 b 475 -76 478 -71 476 -73 b 481 -81 476 -79 478 -81 z m 536 -50 b 530 -37 536 -45 534 -41 b 516 -33 526 -35 522 -33 b 500 -39 510 -33 505 -35 b 494 -57 496 -43 494 -50 b 500 -75 494 -65 496 -71 b 516 -81 505 -79 510 -81 b 530 -77 522 -81 527 -80 b 536 -64 534 -73 536 -69 l 526 -64 b 516 -73 525 -70 522 -73 b 505 -57 508 -73 505 -67 b 516 -42 505 -47 509 -42 b 526 -50 522 -42 525 -45 z m 587 -57 b 581 -39 587 -50 585 -43 b 565 -33 576 -35 571 -33 b 549 -39 559 -33 553 -35 b 543 -57 545 -43 543 -50 b 549 -75 543 -65 545 -71 b 565 -81 553 -79 559 -81 b 581 -75 571 -81 576 -79 b 587 -57 585 -71 587 -65 z "},"B":{"ha":812,"x_min":0,"x_max":0,"o":"m 539 469 b 589 501 554 483 570 494 b 492 563 555 536 522 557 b 422 572 460 569 437 572 b 332 554 392 572 361 566 b 381 510 350 541 367 526 b 424 514 396 513 410 514 b 539 469 466 514 505 499 z m 306 249 b 338 342 328 277 338 308 b 306 433 338 375 328 406 b 279 382 292 416 283 398 b 274 341 276 366 274 352 b 278 309 274 330 275 319 b 306 249 283 288 292 267 z m 443 373 b 445 341 444 363 445 352 b 443 309 445 331 444 320 b 527 341 474 311 502 322 b 443 373 502 361 474 371 z m 289 231 b 256 292 271 252 260 273 b 250 341 252 312 250 328 b 254 380 250 354 251 368 b 289 452 260 406 271 430 b 239 481 274 465 258 475 b 192 342 208 439 192 392 b 239 201 192 291 208 244 b 266 214 248 204 257 209 b 289 231 274 219 281 224 z m 589 181 b 539 213 570 189 554 199 b 424 168 505 183 466 168 b 381 173 410 168 396 170 b 356 147 374 163 365 155 b 332 129 348 140 340 134 b 422 111 361 117 392 111 b 469 115 437 111 453 112 b 589 181 515 125 555 146 z m 577 -57 b 565 -73 576 -68 572 -73 b 553 -57 557 -73 553 -67 b 565 -42 554 -47 558 -42 b 577 -57 573 -42 577 -47 z m 193 844 l 193 865 l 202 865 b 213 854 210 864 213 861 b 202 844 213 848 210 844 z m 300 846 l 300 865 l 309 865 b 321 856 317 865 321 861 b 309 846 321 849 317 846 z m 443 845 b 427 825 442 831 437 825 b 412 845 417 825 412 831 b 427 865 412 858 418 865 b 443 845 438 865 443 858 z m 548 838 l 555 862 l 564 838 z m 433 760 b 418 739 433 746 427 739 b 401 760 407 739 401 746 b 418 780 403 773 408 780 b 433 760 429 779 433 772 z m 625 196 b 628 191 627 195 628 193 l 628 189 b 627 188 628 189 627 188 b 508 98 587 137 547 107 b 422 85 469 90 440 85 b 300 117 380 85 340 96 l 288 123 b 286 127 287 124 286 126 b 286 130 286 128 286 129 l 288 132 b 386 224 332 157 365 188 b 418 340 408 261 418 300 l 418 342 b 385 458 418 383 407 422 b 288 551 363 496 331 526 b 286 555 287 552 286 553 b 286 557 286 555 286 557 l 288 559 b 427 596 334 584 380 596 b 471 593 442 596 457 595 b 628 494 533 582 585 549 b 629 490 629 493 629 492 b 624 486 629 488 627 487 b 579 469 608 484 594 477 b 543 439 565 460 553 450 b 538 437 541 437 540 437 b 535 438 538 437 536 437 b 479 479 515 458 496 471 b 425 490 461 486 444 490 b 399 488 417 490 408 490 b 439 398 418 460 431 431 b 559 345 486 397 526 378 b 561 342 560 344 561 342 b 559 338 561 340 560 339 b 439 285 526 304 486 286 b 399 195 431 252 418 222 b 422 193 407 193 415 193 b 536 245 467 193 505 210 b 540 247 537 246 538 247 l 541 247 b 545 245 543 246 544 245 b 625 196 569 218 595 202 z m 228 176 b 167 342 187 227 167 282 b 229 507 167 401 187 456 b 232 509 229 509 231 509 b 234 509 233 509 233 509 b 337 433 281 494 316 469 b 363 344 354 406 363 376 l 363 342 b 336 250 362 309 353 279 b 233 174 315 214 280 189 l 232 174 b 228 176 231 174 229 174 z m 461 -57 b 449 -73 460 -68 456 -73 b 437 -57 441 -73 437 -67 b 449 -42 438 -47 442 -42 b 461 -57 457 -42 461 -47 z m 129 679 b 85 661 112 679 98 673 b 68 618 74 650 68 635 l 68 64 b 85 20 68 47 74 32 b 129 3 98 9 112 3 l 684 3 b 726 20 701 3 715 9 b 745 64 739 32 745 47 l 745 618 b 726 661 745 635 739 650 b 684 679 715 673 701 679 z m 595 -34 l 595 -81 l 604 -81 l 604 -50 l 604 -50 l 616 -81 l 623 -81 l 635 -50 l 635 -81 l 646 -81 l 646 -34 l 633 -34 l 620 -66 l 619 -66 l 607 -34 z m 180 814 l 193 814 l 193 834 l 204 834 b 220 840 211 834 216 836 b 227 854 224 844 227 848 b 204 876 226 869 218 876 l 180 876 z m 235 814 l 277 814 l 277 825 l 248 825 l 248 840 l 275 840 l 275 850 l 248 850 l 248 865 l 277 865 l 277 876 l 235 876 z m 288 814 l 300 814 l 300 836 l 310 836 l 321 814 l 336 814 l 323 838 b 334 856 330 841 334 847 b 312 876 333 869 326 876 l 288 876 z m 377 858 l 390 858 b 367 877 388 870 380 877 b 350 871 360 877 354 875 b 343 858 345 868 343 863 b 360 841 343 849 349 843 l 367 840 b 378 831 374 838 377 835 b 366 824 377 826 373 824 b 354 833 359 824 355 827 l 341 833 b 349 818 342 826 344 821 b 367 813 353 814 359 813 b 391 831 382 813 389 819 b 372 850 390 842 384 848 l 366 851 b 357 859 360 852 357 854 b 367 866 357 863 360 866 b 377 858 373 866 376 863 z m 456 845 b 448 868 456 854 454 863 b 427 877 443 873 435 877 b 406 868 419 877 412 873 b 398 845 401 863 398 854 b 406 821 398 835 401 827 b 427 813 412 816 419 813 b 448 821 435 813 443 816 b 456 845 454 827 456 835 z m 518 876 l 505 876 l 505 837 l 505 837 l 478 876 l 466 876 l 466 814 l 479 814 l 479 852 l 507 814 l 518 814 z m 540 814 l 545 827 l 566 827 l 571 814 l 585 814 l 564 876 l 547 876 l 526 814 z m 593 814 l 633 814 l 633 825 l 606 825 l 606 876 l 593 876 z m 237 791 l 237 751 b 225 739 237 743 233 739 b 212 751 216 741 212 744 l 212 791 l 199 791 l 199 750 b 206 734 199 743 201 738 b 225 728 211 730 217 728 b 243 734 233 728 239 730 b 251 750 248 738 251 743 l 251 791 z m 295 772 l 308 772 b 285 791 307 785 298 791 b 268 787 278 791 273 790 b 261 772 264 783 262 779 b 278 755 262 764 267 758 l 285 754 b 296 746 292 753 296 750 b 284 739 295 741 291 739 b 273 748 277 739 274 742 l 260 748 b 267 733 260 741 262 736 b 285 728 271 730 277 728 b 309 746 300 728 308 734 b 290 764 308 756 302 762 l 284 766 b 275 773 278 767 275 769 b 285 781 275 778 278 781 b 295 772 291 781 294 778 z m 318 728 l 359 728 l 359 739 l 331 739 l 331 754 l 357 754 l 357 765 l 331 765 l 331 780 l 359 780 l 359 791 l 318 791 z m 447 760 b 438 783 447 770 444 778 b 418 791 433 789 426 791 b 397 783 410 791 403 789 b 389 760 391 778 389 770 b 397 736 389 749 391 742 b 418 728 403 730 410 728 b 438 736 426 728 433 730 b 447 760 444 742 447 749 z m 509 791 l 496 791 l 496 751 l 495 751 l 468 791 l 456 791 l 456 728 l 469 728 l 469 768 l 470 768 l 497 728 l 509 728 z m 519 728 l 559 728 l 559 739 l 532 739 l 532 791 l 519 791 z m 556 791 l 579 751 l 579 728 l 592 728 l 592 751 l 614 791 l 600 791 l 586 764 l 585 764 l 571 791 z m 167 -81 l 199 -81 l 199 -73 l 177 -73 l 177 -61 l 197 -61 l 197 -53 l 177 -53 l 177 -42 l 199 -42 l 199 -34 l 167 -34 z m 246 -34 l 236 -34 l 236 -63 l 235 -63 l 215 -34 l 207 -34 l 207 -81 l 216 -81 l 216 -51 l 217 -51 l 237 -81 l 246 -81 z m 263 -34 l 252 -34 l 267 -57 l 252 -81 l 263 -81 l 273 -64 l 283 -81 l 294 -81 l 279 -57 l 294 -34 l 283 -34 l 273 -50 z m 298 -34 l 315 -64 l 315 -81 l 325 -81 l 325 -64 l 342 -34 l 331 -34 l 320 -54 l 309 -34 z m 386 -50 b 380 -37 385 -45 383 -41 b 366 -33 376 -35 371 -33 b 350 -39 359 -33 354 -35 b 344 -57 346 -43 344 -50 b 350 -75 344 -65 346 -71 b 366 -81 354 -79 359 -81 b 380 -77 372 -81 376 -80 b 386 -64 383 -73 385 -69 l 376 -64 b 366 -73 374 -70 371 -73 b 353 -57 357 -73 353 -67 b 366 -42 355 -47 359 -42 b 376 -50 371 -42 374 -45 z m 393 -81 l 423 -81 l 423 -73 l 404 -73 l 404 -34 l 393 -34 z m 471 -57 b 465 -39 471 -50 469 -43 b 449 -33 460 -35 456 -33 b 433 -39 443 -33 437 -35 b 427 -57 429 -43 427 -50 b 433 -75 427 -65 429 -71 b 449 -81 437 -79 443 -81 b 465 -75 456 -81 460 -79 b 471 -57 469 -71 471 -65 z m 481 -81 b 487 -76 484 -81 486 -79 b 481 -71 486 -73 484 -71 b 475 -76 478 -71 476 -73 b 481 -81 476 -79 478 -81 z m 536 -50 b 530 -37 536 -45 534 -41 b 516 -33 526 -35 522 -33 b 500 -39 510 -33 505 -35 b 494 -57 496 -43 494 -50 b 500 -75 494 -65 496 -71 b 516 -81 505 -79 510 -81 b 530 -77 522 -81 527 -80 b 536 -64 534 -73 536 -69 l 526 -64 b 516 -73 525 -70 522 -73 b 505 -57 508 -73 505 -67 b 516 -42 505 -47 509 -42 b 526 -50 522 -42 525 -45 z m 587 -57 b 581 -39 587 -50 585 -43 b 565 -33 576 -35 571 -33 b 549 -39 559 -33 553 -35 b 543 -57 545 -43 543 -50 b 549 -75 543 -65 545 -71 b 565 -81 553 -79 559 -81 b 581 -75 571 -81 576 -79 b 587 -57 585 -71 587 -65 z "},"C":{"ha":812,"x_min":0,"x_max":0,"o":"m 539 469 b 589 501 554 483 570 494 b 492 563 555 536 522 557 b 422 572 460 569 437 572 b 332 554 392 572 361 566 b 381 510 350 541 367 526 b 424 514 396 513 410 514 b 539 469 466 514 505 499 z m 306 249 b 338 342 328 277 338 308 b 306 433 338 375 328 406 b 279 382 292 416 283 398 b 274 341 276 366 274 352 b 278 309 274 330 275 319 b 306 249 283 288 292 267 z m 443 373 b 445 341 444 363 445 352 b 443 309 445 331 444 320 b 527 341 474 311 502 322 b 443 373 502 361 474 371 z m 289 231 b 256 292 271 252 260 273 b 250 341 252 312 250 328 b 254 380 250 354 251 368 b 289 452 260 406 271 430 b 239 481 274 465 258 475 b 192 342 208 439 192 392 b 239 201 192 291 208 244 b 266 214 248 204 257 209 b 289 231 274 219 281 224 z m 589 181 b 539 213 570 189 554 199 b 424 168 505 183 466 168 b 381 173 410 168 396 170 b 356 147 374 163 365 155 b 332 129 348 140 340 134 b 422 111 361 117 392 111 b 469 115 437 111 453 112 b 589 181 515 125 555 146 z m 577 -57 b 565 -73 576 -68 572 -73 b 553 -57 557 -73 553 -67 b 565 -42 554 -47 558 -42 b 577 -57 573 -42 577 -47 z m 193 844 l 193 865 l 202 865 b 213 854 210 864 213 861 b 202 844 213 848 210 844 z m 300 846 l 300 865 l 309 865 b 321 856 317 865 321 861 b 309 846 321 849 317 846 z m 443 845 b 427 825 442 831 437 825 b 412 845 417 825 412 831 b 427 865 412 858 418 865 b 443 845 438 865 443 858 z m 548 838 l 555 862 l 564 838 z m 433 760 b 418 739 433 746 427 739 b 401 760 407 739 401 746 b 418 780 403 773 408 780 b 433 760 429 779 433 772 z m 625 196 b 628 191 627 195 628 193 l 628 189 b 627 188 628 189 627 188 b 508 98 587 137 547 107 b 422 85 469 90 440 85 b 300 117 380 85 340 96 l 288 123 b 286 127 287 124 286 126 b 286 130 286 128 286 129 l 288 132 b 386 224 332 157 365 188 b 418 340 408 261 418 300 l 418 342 b 385 458 418 383 407 422 b 288 551 363 496 331 526 b 286 555 287 552 286 553 b 286 557 286 555 286 557 l 288 559 b 427 596 334 584 380 596 b 471 593 442 596 457 595 b 628 494 533 582 585 549 b 629 490 629 493 629 492 b 624 486 629 488 627 487 b 579 469 608 484 594 477 b 543 439 565 460 553 450 b 538 437 541 437 540 437 b 535 438 538 437 536 437 b 479 479 515 458 496 471 b 425 490 461 486 444 490 b 399 488 417 490 408 490 b 439 398 418 460 431 431 b 559 345 486 397 526 378 b 561 342 560 344 561 342 b 559 338 561 340 560 339 b 439 285 526 304 486 286 b 399 195 431 252 418 222 b 422 193 407 193 415 193 b 536 245 467 193 505 210 b 540 247 537 246 538 247 l 541 247 b 545 245 543 246 544 245 b 625 196 569 218 595 202 z m 228 176 b 167 342 187 227 167 282 b 229 507 167 401 187 456 b 232 509 229 509 231 509 b 234 509 233 509 233 509 b 337 433 281 494 316 469 b 363 344 354 406 363 376 l 363 342 b 336 250 362 309 353 279 b 233 174 315 214 280 189 l 232 174 b 228 176 231 174 229 174 z m 461 -57 b 449 -73 460 -68 456 -73 b 437 -57 441 -73 437 -67 b 449 -42 438 -47 442 -42 b 461 -57 457 -42 461 -47 z m 129 679 b 85 661 112 679 98 673 b 68 618 74 650 68 635 l 68 64 b 85 20 68 47 74 32 b 129 3 98 9 112 3 l 684 3 b 726 20 701 3 715 9 b 745 64 739 32 745 47 l 745 618 b 726 661 745 635 739 650 b 684 679 715 673 701 679 z m 595 -34 l 595 -81 l 604 -81 l 604 -50 l 604 -50 l 616 -81 l 623 -81 l 635 -50 l 635 -81 l 646 -81 l 646 -34 l 633 -34 l 620 -66 l 619 -66 l 607 -34 z m 180 814 l 193 814 l 193 834 l 204 834 b 220 840 211 834 216 836 b 227 854 224 844 227 848 b 204 876 226 869 218 876 l 180 876 z m 235 814 l 277 814 l 277 825 l 248 825 l 248 840 l 275 840 l 275 850 l 248 850 l 248 865 l 277 865 l 277 876 l 235 876 z m 288 814 l 300 814 l 300 836 l 310 836 l 321 814 l 336 814 l 323 838 b 334 856 330 841 334 847 b 312 876 333 869 326 876 l 288 876 z m 377 858 l 390 858 b 367 877 388 870 380 877 b 350 871 360 877 354 875 b 343 858 345 868 343 863 b 360 841 343 849 349 843 l 367 840 b 378 831 374 838 377 835 b 366 824 377 826 373 824 b 354 833 359 824 355 827 l 341 833 b 349 818 342 826 344 821 b 367 813 353 814 359 813 b 391 831 382 813 389 819 b 372 850 390 842 384 848 l 366 851 b 357 859 360 852 357 854 b 367 866 357 863 360 866 b 377 858 373 866 376 863 z m 456 845 b 448 868 456 854 454 863 b 427 877 443 873 435 877 b 406 868 419 877 412 873 b 398 845 401 863 398 854 b 406 821 398 835 401 827 b 427 813 412 816 419 813 b 448 821 435 813 443 816 b 456 845 454 827 456 835 z m 518 876 l 505 876 l 505 837 l 505 837 l 478 876 l 466 876 l 466 814 l 479 814 l 479 852 l 507 814 l 518 814 z m 540 814 l 545 827 l 566 827 l 571 814 l 585 814 l 564 876 l 547 876 l 526 814 z m 593 814 l 633 814 l 633 825 l 606 825 l 606 876 l 593 876 z m 237 791 l 237 751 b 225 739 237 743 233 739 b 212 751 216 741 212 744 l 212 791 l 199 791 l 199 750 b 206 734 199 743 201 738 b 225 728 211 730 217 728 b 243 734 233 728 239 730 b 251 750 248 738 251 743 l 251 791 z m 295 772 l 308 772 b 285 791 307 785 298 791 b 268 787 278 791 273 790 b 261 772 264 783 262 779 b 278 755 262 764 267 758 l 285 754 b 296 746 292 753 296 750 b 284 739 295 741 291 739 b 273 748 277 739 274 742 l 260 748 b 267 733 260 741 262 736 b 285 728 271 730 277 728 b 309 746 300 728 308 734 b 290 764 308 756 302 762 l 284 766 b 275 773 278 767 275 769 b 285 781 275 778 278 781 b 295 772 291 781 294 778 z m 318 728 l 359 728 l 359 739 l 331 739 l 331 754 l 357 754 l 357 765 l 331 765 l 331 780 l 359 780 l 359 791 l 318 791 z m 447 760 b 438 783 447 770 444 778 b 418 791 433 789 426 791 b 397 783 410 791 403 789 b 389 760 391 778 389 770 b 397 736 389 749 391 742 b 418 728 403 730 410 728 b 438 736 426 728 433 730 b 447 760 444 742 447 749 z m 509 791 l 496 791 l 496 751 l 495 751 l 468 791 l 456 791 l 456 728 l 469 728 l 469 768 l 470 768 l 497 728 l 509 728 z m 519 728 l 559 728 l 559 739 l 532 739 l 532 791 l 519 791 z m 556 791 l 579 751 l 579 728 l 592 728 l 592 751 l 614 791 l 600 791 l 586 764 l 585 764 l 571 791 z m 167 -81 l 199 -81 l 199 -73 l 177 -73 l 177 -61 l 197 -61 l 197 -53 l 177 -53 l 177 -42 l 199 -42 l 199 -34 l 167 -34 z m 246 -34 l 236 -34 l 236 -63 l 235 -63 l 215 -34 l 207 -34 l 207 -81 l 216 -81 l 216 -51 l 217 -51 l 237 -81 l 246 -81 z m 263 -34 l 252 -34 l 267 -57 l 252 -81 l 263 -81 l 273 -64 l 283 -81 l 294 -81 l 279 -57 l 294 -34 l 283 -34 l 273 -50 z m 298 -34 l 315 -64 l 315 -81 l 325 -81 l 325 -64 l 342 -34 l 331 -34 l 320 -54 l 309 -34 z m 386 -50 b 380 -37 385 -45 383 -41 b 366 -33 376 -35 371 -33 b 350 -39 359 -33 354 -35 b 344 -57 346 -43 344 -50 b 350 -75 344 -65 346 -71 b 366 -81 354 -79 359 -81 b 380 -77 372 -81 376 -80 b 386 -64 383 -73 385 -69 l 376 -64 b 366 -73 374 -70 371 -73 b 353 -57 357 -73 353 -67 b 366 -42 355 -47 359 -42 b 376 -50 371 -42 374 -45 z m 393 -81 l 423 -81 l 423 -73 l 404 -73 l 404 -34 l 393 -34 z m 471 -57 b 465 -39 471 -50 469 -43 b 449 -33 460 -35 456 -33 b 433 -39 443 -33 437 -35 b 427 -57 429 -43 427 -50 b 433 -75 427 -65 429 -71 b 449 -81 437 -79 443 -81 b 465 -75 456 -81 460 -79 b 471 -57 469 -71 471 -65 z m 481 -81 b 487 -76 484 -81 486 -79 b 481 -71 486 -73 484 -71 b 475 -76 478 -71 476 -73 b 481 -81 476 -79 478 -81 z m 536 -50 b 530 -37 536 -45 534 -41 b 516 -33 526 -35 522 -33 b 500 -39 510 -33 505 -35 b 494 -57 496 -43 494 -50 b 500 -75 494 -65 496 -71 b 516 -81 505 -79 510 -81 b 530 -77 522 -81 527 -80 b 536 -64 534 -73 536 -69 l 526 -64 b 516 -73 525 -70 522 -73 b 505 -57 508 -73 505 -67 b 516 -42 505 -47 509 -42 b 526 -50 522 -42 525 -45 z m 587 -57 b 581 -39 587 -50 585 -43 b 565 -33 576 -35 571 -33 b 549 -39 559 -33 553 -35 b 543 -57 545 -43 543 -50 b 549 -75 543 -65 545 -71 b 565 -81 553 -79 559 -81 b 581 -75 571 -81 576 -79 b 587 -57 585 -71 587 -65 z "},"D":{"ha":812,"x_min":0,"x_max":0,"o":"m 539 469 b 589 501 554 483 570 494 b 492 563 555 536 522 557 b 422 572 460 569 437 572 b 332 554 392 572 361 566 b 381 510 350 541 367 526 b 424 514 396 513 410 514 b 539 469 466 514 505 499 z m 306 249 b 338 342 328 277 338 308 b 306 433 338 375 328 406 b 279 382 292 416 283 398 b 274 341 276 366 274 352 b 278 309 274 330 275 319 b 306 249 283 288 292 267 z m 443 373 b 445 341 444 363 445 352 b 443 309 445 331 444 320 b 527 341 474 311 502 322 b 443 373 502 361 474 371 z m 289 231 b 256 292 271 252 260 273 b 250 341 252 312 250 328 b 254 380 250 354 251 368 b 289 452 260 406 271 430 b 239 481 274 465 258 475 b 192 342 208 439 192 392 b 239 201 192 291 208 244 b 266 214 248 204 257 209 b 289 231 274 219 281 224 z m 589 181 b 539 213 570 189 554 199 b 424 168 505 183 466 168 b 381 173 410 168 396 170 b 356 147 374 163 365 155 b 332 129 348 140 340 134 b 422 111 361 117 392 111 b 469 115 437 111 453 112 b 589 181 515 125 555 146 z m 577 -57 b 565 -73 576 -68 572 -73 b 553 -57 557 -73 553 -67 b 565 -42 554 -47 558 -42 b 577 -57 573 -42 577 -47 z m 193 844 l 193 865 l 202 865 b 213 854 210 864 213 861 b 202 844 213 848 210 844 z m 300 846 l 300 865 l 309 865 b 321 856 317 865 321 861 b 309 846 321 849 317 846 z m 443 845 b 427 825 442 831 437 825 b 412 845 417 825 412 831 b 427 865 412 858 418 865 b 443 845 438 865 443 858 z m 548 838 l 555 862 l 564 838 z m 433 760 b 418 739 433 746 427 739 b 401 760 407 739 401 746 b 418 780 403 773 408 780 b 433 760 429 779 433 772 z m 625 196 b 628 191 627 195 628 193 l 628 189 b 627 188 628 189 627 188 b 508 98 587 137 547 107 b 422 85 469 90 440 85 b 300 117 380 85 340 96 l 288 123 b 286 127 287 124 286 126 b 286 130 286 128 286 129 l 288 132 b 386 224 332 157 365 188 b 418 340 408 261 418 300 l 418 342 b 385 458 418 383 407 422 b 288 551 363 496 331 526 b 286 555 287 552 286 553 b 286 557 286 555 286 557 l 288 559 b 427 596 334 584 380 596 b 471 593 442 596 457 595 b 628 494 533 582 585 549 b 629 490 629 493 629 492 b 624 486 629 488 627 487 b 579 469 608 484 594 477 b 543 439 565 460 553 450 b 538 437 541 437 540 437 b 535 438 538 437 536 437 b 479 479 515 458 496 471 b 425 490 461 486 444 490 b 399 488 417 490 408 490 b 439 398 418 460 431 431 b 559 345 486 397 526 378 b 561 342 560 344 561 342 b 559 338 561 340 560 339 b 439 285 526 304 486 286 b 399 195 431 252 418 222 b 422 193 407 193 415 193 b 536 245 467 193 505 210 b 540 247 537 246 538 247 l 541 247 b 545 245 543 246 544 245 b 625 196 569 218 595 202 z m 228 176 b 167 342 187 227 167 282 b 229 507 167 401 187 456 b 232 509 229 509 231 509 b 234 509 233 509 233 509 b 337 433 281 494 316 469 b 363 344 354 406 363 376 l 363 342 b 336 250 362 309 353 279 b 233 174 315 214 280 189 l 232 174 b 228 176 231 174 229 174 z m 461 -57 b 449 -73 460 -68 456 -73 b 437 -57 441 -73 437 -67 b 449 -42 438 -47 442 -42 b 461 -57 457 -42 461 -47 z m 129 679 b 85 661 112 679 98 673 b 68 618 74 650 68 635 l 68 64 b 85 20 68 47 74 32 b 129 3 98 9 112 3 l 684 3 b 726 20 701 3 715 9 b 745 64 739 32 745 47 l 745 618 b 726 661 745 635 739 650 b 684 679 715 673 701 679 z m 595 -34 l 595 -81 l 604 -81 l 604 -50 l 604 -50 l 616 -81 l 623 -81 l 635 -50 l 635 -81 l 646 -81 l 646 -34 l 633 -34 l 620 -66 l 619 -66 l 607 -34 z m 180 814 l 193 814 l 193 834 l 204 834 b 220 840 211 834 216 836 b 227 854 224 844 227 848 b 204 876 226 869 218 876 l 180 876 z m 235 814 l 277 814 l 277 825 l 248 825 l 248 840 l 275 840 l 275 850 l 248 850 l 248 865 l 277 865 l 277 876 l 235 876 z m 288 814 l 300 814 l 300 836 l 310 836 l 321 814 l 336 814 l 323 838 b 334 856 330 841 334 847 b 312 876 333 869 326 876 l 288 876 z m 377 858 l 390 858 b 367 877 388 870 380 877 b 350 871 360 877 354 875 b 343 858 345 868 343 863 b 360 841 343 849 349 843 l 367 840 b 378 831 374 838 377 835 b 366 824 377 826 373 824 b 354 833 359 824 355 827 l 341 833 b 349 818 342 826 344 821 b 367 813 353 814 359 813 b 391 831 382 813 389 819 b 372 850 390 842 384 848 l 366 851 b 357 859 360 852 357 854 b 367 866 357 863 360 866 b 377 858 373 866 376 863 z m 456 845 b 448 868 456 854 454 863 b 427 877 443 873 435 877 b 406 868 419 877 412 873 b 398 845 401 863 398 854 b 406 821 398 835 401 827 b 427 813 412 816 419 813 b 448 821 435 813 443 816 b 456 845 454 827 456 835 z m 518 876 l 505 876 l 505 837 l 505 837 l 478 876 l 466 876 l 466 814 l 479 814 l 479 852 l 507 814 l 518 814 z m 540 814 l 545 827 l 566 827 l 571 814 l 585 814 l 564 876 l 547 876 l 526 814 z m 593 814 l 633 814 l 633 825 l 606 825 l 606 876 l 593 876 z m 237 791 l 237 751 b 225 739 237 743 233 739 b 212 751 216 741 212 744 l 212 791 l 199 791 l 199 750 b 206 734 199 743 201 738 b 225 728 211 730 217 728 b 243 734 233 728 239 730 b 251 750 248 738 251 743 l 251 791 z m 295 772 l 308 772 b 285 791 307 785 298 791 b 268 787 278 791 273 790 b 261 772 264 783 262 779 b 278 755 262 764 267 758 l 285 754 b 296 746 292 753 296 750 b 284 739 295 741 291 739 b 273 748 277 739 274 742 l 260 748 b 267 733 260 741 262 736 b 285 728 271 730 277 728 b 309 746 300 728 308 734 b 290 764 308 756 302 762 l 284 766 b 275 773 278 767 275 769 b 285 781 275 778 278 781 b 295 772 291 781 294 778 z m 318 728 l 359 728 l 359 739 l 331 739 l 331 754 l 357 754 l 357 765 l 331 765 l 331 780 l 359 780 l 359 791 l 318 791 z m 447 760 b 438 783 447 770 444 778 b 418 791 433 789 426 791 b 397 783 410 791 403 789 b 389 760 391 778 389 770 b 397 736 389 749 391 742 b 418 728 403 730 410 728 b 438 736 426 728 433 730 b 447 760 444 742 447 749 z m 509 791 l 496 791 l 496 751 l 495 751 l 468 791 l 456 791 l 456 728 l 469 728 l 469 768 l 470 768 l 497 728 l 509 728 z m 519 728 l 559 728 l 559 739 l 532 739 l 532 791 l 519 791 z m 556 791 l 579 751 l 579 728 l 592 728 l 592 751 l 614 791 l 600 791 l 586 764 l 585 764 l 571 791 z m 167 -81 l 199 -81 l 199 -73 l 177 -73 l 177 -61 l 197 -61 l 197 -53 l 177 -53 l 177 -42 l 199 -42 l 199 -34 l 167 -34 z m 246 -34 l 236 -34 l 236 -63 l 235 -63 l 215 -34 l 207 -34 l 207 -81 l 216 -81 l 216 -51 l 217 -51 l 237 -81 l 246 -81 z m 263 -34 l 252 -34 l 267 -57 l 252 -81 l 263 -81 l 273 -64 l 283 -81 l 294 -81 l 279 -57 l 294 -34 l 283 -34 l 273 -50 z m 298 -34 l 315 -64 l 315 -81 l 325 -81 l 325 -64 l 342 -34 l 331 -34 l 320 -54 l 309 -34 z m 386 -50 b 380 -37 385 -45 383 -41 b 366 -33 376 -35 371 -33 b 350 -39 359 -33 354 -35 b 344 -57 346 -43 344 -50 b 350 -75 344 -65 346 -71 b 366 -81 354 -79 359 -81 b 380 -77 372 -81 376 -80 b 386 -64 383 -73 385 -69 l 376 -64 b 366 -73 374 -70 371 -73 b 353 -57 357 -73 353 -67 b 366 -42 355 -47 359 -42 b 376 -50 371 -42 374 -45 z m 393 -81 l 423 -81 l 423 -73 l 404 -73 l 404 -34 l 393 -34 z m 471 -57 b 465 -39 471 -50 469 -43 b 449 -33 460 -35 456 -33 b 433 -39 443 -33 437 -35 b 427 -57 429 -43 427 -50 b 433 -75 427 -65 429 -71 b 449 -81 437 -79 443 -81 b 465 -75 456 -81 460 -79 b 471 -57 469 -71 471 -65 z m 481 -81 b 487 -76 484 -81 486 -79 b 481 -71 486 -73 484 -71 b 475 -76 478 -71 476 -73 b 481 -81 476 -79 478 -81 z m 536 -50 b 530 -37 536 -45 534 -41 b 516 -33 526 -35 522 -33 b 500 -39 510 -33 505 -35 b 494 -57 496 -43 494 -50 b 500 -75 494 -65 496 -71 b 516 -81 505 -79 510 -81 b 530 -77 522 -81 527 -80 b 536 -64 534 -73 536 -69 l 526 -64 b 516 -73 525 -70 522 -73 b 505 -57 508 -73 505 -67 b 516 -42 505 -47 509 -42 b 526 -50 522 -42 525 -45 z m 587 -57 b 581 -39 587 -50 585 -43 b 565 -33 576 -35 571 -33 b 549 -39 559 -33 553 -35 b 543 -57 545 -43 543 -50 b 549 -75 543 -65 545 -71 b 565 -81 553 -79 559 -81 b 581 -75 571 -81 576 -79 b 587 -57 585 -71 587 -65 z "},"E":{"ha":812,"x_min":0,"x_max":0,"o":"m 539 469 b 589 501 554 483 570 494 b 492 563 555 536 522 557 b 422 572 460 569 437 572 b 332 554 392 572 361 566 b 381 510 350 541 367 526 b 424 514 396 513 410 514 b 539 469 466 514 505 499 z m 306 249 b 338 342 328 277 338 308 b 306 433 338 375 328 406 b 279 382 292 416 283 398 b 274 341 276 366 274 352 b 278 309 274 330 275 319 b 306 249 283 288 292 267 z m 443 373 b 445 341 444 363 445 352 b 443 309 445 331 444 320 b 527 341 474 311 502 322 b 443 373 502 361 474 371 z m 289 231 b 256 292 271 252 260 273 b 250 341 252 312 250 328 b 254 380 250 354 251 368 b 289 452 260 406 271 430 b 239 481 274 465 258 475 b 192 342 208 439 192 392 b 239 201 192 291 208 244 b 266 214 248 204 257 209 b 289 231 274 219 281 224 z m 589 181 b 539 213 570 189 554 199 b 424 168 505 183 466 168 b 381 173 410 168 396 170 b 356 147 374 163 365 155 b 332 129 348 140 340 134 b 422 111 361 117 392 111 b 469 115 437 111 453 112 b 589 181 515 125 555 146 z m 577 -57 b 565 -73 576 -68 572 -73 b 553 -57 557 -73 553 -67 b 565 -42 554 -47 558 -42 b 577 -57 573 -42 577 -47 z m 193 844 l 193 865 l 202 865 b 213 854 210 864 213 861 b 202 844 213 848 210 844 z m 300 846 l 300 865 l 309 865 b 321 856 317 865 321 861 b 309 846 321 849 317 846 z m 443 845 b 427 825 442 831 437 825 b 412 845 417 825 412 831 b 427 865 412 858 418 865 b 443 845 438 865 443 858 z m 548 838 l 555 862 l 564 838 z m 433 760 b 418 739 433 746 427 739 b 401 760 407 739 401 746 b 418 780 403 773 408 780 b 433 760 429 779 433 772 z m 625 196 b 628 191 627 195 628 193 l 628 189 b 627 188 628 189 627 188 b 508 98 587 137 547 107 b 422 85 469 90 440 85 b 300 117 380 85 340 96 l 288 123 b 286 127 287 124 286 126 b 286 130 286 128 286 129 l 288 132 b 386 224 332 157 365 188 b 418 340 408 261 418 300 l 418 342 b 385 458 418 383 407 422 b 288 551 363 496 331 526 b 286 555 287 552 286 553 b 286 557 286 555 286 557 l 288 559 b 427 596 334 584 380 596 b 471 593 442 596 457 595 b 628 494 533 582 585 549 b 629 490 629 493 629 492 b 624 486 629 488 627 487 b 579 469 608 484 594 477 b 543 439 565 460 553 450 b 538 437 541 437 540 437 b 535 438 538 437 536 437 b 479 479 515 458 496 471 b 425 490 461 486 444 490 b 399 488 417 490 408 490 b 439 398 418 460 431 431 b 559 345 486 397 526 378 b 561 342 560 344 561 342 b 559 338 561 340 560 339 b 439 285 526 304 486 286 b 399 195 431 252 418 222 b 422 193 407 193 415 193 b 536 245 467 193 505 210 b 540 247 537 246 538 247 l 541 247 b 545 245 543 246 544 245 b 625 196 569 218 595 202 z m 228 176 b 167 342 187 227 167 282 b 229 507 167 401 187 456 b 232 509 229 509 231 509 b 234 509 233 509 233 509 b 337 433 281 494 316 469 b 363 344 354 406 363 376 l 363 342 b 336 250 362 309 353 279 b 233 174 315 214 280 189 l 232 174 b 228 176 231 174 229 174 z m 461 -57 b 449 -73 460 -68 456 -73 b 437 -57 441 -73 437 -67 b 449 -42 438 -47 442 -42 b 461 -57 457 -42 461 -47 z m 129 679 b 85 661 112 679 98 673 b 68 618 74 650 68 635 l 68 64 b 85 20 68 47 74 32 b 129 3 98 9 112 3 l 684 3 b 726 20 701 3 715 9 b 745 64 739 32 745 47 l 745 618 b 726 661 745 635 739 650 b 684 679 715 673 701 679 z m 595 -34 l 595 -81 l 604 -81 l 604 -50 l 604 -50 l 616 -81 l 623 -81 l 635 -50 l 635 -81 l 646 -81 l 646 -34 l 633 -34 l 620 -66 l 619 -66 l 607 -34 z m 180 814 l 193 814 l 193 834 l 204 834 b 220 840 211 834 216 836 b 227 854 224 844 227 848 b 204 876 226 869 218 876 l 180 876 z m 235 814 l 277 814 l 277 825 l 248 825 l 248 840 l 275 840 l 275 850 l 248 850 l 248 865 l 277 865 l 277 876 l 235 876 z m 288 814 l 300 814 l 300 836 l 310 836 l 321 814 l 336 814 l 323 838 b 334 856 330 841 334 847 b 312 876 333 869 326 876 l 288 876 z m 377 858 l 390 858 b 367 877 388 870 380 877 b 350 871 360 877 354 875 b 343 858 345 868 343 863 b 360 841 343 849 349 843 l 367 840 b 378 831 374 838 377 835 b 366 824 377 826 373 824 b 354 833 359 824 355 827 l 341 833 b 349 818 342 826 344 821 b 367 813 353 814 359 813 b 391 831 382 813 389 819 b 372 850 390 842 384 848 l 366 851 b 357 859 360 852 357 854 b 367 866 357 863 360 866 b 377 858 373 866 376 863 z m 456 845 b 448 868 456 854 454 863 b 427 877 443 873 435 877 b 406 868 419 877 412 873 b 398 845 401 863 398 854 b 406 821 398 835 401 827 b 427 813 412 816 419 813 b 448 821 435 813 443 816 b 456 845 454 827 456 835 z m 518 876 l 505 876 l 505 837 l 505 837 l 478 876 l 466 876 l 466 814 l 479 814 l 479 852 l 507 814 l 518 814 z m 540 814 l 545 827 l 566 827 l 571 814 l 585 814 l 564 876 l 547 876 l 526 814 z m 593 814 l 633 814 l 633 825 l 606 825 l 606 876 l 593 876 z m 237 791 l 237 751 b 225 739 237 743 233 739 b 212 751 216 741 212 744 l 212 791 l 199 791 l 199 750 b 206 734 199 743 201 738 b 225 728 211 730 217 728 b 243 734 233 728 239 730 b 251 750 248 738 251 743 l 251 791 z m 295 772 l 308 772 b 285 791 307 785 298 791 b 268 787 278 791 273 790 b 261 772 264 783 262 779 b 278 755 262 764 267 758 l 285 754 b 296 746 292 753 296 750 b 284 739 295 741 291 739 b 273 748 277 739 274 742 l 260 748 b 267 733 260 741 262 736 b 285 728 271 730 277 728 b 309 746 300 728 308 734 b 290 764 308 756 302 762 l 284 766 b 275 773 278 767 275 769 b 285 781 275 778 278 781 b 295 772 291 781 294 778 z m 318 728 l 359 728 l 359 739 l 331 739 l 331 754 l 357 754 l 357 765 l 331 765 l 331 780 l 359 780 l 359 791 l 318 791 z m 447 760 b 438 783 447 770 444 778 b 418 791 433 789 426 791 b 397 783 410 791 403 789 b 389 760 391 778 389 770 b 397 736 389 749 391 742 b 418 728 403 730 410 728 b 438 736 426 728 433 730 b 447 760 444 742 447 749 z m 509 791 l 496 791 l 496 751 l 495 751 l 468 791 l 456 791 l 456 728 l 469 728 l 469 768 l 470 768 l 497 728 l 509 728 z m 519 728 l 559 728 l 559 739 l 532 739 l 532 791 l 519 791 z m 556 791 l 579 751 l 579 728 l 592 728 l 592 751 l 614 791 l 600 791 l 586 764 l 585 764 l 571 791 z m 167 -81 l 199 -81 l 199 -73 l 177 -73 l 177 -61 l 197 -61 l 197 -53 l 177 -53 l 177 -42 l 199 -42 l 199 -34 l 167 -34 z m 246 -34 l 236 -34 l 236 -63 l 235 -63 l 215 -34 l 207 -34 l 207 -81 l 216 -81 l 216 -51 l 217 -51 l 237 -81 l 246 -81 z m 263 -34 l 252 -34 l 267 -57 l 252 -81 l 263 -81 l 273 -64 l 283 -81 l 294 -81 l 279 -57 l 294 -34 l 283 -34 l 273 -50 z m 298 -34 l 315 -64 l 315 -81 l 325 -81 l 325 -64 l 342 -34 l 331 -34 l 320 -54 l 309 -34 z m 386 -50 b 380 -37 385 -45 383 -41 b 366 -33 376 -35 371 -33 b 350 -39 359 -33 354 -35 b 344 -57 346 -43 344 -50 b 350 -75 344 -65 346 -71 b 366 -81 354 -79 359 -81 b 380 -77 372 -81 376 -80 b 386 -64 383 -73 385 -69 l 376 -64 b 366 -73 374 -70 371 -73 b 353 -57 357 -73 353 -67 b 366 -42 355 -47 359 -42 b 376 -50 371 -42 374 -45 z m 393 -81 l 423 -81 l 423 -73 l 404 -73 l 404 -34 l 393 -34 z m 471 -57 b 465 -39 471 -50 469 -43 b 449 -33 460 -35 456 -33 b 433 -39 443 -33 437 -35 b 427 -57 429 -43 427 -50 b 433 -75 427 -65 429 -71 b 449 -81 437 -79 443 -81 b 465 -75 456 -81 460 -79 b 471 -57 469 -71 471 -65 z m 481 -81 b 487 -76 484 -81 486 -79 b 481 -71 486 -73 484 -71 b 475 -76 478 -71 476 -73 b 481 -81 476 -79 478 -81 z m 536 -50 b 530 -37 536 -45 534 -41 b 516 -33 526 -35 522 -33 b 500 -39 510 -33 505 -35 b 494 -57 496 -43 494 -50 b 500 -75 494 -65 496 -71 b 516 -81 505 -79 510 -81 b 530 -77 522 -81 527 -80 b 536 -64 534 -73 536 -69 l 526 -64 b 516 -73 525 -70 522 -73 b 505 -57 508 -73 505 -67 b 516 -42 505 -47 509 -42 b 526 -50 522 -42 525 -45 z m 587 -57 b 581 -39 587 -50 585 -43 b 565 -33 576 -35 571 -33 b 549 -39 559 -33 553 -35 b 543 -57 545 -43 543 -50 b 549 -75 543 -65 545 -71 b 565 -81 553 -79 559 -81 b 581 -75 571 -81 576 -79 b 587 -57 585 -71 587 -65 z "},"F":{"ha":812,"x_min":0,"x_max":0,"o":"m 539 469 b 589 501 554 483 570 494 b 492 563 555 536 522 557 b 422 572 460 569 437 572 b 332 554 392 572 361 566 b 381 510 350 541 367 526 b 424 514 396 513 410 514 b 539 469 466 514 505 499 z m 306 249 b 338 342 328 277 338 308 b 306 433 338 375 328 406 b 279 382 292 416 283 398 b 274 341 276 366 274 352 b 278 309 274 330 275 319 b 306 249 283 288 292 267 z m 443 373 b 445 341 444 363 445 352 b 443 309 445 331 444 320 b 527 341 474 311 502 322 b 443 373 502 361 474 371 z m 289 231 b 256 292 271 252 260 273 b 250 341 252 312 250 328 b 254 380 250 354 251 368 b 289 452 260 406 271 430 b 239 481 274 465 258 475 b 192 342 208 439 192 392 b 239 201 192 291 208 244 b 266 214 248 204 257 209 b 289 231 274 219 281 224 z m 589 181 b 539 213 570 189 554 199 b 424 168 505 183 466 168 b 381 173 410 168 396 170 b 356 147 374 163 365 155 b 332 129 348 140 340 134 b 422 111 361 117 392 111 b 469 115 437 111 453 112 b 589 181 515 125 555 146 z m 577 -57 b 565 -73 576 -68 572 -73 b 553 -57 557 -73 553 -67 b 565 -42 554 -47 558 -42 b 577 -57 573 -42 577 -47 z m 193 844 l 193 865 l 202 865 b 213 854 210 864 213 861 b 202 844 213 848 210 844 z m 300 846 l 300 865 l 309 865 b 321 856 317 865 321 861 b 309 846 321 849 317 846 z m 443 845 b 427 825 442 831 437 825 b 412 845 417 825 412 831 b 427 865 412 858 418 865 b 443 845 438 865 443 858 z m 548 838 l 555 862 l 564 838 z m 433 760 b 418 739 433 746 427 739 b 401 760 407 739 401 746 b 418 780 403 773 408 780 b 433 760 429 779 433 772 z m 625 196 b 628 191 627 195 628 193 l 628 189 b 627 188 628 189 627 188 b 508 98 587 137 547 107 b 422 85 469 90 440 85 b 300 117 380 85 340 96 l 288 123 b 286 127 287 124 286 126 b 286 130 286 128 286 129 l 288 132 b 386 224 332 157 365 188 b 418 340 408 261 418 300 l 418 342 b 385 458 418 383 407 422 b 288 551 363 496 331 526 b 286 555 287 552 286 553 b 286 557 286 555 286 557 l 288 559 b 427 596 334 584 380 596 b 471 593 442 596 457 595 b 628 494 533 582 585 549 b 629 490 629 493 629 492 b 624 486 629 488 627 487 b 579 469 608 484 594 477 b 543 439 565 460 553 450 b 538 437 541 437 540 437 b 535 438 538 437 536 437 b 479 479 515 458 496 471 b 425 490 461 486 444 490 b 399 488 417 490 408 490 b 439 398 418 460 431 431 b 559 345 486 397 526 378 b 561 342 560 344 561 342 b 559 338 561 340 560 339 b 439 285 526 304 486 286 b 399 195 431 252 418 222 b 422 193 407 193 415 193 b 536 245 467 193 505 210 b 540 247 537 246 538 247 l 541 247 b 545 245 543 246 544 245 b 625 196 569 218 595 202 z m 228 176 b 167 342 187 227 167 282 b 229 507 167 401 187 456 b 232 509 229 509 231 509 b 234 509 233 509 233 509 b 337 433 281 494 316 469 b 363 344 354 406 363 376 l 363 342 b 336 250 362 309 353 279 b 233 174 315 214 280 189 l 232 174 b 228 176 231 174 229 174 z m 461 -57 b 449 -73 460 -68 456 -73 b 437 -57 441 -73 437 -67 b 449 -42 438 -47 442 -42 b 461 -57 457 -42 461 -47 z m 129 679 b 85 661 112 679 98 673 b 68 618 74 650 68 635 l 68 64 b 85 20 68 47 74 32 b 129 3 98 9 112 3 l 684 3 b 726 20 701 3 715 9 b 745 64 739 32 745 47 l 745 618 b 726 661 745 635 739 650 b 684 679 715 673 701 679 z m 595 -34 l 595 -81 l 604 -81 l 604 -50 l 604 -50 l 616 -81 l 623 -81 l 635 -50 l 635 -81 l 646 -81 l 646 -34 l 633 -34 l 620 -66 l 619 -66 l 607 -34 z m 180 814 l 193 814 l 193 834 l 204 834 b 220 840 211 834 216 836 b 227 854 224 844 227 848 b 204 876 226 869 218 876 l 180 876 z m 235 814 l 277 814 l 277 825 l 248 825 l 248 840 l 275 840 l 275 850 l 248 850 l 248 865 l 277 865 l 277 876 l 235 876 z m 288 814 l 300 814 l 300 836 l 310 836 l 321 814 l 336 814 l 323 838 b 334 856 330 841 334 847 b 312 876 333 869 326 876 l 288 876 z m 377 858 l 390 858 b 367 877 388 870 380 877 b 350 871 360 877 354 875 b 343 858 345 868 343 863 b 360 841 343 849 349 843 l 367 840 b 378 831 374 838 377 835 b 366 824 377 826 373 824 b 354 833 359 824 355 827 l 341 833 b 349 818 342 826 344 821 b 367 813 353 814 359 813 b 391 831 382 813 389 819 b 372 850 390 842 384 848 l 366 851 b 357 859 360 852 357 854 b 367 866 357 863 360 866 b 377 858 373 866 376 863 z m 456 845 b 448 868 456 854 454 863 b 427 877 443 873 435 877 b 406 868 419 877 412 873 b 398 845 401 863 398 854 b 406 821 398 835 401 827 b 427 813 412 816 419 813 b 448 821 435 813 443 816 b 456 845 454 827 456 835 z m 518 876 l 505 876 l 505 837 l 505 837 l 478 876 l 466 876 l 466 814 l 479 814 l 479 852 l 507 814 l 518 814 z m 540 814 l 545 827 l 566 827 l 571 814 l 585 814 l 564 876 l 547 876 l 526 814 z m 593 814 l 633 814 l 633 825 l 606 825 l 606 876 l 593 876 z m 237 791 l 237 751 b 225 739 237 743 233 739 b 212 751 216 741 212 744 l 212 791 l 199 791 l 199 750 b 206 734 199 743 201 738 b 225 728 211 730 217 728 b 243 734 233 728 239 730 b 251 750 248 738 251 743 l 251 791 z m 295 772 l 308 772 b 285 791 307 785 298 791 b 268 787 278 791 273 790 b 261 772 264 783 262 779 b 278 755 262 764 267 758 l 285 754 b 296 746 292 753 296 750 b 284 739 295 741 291 739 b 273 748 277 739 274 742 l 260 748 b 267 733 260 741 262 736 b 285 728 271 730 277 728 b 309 746 300 728 308 734 b 290 764 308 756 302 762 l 284 766 b 275 773 278 767 275 769 b 285 781 275 778 278 781 b 295 772 291 781 294 778 z m 318 728 l 359 728 l 359 739 l 331 739 l 331 754 l 357 754 l 357 765 l 331 765 l 331 780 l 359 780 l 359 791 l 318 791 z m 447 760 b 438 783 447 770 444 778 b 418 791 433 789 426 791 b 397 783 410 791 403 789 b 389 760 391 778 389 770 b 397 736 389 749 391 742 b 418 728 403 730 410 728 b 438 736 426 728 433 730 b 447 760 444 742 447 749 z m 509 791 l 496 791 l 496 751 l 495 751 l 468 791 l 456 791 l 456 728 l 469 728 l 469 768 l 470 768 l 497 728 l 509 728 z m 519 728 l 559 728 l 559 739 l 532 739 l 532 791 l 519 791 z m 556 791 l 579 751 l 579 728 l 592 728 l 592 751 l 614 791 l 600 791 l 586 764 l 585 764 l 571 791 z m 167 -81 l 199 -81 l 199 -73 l 177 -73 l 177 -61 l 197 -61 l 197 -53 l 177 -53 l 177 -42 l 199 -42 l 199 -34 l 167 -34 z m 246 -34 l 236 -34 l 236 -63 l 235 -63 l 215 -34 l 207 -34 l 207 -81 l 216 -81 l 216 -51 l 217 -51 l 237 -81 l 246 -81 z m 263 -34 l 252 -34 l 267 -57 l 252 -81 l 263 -81 l 273 -64 l 283 -81 l 294 -81 l 279 -57 l 294 -34 l 283 -34 l 273 -50 z m 298 -34 l 315 -64 l 315 -81 l 325 -81 l 325 -64 l 342 -34 l 331 -34 l 320 -54 l 309 -34 z m 386 -50 b 380 -37 385 -45 383 -41 b 366 -33 376 -35 371 -33 b 350 -39 359 -33 354 -35 b 344 -57 346 -43 344 -50 b 350 -75 344 -65 346 -71 b 366 -81 354 -79 359 -81 b 380 -77 372 -81 376 -80 b 386 -64 383 -73 385 -69 l 376 -64 b 366 -73 374 -70 371 -73 b 353 -57 357 -73 353 -67 b 366 -42 355 -47 359 -42 b 376 -50 371 -42 374 -45 z m 393 -81 l 423 -81 l 423 -73 l 404 -73 l 404 -34 l 393 -34 z m 471 -57 b 465 -39 471 -50 469 -43 b 449 -33 460 -35 456 -33 b 433 -39 443 -33 437 -35 b 427 -57 429 -43 427 -50 b 433 -75 427 -65 429 -71 b 449 -81 437 -79 443 -81 b 465 -75 456 -81 460 -79 b 471 -57 469 -71 471 -65 z m 481 -81 b 487 -76 484 -81 486 -79 b 481 -71 486 -73 484 -71 b 475 -76 478 -71 476 -73 b 481 -81 476 -79 478 -81 z m 536 -50 b 530 -37 536 -45 534 -41 b 516 -33 526 -35 522 -33 b 500 -39 510 -33 505 -35 b 494 -57 496 -43 494 -50 b 500 -75 494 -65 496 -71 b 516 -81 505 -79 510 -81 b 530 -77 522 -81 527 -80 b 536 -64 534 -73 536 -69 l 526 -64 b 516 -73 525 -70 522 -73 b 505 -57 508 -73 505 -67 b 516 -42 505 -47 509 -42 b 526 -50 522 -42 525 -45 z m 587 -57 b 581 -39 587 -50 585 -43 b 565 -33 576 -35 571 -33 b 549 -39 559 -33 553 -35 b 543 -57 545 -43 543 -50 b 549 -75 543 -65 545 -71 b 565 -81 553 -79 559 -81 b 581 -75 571 -81 576 -79 b 587 -57 585 -71 587 -65 z "},"G":{"ha":812,"x_min":0,"x_max":0,"o":"m 539 469 b 589 501 554 483 570 494 b 492 563 555 536 522 557 b 422 572 460 569 437 572 b 332 554 392 572 361 566 b 381 510 350 541 367 526 b 424 514 396 513 410 514 b 539 469 466 514 505 499 z m 306 249 b 338 342 328 277 338 308 b 306 433 338 375 328 406 b 279 382 292 416 283 398 b 274 341 276 366 274 352 b 278 309 274 330 275 319 b 306 249 283 288 292 267 z m 443 373 b 445 341 444 363 445 352 b 443 309 445 331 444 320 b 527 341 474 311 502 322 b 443 373 502 361 474 371 z m 289 231 b 256 292 271 252 260 273 b 250 341 252 312 250 328 b 254 380 250 354 251 368 b 289 452 260 406 271 430 b 239 481 274 465 258 475 b 192 342 208 439 192 392 b 239 201 192 291 208 244 b 266 214 248 204 257 209 b 289 231 274 219 281 224 z m 589 181 b 539 213 570 189 554 199 b 424 168 505 183 466 168 b 381 173 410 168 396 170 b 356 147 374 163 365 155 b 332 129 348 140 340 134 b 422 111 361 117 392 111 b 469 115 437 111 453 112 b 589 181 515 125 555 146 z m 577 -57 b 565 -73 576 -68 572 -73 b 553 -57 557 -73 553 -67 b 565 -42 554 -47 558 -42 b 577 -57 573 -42 577 -47 z m 193 844 l 193 865 l 202 865 b 213 854 210 864 213 861 b 202 844 213 848 210 844 z m 300 846 l 300 865 l 309 865 b 321 856 317 865 321 861 b 309 846 321 849 317 846 z m 443 845 b 427 825 442 831 437 825 b 412 845 417 825 412 831 b 427 865 412 858 418 865 b 443 845 438 865 443 858 z m 548 838 l 555 862 l 564 838 z m 433 760 b 418 739 433 746 427 739 b 401 760 407 739 401 746 b 418 780 403 773 408 780 b 433 760 429 779 433 772 z m 625 196 b 628 191 627 195 628 193 l 628 189 b 627 188 628 189 627 188 b 508 98 587 137 547 107 b 422 85 469 90 440 85 b 300 117 380 85 340 96 l 288 123 b 286 127 287 124 286 126 b 286 130 286 128 286 129 l 288 132 b 386 224 332 157 365 188 b 418 340 408 261 418 300 l 418 342 b 385 458 418 383 407 422 b 288 551 363 496 331 526 b 286 555 287 552 286 553 b 286 557 286 555 286 557 l 288 559 b 427 596 334 584 380 596 b 471 593 442 596 457 595 b 628 494 533 582 585 549 b 629 490 629 493 629 492 b 624 486 629 488 627 487 b 579 469 608 484 594 477 b 543 439 565 460 553 450 b 538 437 541 437 540 437 b 535 438 538 437 536 437 b 479 479 515 458 496 471 b 425 490 461 486 444 490 b 399 488 417 490 408 490 b 439 398 418 460 431 431 b 559 345 486 397 526 378 b 561 342 560 344 561 342 b 559 338 561 340 560 339 b 439 285 526 304 486 286 b 399 195 431 252 418 222 b 422 193 407 193 415 193 b 536 245 467 193 505 210 b 540 247 537 246 538 247 l 541 247 b 545 245 543 246 544 245 b 625 196 569 218 595 202 z m 228 176 b 167 342 187 227 167 282 b 229 507 167 401 187 456 b 232 509 229 509 231 509 b 234 509 233 509 233 509 b 337 433 281 494 316 469 b 363 344 354 406 363 376 l 363 342 b 336 250 362 309 353 279 b 233 174 315 214 280 189 l 232 174 b 228 176 231 174 229 174 z m 461 -57 b 449 -73 460 -68 456 -73 b 437 -57 441 -73 437 -67 b 449 -42 438 -47 442 -42 b 461 -57 457 -42 461 -47 z m 129 679 b 85 661 112 679 98 673 b 68 618 74 650 68 635 l 68 64 b 85 20 68 47 74 32 b 129 3 98 9 112 3 l 684 3 b 726 20 701 3 715 9 b 745 64 739 32 745 47 l 745 618 b 726 661 745 635 739 650 b 684 679 715 673 701 679 z m 595 -34 l 595 -81 l 604 -81 l 604 -50 l 604 -50 l 616 -81 l 623 -81 l 635 -50 l 635 -81 l 646 -81 l 646 -34 l 633 -34 l 620 -66 l 619 -66 l 607 -34 z m 180 814 l 193 814 l 193 834 l 204 834 b 220 840 211 834 216 836 b 227 854 224 844 227 848 b 204 876 226 869 218 876 l 180 876 z m 235 814 l 277 814 l 277 825 l 248 825 l 248 840 l 275 840 l 275 850 l 248 850 l 248 865 l 277 865 l 277 876 l 235 876 z m 288 814 l 300 814 l 300 836 l 310 836 l 321 814 l 336 814 l 323 838 b 334 856 330 841 334 847 b 312 876 333 869 326 876 l 288 876 z m 377 858 l 390 858 b 367 877 388 870 380 877 b 350 871 360 877 354 875 b 343 858 345 868 343 863 b 360 841 343 849 349 843 l 367 840 b 378 831 374 838 377 835 b 366 824 377 826 373 824 b 354 833 359 824 355 827 l 341 833 b 349 818 342 826 344 821 b 367 813 353 814 359 813 b 391 831 382 813 389 819 b 372 850 390 842 384 848 l 366 851 b 357 859 360 852 357 854 b 367 866 357 863 360 866 b 377 858 373 866 376 863 z m 456 845 b 448 868 456 854 454 863 b 427 877 443 873 435 877 b 406 868 419 877 412 873 b 398 845 401 863 398 854 b 406 821 398 835 401 827 b 427 813 412 816 419 813 b 448 821 435 813 443 816 b 456 845 454 827 456 835 z m 518 876 l 505 876 l 505 837 l 505 837 l 478 876 l 466 876 l 466 814 l 479 814 l 479 852 l 507 814 l 518 814 z m 540 814 l 545 827 l 566 827 l 571 814 l 585 814 l 564 876 l 547 876 l 526 814 z m 593 814 l 633 814 l 633 825 l 606 825 l 606 876 l 593 876 z m 237 791 l 237 751 b 225 739 237 743 233 739 b 212 751 216 741 212 744 l 212 791 l 199 791 l 199 750 b 206 734 199 743 201 738 b 225 728 211 730 217 728 b 243 734 233 728 239 730 b 251 750 248 738 251 743 l 251 791 z m 295 772 l 308 772 b 285 791 307 785 298 791 b 268 787 278 791 273 790 b 261 772 264 783 262 779 b 278 755 262 764 267 758 l 285 754 b 296 746 292 753 296 750 b 284 739 295 741 291 739 b 273 748 277 739 274 742 l 260 748 b 267 733 260 741 262 736 b 285 728 271 730 277 728 b 309 746 300 728 308 734 b 290 764 308 756 302 762 l 284 766 b 275 773 278 767 275 769 b 285 781 275 778 278 781 b 295 772 291 781 294 778 z m 318 728 l 359 728 l 359 739 l 331 739 l 331 754 l 357 754 l 357 765 l 331 765 l 331 780 l 359 780 l 359 791 l 318 791 z m 447 760 b 438 783 447 770 444 778 b 418 791 433 789 426 791 b 397 783 410 791 403 789 b 389 760 391 778 389 770 b 397 736 389 749 391 742 b 418 728 403 730 410 728 b 438 736 426 728 433 730 b 447 760 444 742 447 749 z m 509 791 l 496 791 l 496 751 l 495 751 l 468 791 l 456 791 l 456 728 l 469 728 l 469 768 l 470 768 l 497 728 l 509 728 z m 519 728 l 559 728 l 559 739 l 532 739 l 532 791 l 519 791 z m 556 791 l 579 751 l 579 728 l 592 728 l 592 751 l 614 791 l 600 791 l 586 764 l 585 764 l 571 791 z m 167 -81 l 199 -81 l 199 -73 l 177 -73 l 177 -61 l 197 -61 l 197 -53 l 177 -53 l 177 -42 l 199 -42 l 199 -34 l 167 -34 z m 246 -34 l 236 -34 l 236 -63 l 235 -63 l 215 -34 l 207 -34 l 207 -81 l 216 -81 l 216 -51 l 217 -51 l 237 -81 l 246 -81 z m 263 -34 l 252 -34 l 267 -57 l 252 -81 l 263 -81 l 273 -64 l 283 -81 l 294 -81 l 279 -57 l 294 -34 l 283 -34 l 273 -50 z m 298 -34 l 315 -64 l 315 -81 l 325 -81 l 325 -64 l 342 -34 l 331 -34 l 320 -54 l 309 -34 z m 386 -50 b 380 -37 385 -45 383 -41 b 366 -33 376 -35 371 -33 b 350 -39 359 -33 354 -35 b 344 -57 346 -43 344 -50 b 350 -75 344 -65 346 -71 b 366 -81 354 -79 359 -81 b 380 -77 372 -81 376 -80 b 386 -64 383 -73 385 -69 l 376 -64 b 366 -73 374 -70 371 -73 b 353 -57 357 -73 353 -67 b 366 -42 355 -47 359 -42 b 376 -50 371 -42 374 -45 z m 393 -81 l 423 -81 l 423 -73 l 404 -73 l 404 -34 l 393 -34 z m 471 -57 b 465 -39 471 -50 469 -43 b 449 -33 460 -35 456 -33 b 433 -39 443 -33 437 -35 b 427 -57 429 -43 427 -50 b 433 -75 427 -65 429 -71 b 449 -81 437 -79 443 -81 b 465 -75 456 -81 460 -79 b 471 -57 469 -71 471 -65 z m 481 -81 b 487 -76 484 -81 486 -79 b 481 -71 486 -73 484 -71 b 475 -76 478 -71 476 -73 b 481 -81 476 -79 478 -81 z m 536 -50 b 530 -37 536 -45 534 -41 b 516 -33 526 -35 522 -33 b 500 -39 510 -33 505 -35 b 494 -57 496 -43 494 -50 b 500 -75 494 -65 496 -71 b 516 -81 505 -79 510 -81 b 530 -77 522 -81 527 -80 b 536 -64 534 -73 536 -69 l 526 -64 b 516 -73 525 -70 522 -73 b 505 -57 508 -73 505 -67 b 516 -42 505 -47 509 -42 b 526 -50 522 -42 525 -45 z m 587 -57 b 581 -39 587 -50 585 -43 b 565 -33 576 -35 571 -33 b 549 -39 559 -33 553 -35 b 543 -57 545 -43 543 -50 b 549 -75 543 -65 545 -71 b 565 -81 553 -79 559 -81 b 581 -75 571 -81 576 -79 b 587 -57 585 -71 587 -65 z "},"H":{"ha":812,"x_min":0,"x_max":0,"o":"m 539 469 b 589 501 554 483 570 494 b 492 563 555 536 522 557 b 422 572 460 569 437 572 b 332 554 392 572 361 566 b 381 510 350 541 367 526 b 424 514 396 513 410 514 b 539 469 466 514 505 499 z m 306 249 b 338 342 328 277 338 308 b 306 433 338 375 328 406 b 279 382 292 416 283 398 b 274 341 276 366 274 352 b 278 309 274 330 275 319 b 306 249 283 288 292 267 z m 443 373 b 445 341 444 363 445 352 b 443 309 445 331 444 320 b 527 341 474 311 502 322 b 443 373 502 361 474 371 z m 289 231 b 256 292 271 252 260 273 b 250 341 252 312 250 328 b 254 380 250 354 251 368 b 289 452 260 406 271 430 b 239 481 274 465 258 475 b 192 342 208 439 192 392 b 239 201 192 291 208 244 b 266 214 248 204 257 209 b 289 231 274 219 281 224 z m 589 181 b 539 213 570 189 554 199 b 424 168 505 183 466 168 b 381 173 410 168 396 170 b 356 147 374 163 365 155 b 332 129 348 140 340 134 b 422 111 361 117 392 111 b 469 115 437 111 453 112 b 589 181 515 125 555 146 z m 577 -57 b 565 -73 576 -68 572 -73 b 553 -57 557 -73 553 -67 b 565 -42 554 -47 558 -42 b 577 -57 573 -42 577 -47 z m 193 844 l 193 865 l 202 865 b 213 854 210 864 213 861 b 202 844 213 848 210 844 z m 300 846 l 300 865 l 309 865 b 321 856 317 865 321 861 b 309 846 321 849 317 846 z m 443 845 b 427 825 442 831 437 825 b 412 845 417 825 412 831 b 427 865 412 858 418 865 b 443 845 438 865 443 858 z m 548 838 l 555 862 l 564 838 z m 433 760 b 418 739 433 746 427 739 b 401 760 407 739 401 746 b 418 780 403 773 408 780 b 433 760 429 779 433 772 z m 625 196 b 628 191 627 195 628 193 l 628 189 b 627 188 628 189 627 188 b 508 98 587 137 547 107 b 422 85 469 90 440 85 b 300 117 380 85 340 96 l 288 123 b 286 127 287 124 286 126 b 286 130 286 128 286 129 l 288 132 b 386 224 332 157 365 188 b 418 340 408 261 418 300 l 418 342 b 385 458 418 383 407 422 b 288 551 363 496 331 526 b 286 555 287 552 286 553 b 286 557 286 555 286 557 l 288 559 b 427 596 334 584 380 596 b 471 593 442 596 457 595 b 628 494 533 582 585 549 b 629 490 629 493 629 492 b 624 486 629 488 627 487 b 579 469 608 484 594 477 b 543 439 565 460 553 450 b 538 437 541 437 540 437 b 535 438 538 437 536 437 b 479 479 515 458 496 471 b 425 490 461 486 444 490 b 399 488 417 490 408 490 b 439 398 418 460 431 431 b 559 345 486 397 526 378 b 561 342 560 344 561 342 b 559 338 561 340 560 339 b 439 285 526 304 486 286 b 399 195 431 252 418 222 b 422 193 407 193 415 193 b 536 245 467 193 505 210 b 540 247 537 246 538 247 l 541 247 b 545 245 543 246 544 245 b 625 196 569 218 595 202 z m 228 176 b 167 342 187 227 167 282 b 229 507 167 401 187 456 b 232 509 229 509 231 509 b 234 509 233 509 233 509 b 337 433 281 494 316 469 b 363 344 354 406 363 376 l 363 342 b 336 250 362 309 353 279 b 233 174 315 214 280 189 l 232 174 b 228 176 231 174 229 174 z m 461 -57 b 449 -73 460 -68 456 -73 b 437 -57 441 -73 437 -67 b 449 -42 438 -47 442 -42 b 461 -57 457 -42 461 -47 z m 129 679 b 85 661 112 679 98 673 b 68 618 74 650 68 635 l 68 64 b 85 20 68 47 74 32 b 129 3 98 9 112 3 l 684 3 b 726 20 701 3 715 9 b 745 64 739 32 745 47 l 745 618 b 726 661 745 635 739 650 b 684 679 715 673 701 679 z m 595 -34 l 595 -81 l 604 -81 l 604 -50 l 604 -50 l 616 -81 l 623 -81 l 635 -50 l 635 -81 l 646 -81 l 646 -34 l 633 -34 l 620 -66 l 619 -66 l 607 -34 z m 180 814 l 193 814 l 193 834 l 204 834 b 220 840 211 834 216 836 b 227 854 224 844 227 848 b 204 876 226 869 218 876 l 180 876 z m 235 814 l 277 814 l 277 825 l 248 825 l 248 840 l 275 840 l 275 850 l 248 850 l 248 865 l 277 865 l 277 876 l 235 876 z m 288 814 l 300 814 l 300 836 l 310 836 l 321 814 l 336 814 l 323 838 b 334 856 330 841 334 847 b 312 876 333 869 326 876 l 288 876 z m 377 858 l 390 858 b 367 877 388 870 380 877 b 350 871 360 877 354 875 b 343 858 345 868 343 863 b 360 841 343 849 349 843 l 367 840 b 378 831 374 838 377 835 b 366 824 377 826 373 824 b 354 833 359 824 355 827 l 341 833 b 349 818 342 826 344 821 b 367 813 353 814 359 813 b 391 831 382 813 389 819 b 372 850 390 842 384 848 l 366 851 b 357 859 360 852 357 854 b 367 866 357 863 360 866 b 377 858 373 866 376 863 z m 456 845 b 448 868 456 854 454 863 b 427 877 443 873 435 877 b 406 868 419 877 412 873 b 398 845 401 863 398 854 b 406 821 398 835 401 827 b 427 813 412 816 419 813 b 448 821 435 813 443 816 b 456 845 454 827 456 835 z m 518 876 l 505 876 l 505 837 l 505 837 l 478 876 l 466 876 l 466 814 l 479 814 l 479 852 l 507 814 l 518 814 z m 540 814 l 545 827 l 566 827 l 571 814 l 585 814 l 564 876 l 547 876 l 526 814 z m 593 814 l 633 814 l 633 825 l 606 825 l 606 876 l 593 876 z m 237 791 l 237 751 b 225 739 237 743 233 739 b 212 751 216 741 212 744 l 212 791 l 199 791 l 199 750 b 206 734 199 743 201 738 b 225 728 211 730 217 728 b 243 734 233 728 239 730 b 251 750 248 738 251 743 l 251 791 z m 295 772 l 308 772 b 285 791 307 785 298 791 b 268 787 278 791 273 790 b 261 772 264 783 262 779 b 278 755 262 764 267 758 l 285 754 b 296 746 292 753 296 750 b 284 739 295 741 291 739 b 273 748 277 739 274 742 l 260 748 b 267 733 260 741 262 736 b 285 728 271 730 277 728 b 309 746 300 728 308 734 b 290 764 308 756 302 762 l 284 766 b 275 773 278 767 275 769 b 285 781 275 778 278 781 b 295 772 291 781 294 778 z m 318 728 l 359 728 l 359 739 l 331 739 l 331 754 l 357 754 l 357 765 l 331 765 l 331 780 l 359 780 l 359 791 l 318 791 z m 447 760 b 438 783 447 770 444 778 b 418 791 433 789 426 791 b 397 783 410 791 403 789 b 389 760 391 778 389 770 b 397 736 389 749 391 742 b 418 728 403 730 410 728 b 438 736 426 728 433 730 b 447 760 444 742 447 749 z m 509 791 l 496 791 l 496 751 l 495 751 l 468 791 l 456 791 l 456 728 l 469 728 l 469 768 l 470 768 l 497 728 l 509 728 z m 519 728 l 559 728 l 559 739 l 532 739 l 532 791 l 519 791 z m 556 791 l 579 751 l 579 728 l 592 728 l 592 751 l 614 791 l 600 791 l 586 764 l 585 764 l 571 791 z m 167 -81 l 199 -81 l 199 -73 l 177 -73 l 177 -61 l 197 -61 l 197 -53 l 177 -53 l 177 -42 l 199 -42 l 199 -34 l 167 -34 z m 246 -34 l 236 -34 l 236 -63 l 235 -63 l 215 -34 l 207 -34 l 207 -81 l 216 -81 l 216 -51 l 217 -51 l 237 -81 l 246 -81 z m 263 -34 l 252 -34 l 267 -57 l 252 -81 l 263 -81 l 273 -64 l 283 -81 l 294 -81 l 279 -57 l 294 -34 l 283 -34 l 273 -50 z m 298 -34 l 315 -64 l 315 -81 l 325 -81 l 325 -64 l 342 -34 l 331 -34 l 320 -54 l 309 -34 z m 386 -50 b 380 -37 385 -45 383 -41 b 366 -33 376 -35 371 -33 b 350 -39 359 -33 354 -35 b 344 -57 346 -43 344 -50 b 350 -75 344 -65 346 -71 b 366 -81 354 -79 359 -81 b 380 -77 372 -81 376 -80 b 386 -64 383 -73 385 -69 l 376 -64 b 366 -73 374 -70 371 -73 b 353 -57 357 -73 353 -67 b 366 -42 355 -47 359 -42 b 376 -50 371 -42 374 -45 z m 393 -81 l 423 -81 l 423 -73 l 404 -73 l 404 -34 l 393 -34 z m 471 -57 b 465 -39 471 -50 469 -43 b 449 -33 460 -35 456 -33 b 433 -39 443 -33 437 -35 b 427 -57 429 -43 427 -50 b 433 -75 427 -65 429 -71 b 449 -81 437 -79 443 -81 b 465 -75 456 -81 460 -79 b 471 -57 469 -71 471 -65 z m 481 -81 b 487 -76 484 -81 486 -79 b 481 -71 486 -73 484 -71 b 475 -76 478 -71 476 -73 b 481 -81 476 -79 478 -81 z m 536 -50 b 530 -37 536 -45 534 -41 b 516 -33 526 -35 522 -33 b 500 -39 510 -33 505 -35 b 494 -57 496 -43 494 -50 b 500 -75 494 -65 496 -71 b 516 -81 505 -79 510 -81 b 530 -77 522 -81 527 -80 b 536 -64 534 -73 536 -69 l 526 -64 b 516 -73 525 -70 522 -73 b 505 -57 508 -73 505 -67 b 516 -42 505 -47 509 -42 b 526 -50 522 -42 525 -45 z m 587 -57 b 581 -39 587 -50 585 -43 b 565 -33 576 -35 571 -33 b 549 -39 559 -33 553 -35 b 543 -57 545 -43 543 -50 b 549 -75 543 -65 545 -71 b 565 -81 553 -79 559 -81 b 581 -75 571 -81 576 -79 b 587 -57 585 -71 587 -65 z "},"I":{"ha":812,"x_min":0,"x_max":0,"o":"m 539 469 b 589 501 554 483 570 494 b 492 563 555 536 522 557 b 422 572 460 569 437 572 b 332 554 392 572 361 566 b 381 510 350 541 367 526 b 424 514 396 513 410 514 b 539 469 466 514 505 499 z m 306 249 b 338 342 328 277 338 308 b 306 433 338 375 328 406 b 279 382 292 416 283 398 b 274 341 276 366 274 352 b 278 309 274 330 275 319 b 306 249 283 288 292 267 z m 443 373 b 445 341 444 363 445 352 b 443 309 445 331 444 320 b 527 341 474 311 502 322 b 443 373 502 361 474 371 z m 289 231 b 256 292 271 252 260 273 b 250 341 252 312 250 328 b 254 380 250 354 251 368 b 289 452 260 406 271 430 b 239 481 274 465 258 475 b 192 342 208 439 192 392 b 239 201 192 291 208 244 b 266 214 248 204 257 209 b 289 231 274 219 281 224 z m 589 181 b 539 213 570 189 554 199 b 424 168 505 183 466 168 b 381 173 410 168 396 170 b 356 147 374 163 365 155 b 332 129 348 140 340 134 b 422 111 361 117 392 111 b 469 115 437 111 453 112 b 589 181 515 125 555 146 z m 577 -57 b 565 -73 576 -68 572 -73 b 553 -57 557 -73 553 -67 b 565 -42 554 -47 558 -42 b 577 -57 573 -42 577 -47 z m 193 844 l 193 865 l 202 865 b 213 854 210 864 213 861 b 202 844 213 848 210 844 z m 300 846 l 300 865 l 309 865 b 321 856 317 865 321 861 b 309 846 321 849 317 846 z m 443 845 b 427 825 442 831 437 825 b 412 845 417 825 412 831 b 427 865 412 858 418 865 b 443 845 438 865 443 858 z m 548 838 l 555 862 l 564 838 z m 433 760 b 418 739 433 746 427 739 b 401 760 407 739 401 746 b 418 780 403 773 408 780 b 433 760 429 779 433 772 z m 625 196 b 628 191 627 195 628 193 l 628 189 b 627 188 628 189 627 188 b 508 98 587 137 547 107 b 422 85 469 90 440 85 b 300 117 380 85 340 96 l 288 123 b 286 127 287 124 286 126 b 286 130 286 128 286 129 l 288 132 b 386 224 332 157 365 188 b 418 340 408 261 418 300 l 418 342 b 385 458 418 383 407 422 b 288 551 363 496 331 526 b 286 555 287 552 286 553 b 286 557 286 555 286 557 l 288 559 b 427 596 334 584 380 596 b 471 593 442 596 457 595 b 628 494 533 582 585 549 b 629 490 629 493 629 492 b 624 486 629 488 627 487 b 579 469 608 484 594 477 b 543 439 565 460 553 450 b 538 437 541 437 540 437 b 535 438 538 437 536 437 b 479 479 515 458 496 471 b 425 490 461 486 444 490 b 399 488 417 490 408 490 b 439 398 418 460 431 431 b 559 345 486 397 526 378 b 561 342 560 344 561 342 b 559 338 561 340 560 339 b 439 285 526 304 486 286 b 399 195 431 252 418 222 b 422 193 407 193 415 193 b 536 245 467 193 505 210 b 540 247 537 246 538 247 l 541 247 b 545 245 543 246 544 245 b 625 196 569 218 595 202 z m 228 176 b 167 342 187 227 167 282 b 229 507 167 401 187 456 b 232 509 229 509 231 509 b 234 509 233 509 233 509 b 337 433 281 494 316 469 b 363 344 354 406 363 376 l 363 342 b 336 250 362 309 353 279 b 233 174 315 214 280 189 l 232 174 b 228 176 231 174 229 174 z m 461 -57 b 449 -73 460 -68 456 -73 b 437 -57 441 -73 437 -67 b 449 -42 438 -47 442 -42 b 461 -57 457 -42 461 -47 z m 129 679 b 85 661 112 679 98 673 b 68 618 74 650 68 635 l 68 64 b 85 20 68 47 74 32 b 129 3 98 9 112 3 l 684 3 b 726 20 701 3 715 9 b 745 64 739 32 745 47 l 745 618 b 726 661 745 635 739 650 b 684 679 715 673 701 679 z m 595 -34 l 595 -81 l 604 -81 l 604 -50 l 604 -50 l 616 -81 l 623 -81 l 635 -50 l 635 -81 l 646 -81 l 646 -34 l 633 -34 l 620 -66 l 619 -66 l 607 -34 z m 180 814 l 193 814 l 193 834 l 204 834 b 220 840 211 834 216 836 b 227 854 224 844 227 848 b 204 876 226 869 218 876 l 180 876 z m 235 814 l 277 814 l 277 825 l 248 825 l 248 840 l 275 840 l 275 850 l 248 850 l 248 865 l 277 865 l 277 876 l 235 876 z m 288 814 l 300 814 l 300 836 l 310 836 l 321 814 l 336 814 l 323 838 b 334 856 330 841 334 847 b 312 876 333 869 326 876 l 288 876 z m 377 858 l 390 858 b 367 877 388 870 380 877 b 350 871 360 877 354 875 b 343 858 345 868 343 863 b 360 841 343 849 349 843 l 367 840 b 378 831 374 838 377 835 b 366 824 377 826 373 824 b 354 833 359 824 355 827 l 341 833 b 349 818 342 826 344 821 b 367 813 353 814 359 813 b 391 831 382 813 389 819 b 372 850 390 842 384 848 l 366 851 b 357 859 360 852 357 854 b 367 866 357 863 360 866 b 377 858 373 866 376 863 z m 456 845 b 448 868 456 854 454 863 b 427 877 443 873 435 877 b 406 868 419 877 412 873 b 398 845 401 863 398 854 b 406 821 398 835 401 827 b 427 813 412 816 419 813 b 448 821 435 813 443 816 b 456 845 454 827 456 835 z m 518 876 l 505 876 l 505 837 l 505 837 l 478 876 l 466 876 l 466 814 l 479 814 l 479 852 l 507 814 l 518 814 z m 540 814 l 545 827 l 566 827 l 571 814 l 585 814 l 564 876 l 547 876 l 526 814 z m 593 814 l 633 814 l 633 825 l 606 825 l 606 876 l 593 876 z m 237 791 l 237 751 b 225 739 237 743 233 739 b 212 751 216 741 212 744 l 212 791 l 199 791 l 199 750 b 206 734 199 743 201 738 b 225 728 211 730 217 728 b 243 734 233 728 239 730 b 251 750 248 738 251 743 l 251 791 z m 295 772 l 308 772 b 285 791 307 785 298 791 b 268 787 278 791 273 790 b 261 772 264 783 262 779 b 278 755 262 764 267 758 l 285 754 b 296 746 292 753 296 750 b 284 739 295 741 291 739 b 273 748 277 739 274 742 l 260 748 b 267 733 260 741 262 736 b 285 728 271 730 277 728 b 309 746 300 728 308 734 b 290 764 308 756 302 762 l 284 766 b 275 773 278 767 275 769 b 285 781 275 778 278 781 b 295 772 291 781 294 778 z m 318 728 l 359 728 l 359 739 l 331 739 l 331 754 l 357 754 l 357 765 l 331 765 l 331 780 l 359 780 l 359 791 l 318 791 z m 447 760 b 438 783 447 770 444 778 b 418 791 433 789 426 791 b 397 783 410 791 403 789 b 389 760 391 778 389 770 b 397 736 389 749 391 742 b 418 728 403 730 410 728 b 438 736 426 728 433 730 b 447 760 444 742 447 749 z m 509 791 l 496 791 l 496 751 l 495 751 l 468 791 l 456 791 l 456 728 l 469 728 l 469 768 l 470 768 l 497 728 l 509 728 z m 519 728 l 559 728 l 559 739 l 532 739 l 532 791 l 519 791 z m 556 791 l 579 751 l 579 728 l 592 728 l 592 751 l 614 791 l 600 791 l 586 764 l 585 764 l 571 791 z m 167 -81 l 199 -81 l 199 -73 l 177 -73 l 177 -61 l 197 -61 l 197 -53 l 177 -53 l 177 -42 l 199 -42 l 199 -34 l 167 -34 z m 246 -34 l 236 -34 l 236 -63 l 235 -63 l 215 -34 l 207 -34 l 207 -81 l 216 -81 l 216 -51 l 217 -51 l 237 -81 l 246 -81 z m 263 -34 l 252 -34 l 267 -57 l 252 -81 l 263 -81 l 273 -64 l 283 -81 l 294 -81 l 279 -57 l 294 -34 l 283 -34 l 273 -50 z m 298 -34 l 315 -64 l 315 -81 l 325 -81 l 325 -64 l 342 -34 l 331 -34 l 320 -54 l 309 -34 z m 386 -50 b 380 -37 385 -45 383 -41 b 366 -33 376 -35 371 -33 b 350 -39 359 -33 354 -35 b 344 -57 346 -43 344 -50 b 350 -75 344 -65 346 -71 b 366 -81 354 -79 359 -81 b 380 -77 372 -81 376 -80 b 386 -64 383 -73 385 -69 l 376 -64 b 366 -73 374 -70 371 -73 b 353 -57 357 -73 353 -67 b 366 -42 355 -47 359 -42 b 376 -50 371 -42 374 -45 z m 393 -81 l 423 -81 l 423 -73 l 404 -73 l 404 -34 l 393 -34 z m 471 -57 b 465 -39 471 -50 469 -43 b 449 -33 460 -35 456 -33 b 433 -39 443 -33 437 -35 b 427 -57 429 -43 427 -50 b 433 -75 427 -65 429 -71 b 449 -81 437 -79 443 -81 b 465 -75 456 -81 460 -79 b 471 -57 469 -71 471 -65 z m 481 -81 b 487 -76 484 -81 486 -79 b 481 -71 486 -73 484 -71 b 475 -76 478 -71 476 -73 b 481 -81 476 -79 478 -81 z m 536 -50 b 530 -37 536 -45 534 -41 b 516 -33 526 -35 522 -33 b 500 -39 510 -33 505 -35 b 494 -57 496 -43 494 -50 b 500 -75 494 -65 496 -71 b 516 -81 505 -79 510 -81 b 530 -77 522 -81 527 -80 b 536 -64 534 -73 536 -69 l 526 -64 b 516 -73 525 -70 522 -73 b 505 -57 508 -73 505 -67 b 516 -42 505 -47 509 -42 b 526 -50 522 -42 525 -45 z m 587 -57 b 581 -39 587 -50 585 -43 b 565 -33 576 -35 571 -33 b 549 -39 559 -33 553 -35 b 543 -57 545 -43 543 -50 b 549 -75 543 -65 545 -71 b 565 -81 553 -79 559 -81 b 581 -75 571 -81 576 -79 b 587 -57 585 -71 587 -65 z "},"J":{"ha":812,"x_min":0,"x_max":0,"o":"m 539 469 b 589 501 554 483 570 494 b 492 563 555 536 522 557 b 422 572 460 569 437 572 b 332 554 392 572 361 566 b 381 510 350 541 367 526 b 424 514 396 513 410 514 b 539 469 466 514 505 499 z m 306 249 b 338 342 328 277 338 308 b 306 433 338 375 328 406 b 279 382 292 416 283 398 b 274 341 276 366 274 352 b 278 309 274 330 275 319 b 306 249 283 288 292 267 z m 443 373 b 445 341 444 363 445 352 b 443 309 445 331 444 320 b 527 341 474 311 502 322 b 443 373 502 361 474 371 z m 289 231 b 256 292 271 252 260 273 b 250 341 252 312 250 328 b 254 380 250 354 251 368 b 289 452 260 406 271 430 b 239 481 274 465 258 475 b 192 342 208 439 192 392 b 239 201 192 291 208 244 b 266 214 248 204 257 209 b 289 231 274 219 281 224 z m 589 181 b 539 213 570 189 554 199 b 424 168 505 183 466 168 b 381 173 410 168 396 170 b 356 147 374 163 365 155 b 332 129 348 140 340 134 b 422 111 361 117 392 111 b 469 115 437 111 453 112 b 589 181 515 125 555 146 z m 577 -57 b 565 -73 576 -68 572 -73 b 553 -57 557 -73 553 -67 b 565 -42 554 -47 558 -42 b 577 -57 573 -42 577 -47 z m 193 844 l 193 865 l 202 865 b 213 854 210 864 213 861 b 202 844 213 848 210 844 z m 300 846 l 300 865 l 309 865 b 321 856 317 865 321 861 b 309 846 321 849 317 846 z m 443 845 b 427 825 442 831 437 825 b 412 845 417 825 412 831 b 427 865 412 858 418 865 b 443 845 438 865 443 858 z m 548 838 l 555 862 l 564 838 z m 433 760 b 418 739 433 746 427 739 b 401 760 407 739 401 746 b 418 780 403 773 408 780 b 433 760 429 779 433 772 z m 625 196 b 628 191 627 195 628 193 l 628 189 b 627 188 628 189 627 188 b 508 98 587 137 547 107 b 422 85 469 90 440 85 b 300 117 380 85 340 96 l 288 123 b 286 127 287 124 286 126 b 286 130 286 128 286 129 l 288 132 b 386 224 332 157 365 188 b 418 340 408 261 418 300 l 418 342 b 385 458 418 383 407 422 b 288 551 363 496 331 526 b 286 555 287 552 286 553 b 286 557 286 555 286 557 l 288 559 b 427 596 334 584 380 596 b 471 593 442 596 457 595 b 628 494 533 582 585 549 b 629 490 629 493 629 492 b 624 486 629 488 627 487 b 579 469 608 484 594 477 b 543 439 565 460 553 450 b 538 437 541 437 540 437 b 535 438 538 437 536 437 b 479 479 515 458 496 471 b 425 490 461 486 444 490 b 399 488 417 490 408 490 b 439 398 418 460 431 431 b 559 345 486 397 526 378 b 561 342 560 344 561 342 b 559 338 561 340 560 339 b 439 285 526 304 486 286 b 399 195 431 252 418 222 b 422 193 407 193 415 193 b 536 245 467 193 505 210 b 540 247 537 246 538 247 l 541 247 b 545 245 543 246 544 245 b 625 196 569 218 595 202 z m 228 176 b 167 342 187 227 167 282 b 229 507 167 401 187 456 b 232 509 229 509 231 509 b 234 509 233 509 233 509 b 337 433 281 494 316 469 b 363 344 354 406 363 376 l 363 342 b 336 250 362 309 353 279 b 233 174 315 214 280 189 l 232 174 b 228 176 231 174 229 174 z m 461 -57 b 449 -73 460 -68 456 -73 b 437 -57 441 -73 437 -67 b 449 -42 438 -47 442 -42 b 461 -57 457 -42 461 -47 z m 129 679 b 85 661 112 679 98 673 b 68 618 74 650 68 635 l 68 64 b 85 20 68 47 74 32 b 129 3 98 9 112 3 l 684 3 b 726 20 701 3 715 9 b 745 64 739 32 745 47 l 745 618 b 726 661 745 635 739 650 b 684 679 715 673 701 679 z m 595 -34 l 595 -81 l 604 -81 l 604 -50 l 604 -50 l 616 -81 l 623 -81 l 635 -50 l 635 -81 l 646 -81 l 646 -34 l 633 -34 l 620 -66 l 619 -66 l 607 -34 z m 180 814 l 193 814 l 193 834 l 204 834 b 220 840 211 834 216 836 b 227 854 224 844 227 848 b 204 876 226 869 218 876 l 180 876 z m 235 814 l 277 814 l 277 825 l 248 825 l 248 840 l 275 840 l 275 850 l 248 850 l 248 865 l 277 865 l 277 876 l 235 876 z m 288 814 l 300 814 l 300 836 l 310 836 l 321 814 l 336 814 l 323 838 b 334 856 330 841 334 847 b 312 876 333 869 326 876 l 288 876 z m 377 858 l 390 858 b 367 877 388 870 380 877 b 350 871 360 877 354 875 b 343 858 345 868 343 863 b 360 841 343 849 349 843 l 367 840 b 378 831 374 838 377 835 b 366 824 377 826 373 824 b 354 833 359 824 355 827 l 341 833 b 349 818 342 826 344 821 b 367 813 353 814 359 813 b 391 831 382 813 389 819 b 372 850 390 842 384 848 l 366 851 b 357 859 360 852 357 854 b 367 866 357 863 360 866 b 377 858 373 866 376 863 z m 456 845 b 448 868 456 854 454 863 b 427 877 443 873 435 877 b 406 868 419 877 412 873 b 398 845 401 863 398 854 b 406 821 398 835 401 827 b 427 813 412 816 419 813 b 448 821 435 813 443 816 b 456 845 454 827 456 835 z m 518 876 l 505 876 l 505 837 l 505 837 l 478 876 l 466 876 l 466 814 l 479 814 l 479 852 l 507 814 l 518 814 z m 540 814 l 545 827 l 566 827 l 571 814 l 585 814 l 564 876 l 547 876 l 526 814 z m 593 814 l 633 814 l 633 825 l 606 825 l 606 876 l 593 876 z m 237 791 l 237 751 b 225 739 237 743 233 739 b 212 751 216 741 212 744 l 212 791 l 199 791 l 199 750 b 206 734 199 743 201 738 b 225 728 211 730 217 728 b 243 734 233 728 239 730 b 251 750 248 738 251 743 l 251 791 z m 295 772 l 308 772 b 285 791 307 785 298 791 b 268 787 278 791 273 790 b 261 772 264 783 262 779 b 278 755 262 764 267 758 l 285 754 b 296 746 292 753 296 750 b 284 739 295 741 291 739 b 273 748 277 739 274 742 l 260 748 b 267 733 260 741 262 736 b 285 728 271 730 277 728 b 309 746 300 728 308 734 b 290 764 308 756 302 762 l 284 766 b 275 773 278 767 275 769 b 285 781 275 778 278 781 b 295 772 291 781 294 778 z m 318 728 l 359 728 l 359 739 l 331 739 l 331 754 l 357 754 l 357 765 l 331 765 l 331 780 l 359 780 l 359 791 l 318 791 z m 447 760 b 438 783 447 770 444 778 b 418 791 433 789 426 791 b 397 783 410 791 403 789 b 389 760 391 778 389 770 b 397 736 389 749 391 742 b 418 728 403 730 410 728 b 438 736 426 728 433 730 b 447 760 444 742 447 749 z m 509 791 l 496 791 l 496 751 l 495 751 l 468 791 l 456 791 l 456 728 l 469 728 l 469 768 l 470 768 l 497 728 l 509 728 z m 519 728 l 559 728 l 559 739 l 532 739 l 532 791 l 519 791 z m 556 791 l 579 751 l 579 728 l 592 728 l 592 751 l 614 791 l 600 791 l 586 764 l 585 764 l 571 791 z m 167 -81 l 199 -81 l 199 -73 l 177 -73 l 177 -61 l 197 -61 l 197 -53 l 177 -53 l 177 -42 l 199 -42 l 199 -34 l 167 -34 z m 246 -34 l 236 -34 l 236 -63 l 235 -63 l 215 -34 l 207 -34 l 207 -81 l 216 -81 l 216 -51 l 217 -51 l 237 -81 l 246 -81 z m 263 -34 l 252 -34 l 267 -57 l 252 -81 l 263 -81 l 273 -64 l 283 -81 l 294 -81 l 279 -57 l 294 -34 l 283 -34 l 273 -50 z m 298 -34 l 315 -64 l 315 -81 l 325 -81 l 325 -64 l 342 -34 l 331 -34 l 320 -54 l 309 -34 z m 386 -50 b 380 -37 385 -45 383 -41 b 366 -33 376 -35 371 -33 b 350 -39 359 -33 354 -35 b 344 -57 346 -43 344 -50 b 350 -75 344 -65 346 -71 b 366 -81 354 -79 359 -81 b 380 -77 372 -81 376 -80 b 386 -64 383 -73 385 -69 l 376 -64 b 366 -73 374 -70 371 -73 b 353 -57 357 -73 353 -67 b 366 -42 355 -47 359 -42 b 376 -50 371 -42 374 -45 z m 393 -81 l 423 -81 l 423 -73 l 404 -73 l 404 -34 l 393 -34 z m 471 -57 b 465 -39 471 -50 469 -43 b 449 -33 460 -35 456 -33 b 433 -39 443 -33 437 -35 b 427 -57 429 -43 427 -50 b 433 -75 427 -65 429 -71 b 449 -81 437 -79 443 -81 b 465 -75 456 -81 460 -79 b 471 -57 469 -71 471 -65 z m 481 -81 b 487 -76 484 -81 486 -79 b 481 -71 486 -73 484 -71 b 475 -76 478 -71 476 -73 b 481 -81 476 -79 478 -81 z m 536 -50 b 530 -37 536 -45 534 -41 b 516 -33 526 -35 522 -33 b 500 -39 510 -33 505 -35 b 494 -57 496 -43 494 -50 b 500 -75 494 -65 496 -71 b 516 -81 505 -79 510 -81 b 530 -77 522 -81 527 -80 b 536 -64 534 -73 536 -69 l 526 -64 b 516 -73 525 -70 522 -73 b 505 -57 508 -73 505 -67 b 516 -42 505 -47 509 -42 b 526 -50 522 -42 525 -45 z m 587 -57 b 581 -39 587 -50 585 -43 b 565 -33 576 -35 571 -33 b 549 -39 559 -33 553 -35 b 543 -57 545 -43 543 -50 b 549 -75 543 -65 545 -71 b 565 -81 553 -79 559 -81 b 581 -75 571 -81 576 -79 b 587 -57 585 -71 587 -65 z "},"K":{"ha":812,"x_min":0,"x_max":0,"o":"m 539 469 b 589 501 554 483 570 494 b 492 563 555 536 522 557 b 422 572 460 569 437 572 b 332 554 392 572 361 566 b 381 510 350 541 367 526 b 424 514 396 513 410 514 b 539 469 466 514 505 499 z m 306 249 b 338 342 328 277 338 308 b 306 433 338 375 328 406 b 279 382 292 416 283 398 b 274 341 276 366 274 352 b 278 309 274 330 275 319 b 306 249 283 288 292 267 z m 443 373 b 445 341 444 363 445 352 b 443 309 445 331 444 320 b 527 341 474 311 502 322 b 443 373 502 361 474 371 z m 289 231 b 256 292 271 252 260 273 b 250 341 252 312 250 328 b 254 380 250 354 251 368 b 289 452 260 406 271 430 b 239 481 274 465 258 475 b 192 342 208 439 192 392 b 239 201 192 291 208 244 b 266 214 248 204 257 209 b 289 231 274 219 281 224 z m 589 181 b 539 213 570 189 554 199 b 424 168 505 183 466 168 b 381 173 410 168 396 170 b 356 147 374 163 365 155 b 332 129 348 140 340 134 b 422 111 361 117 392 111 b 469 115 437 111 453 112 b 589 181 515 125 555 146 z m 577 -57 b 565 -73 576 -68 572 -73 b 553 -57 557 -73 553 -67 b 565 -42 554 -47 558 -42 b 577 -57 573 -42 577 -47 z m 193 844 l 193 865 l 202 865 b 213 854 210 864 213 861 b 202 844 213 848 210 844 z m 300 846 l 300 865 l 309 865 b 321 856 317 865 321 861 b 309 846 321 849 317 846 z m 443 845 b 427 825 442 831 437 825 b 412 845 417 825 412 831 b 427 865 412 858 418 865 b 443 845 438 865 443 858 z m 548 838 l 555 862 l 564 838 z m 433 760 b 418 739 433 746 427 739 b 401 760 407 739 401 746 b 418 780 403 773 408 780 b 433 760 429 779 433 772 z m 625 196 b 628 191 627 195 628 193 l 628 189 b 627 188 628 189 627 188 b 508 98 587 137 547 107 b 422 85 469 90 440 85 b 300 117 380 85 340 96 l 288 123 b 286 127 287 124 286 126 b 286 130 286 128 286 129 l 288 132 b 386 224 332 157 365 188 b 418 340 408 261 418 300 l 418 342 b 385 458 418 383 407 422 b 288 551 363 496 331 526 b 286 555 287 552 286 553 b 286 557 286 555 286 557 l 288 559 b 427 596 334 584 380 596 b 471 593 442 596 457 595 b 628 494 533 582 585 549 b 629 490 629 493 629 492 b 624 486 629 488 627 487 b 579 469 608 484 594 477 b 543 439 565 460 553 450 b 538 437 541 437 540 437 b 535 438 538 437 536 437 b 479 479 515 458 496 471 b 425 490 461 486 444 490 b 399 488 417 490 408 490 b 439 398 418 460 431 431 b 559 345 486 397 526 378 b 561 342 560 344 561 342 b 559 338 561 340 560 339 b 439 285 526 304 486 286 b 399 195 431 252 418 222 b 422 193 407 193 415 193 b 536 245 467 193 505 210 b 540 247 537 246 538 247 l 541 247 b 545 245 543 246 544 245 b 625 196 569 218 595 202 z m 228 176 b 167 342 187 227 167 282 b 229 507 167 401 187 456 b 232 509 229 509 231 509 b 234 509 233 509 233 509 b 337 433 281 494 316 469 b 363 344 354 406 363 376 l 363 342 b 336 250 362 309 353 279 b 233 174 315 214 280 189 l 232 174 b 228 176 231 174 229 174 z m 461 -57 b 449 -73 460 -68 456 -73 b 437 -57 441 -73 437 -67 b 449 -42 438 -47 442 -42 b 461 -57 457 -42 461 -47 z m 129 679 b 85 661 112 679 98 673 b 68 618 74 650 68 635 l 68 64 b 85 20 68 47 74 32 b 129 3 98 9 112 3 l 684 3 b 726 20 701 3 715 9 b 745 64 739 32 745 47 l 745 618 b 726 661 745 635 739 650 b 684 679 715 673 701 679 z m 595 -34 l 595 -81 l 604 -81 l 604 -50 l 604 -50 l 616 -81 l 623 -81 l 635 -50 l 635 -81 l 646 -81 l 646 -34 l 633 -34 l 620 -66 l 619 -66 l 607 -34 z m 180 814 l 193 814 l 193 834 l 204 834 b 220 840 211 834 216 836 b 227 854 224 844 227 848 b 204 876 226 869 218 876 l 180 876 z m 235 814 l 277 814 l 277 825 l 248 825 l 248 840 l 275 840 l 275 850 l 248 850 l 248 865 l 277 865 l 277 876 l 235 876 z m 288 814 l 300 814 l 300 836 l 310 836 l 321 814 l 336 814 l 323 838 b 334 856 330 841 334 847 b 312 876 333 869 326 876 l 288 876 z m 377 858 l 390 858 b 367 877 388 870 380 877 b 350 871 360 877 354 875 b 343 858 345 868 343 863 b 360 841 343 849 349 843 l 367 840 b 378 831 374 838 377 835 b 366 824 377 826 373 824 b 354 833 359 824 355 827 l 341 833 b 349 818 342 826 344 821 b 367 813 353 814 359 813 b 391 831 382 813 389 819 b 372 850 390 842 384 848 l 366 851 b 357 859 360 852 357 854 b 367 866 357 863 360 866 b 377 858 373 866 376 863 z m 456 845 b 448 868 456 854 454 863 b 427 877 443 873 435 877 b 406 868 419 877 412 873 b 398 845 401 863 398 854 b 406 821 398 835 401 827 b 427 813 412 816 419 813 b 448 821 435 813 443 816 b 456 845 454 827 456 835 z m 518 876 l 505 876 l 505 837 l 505 837 l 478 876 l 466 876 l 466 814 l 479 814 l 479 852 l 507 814 l 518 814 z m 540 814 l 545 827 l 566 827 l 571 814 l 585 814 l 564 876 l 547 876 l 526 814 z m 593 814 l 633 814 l 633 825 l 606 825 l 606 876 l 593 876 z m 237 791 l 237 751 b 225 739 237 743 233 739 b 212 751 216 741 212 744 l 212 791 l 199 791 l 199 750 b 206 734 199 743 201 738 b 225 728 211 730 217 728 b 243 734 233 728 239 730 b 251 750 248 738 251 743 l 251 791 z m 295 772 l 308 772 b 285 791 307 785 298 791 b 268 787 278 791 273 790 b 261 772 264 783 262 779 b 278 755 262 764 267 758 l 285 754 b 296 746 292 753 296 750 b 284 739 295 741 291 739 b 273 748 277 739 274 742 l 260 748 b 267 733 260 741 262 736 b 285 728 271 730 277 728 b 309 746 300 728 308 734 b 290 764 308 756 302 762 l 284 766 b 275 773 278 767 275 769 b 285 781 275 778 278 781 b 295 772 291 781 294 778 z m 318 728 l 359 728 l 359 739 l 331 739 l 331 754 l 357 754 l 357 765 l 331 765 l 331 780 l 359 780 l 359 791 l 318 791 z m 447 760 b 438 783 447 770 444 778 b 418 791 433 789 426 791 b 397 783 410 791 403 789 b 389 760 391 778 389 770 b 397 736 389 749 391 742 b 418 728 403 730 410 728 b 438 736 426 728 433 730 b 447 760 444 742 447 749 z m 509 791 l 496 791 l 496 751 l 495 751 l 468 791 l 456 791 l 456 728 l 469 728 l 469 768 l 470 768 l 497 728 l 509 728 z m 519 728 l 559 728 l 559 739 l 532 739 l 532 791 l 519 791 z m 556 791 l 579 751 l 579 728 l 592 728 l 592 751 l 614 791 l 600 791 l 586 764 l 585 764 l 571 791 z m 167 -81 l 199 -81 l 199 -73 l 177 -73 l 177 -61 l 197 -61 l 197 -53 l 177 -53 l 177 -42 l 199 -42 l 199 -34 l 167 -34 z m 246 -34 l 236 -34 l 236 -63 l 235 -63 l 215 -34 l 207 -34 l 207 -81 l 216 -81 l 216 -51 l 217 -51 l 237 -81 l 246 -81 z m 263 -34 l 252 -34 l 267 -57 l 252 -81 l 263 -81 l 273 -64 l 283 -81 l 294 -81 l 279 -57 l 294 -34 l 283 -34 l 273 -50 z m 298 -34 l 315 -64 l 315 -81 l 325 -81 l 325 -64 l 342 -34 l 331 -34 l 320 -54 l 309 -34 z m 386 -50 b 380 -37 385 -45 383 -41 b 366 -33 376 -35 371 -33 b 350 -39 359 -33 354 -35 b 344 -57 346 -43 344 -50 b 350 -75 344 -65 346 -71 b 366 -81 354 -79 359 -81 b 380 -77 372 -81 376 -80 b 386 -64 383 -73 385 -69 l 376 -64 b 366 -73 374 -70 371 -73 b 353 -57 357 -73 353 -67 b 366 -42 355 -47 359 -42 b 376 -50 371 -42 374 -45 z m 393 -81 l 423 -81 l 423 -73 l 404 -73 l 404 -34 l 393 -34 z m 471 -57 b 465 -39 471 -50 469 -43 b 449 -33 460 -35 456 -33 b 433 -39 443 -33 437 -35 b 427 -57 429 -43 427 -50 b 433 -75 427 -65 429 -71 b 449 -81 437 -79 443 -81 b 465 -75 456 -81 460 -79 b 471 -57 469 -71 471 -65 z m 481 -81 b 487 -76 484 -81 486 -79 b 481 -71 486 -73 484 -71 b 475 -76 478 -71 476 -73 b 481 -81 476 -79 478 -81 z m 536 -50 b 530 -37 536 -45 534 -41 b 516 -33 526 -35 522 -33 b 500 -39 510 -33 505 -35 b 494 -57 496 -43 494 -50 b 500 -75 494 -65 496 -71 b 516 -81 505 -79 510 -81 b 530 -77 522 -81 527 -80 b 536 -64 534 -73 536 -69 l 526 -64 b 516 -73 525 -70 522 -73 b 505 -57 508 -73 505 -67 b 516 -42 505 -47 509 -42 b 526 -50 522 -42 525 -45 z m 587 -57 b 581 -39 587 -50 585 -43 b 565 -33 576 -35 571 -33 b 549 -39 559 -33 553 -35 b 543 -57 545 -43 543 -50 b 549 -75 543 -65 545 -71 b 565 -81 553 -79 559 -81 b 581 -75 571 -81 576 -79 b 587 -57 585 -71 587 -65 z "},"L":{"ha":812,"x_min":0,"x_max":0,"o":"m 539 469 b 589 501 554 483 570 494 b 492 563 555 536 522 557 b 422 572 460 569 437 572 b 332 554 392 572 361 566 b 381 510 350 541 367 526 b 424 514 396 513 410 514 b 539 469 466 514 505 499 z m 306 249 b 338 342 328 277 338 308 b 306 433 338 375 328 406 b 279 382 292 416 283 398 b 274 341 276 366 274 352 b 278 309 274 330 275 319 b 306 249 283 288 292 267 z m 443 373 b 445 341 444 363 445 352 b 443 309 445 331 444 320 b 527 341 474 311 502 322 b 443 373 502 361 474 371 z m 289 231 b 256 292 271 252 260 273 b 250 341 252 312 250 328 b 254 380 250 354 251 368 b 289 452 260 406 271 430 b 239 481 274 465 258 475 b 192 342 208 439 192 392 b 239 201 192 291 208 244 b 266 214 248 204 257 209 b 289 231 274 219 281 224 z m 589 181 b 539 213 570 189 554 199 b 424 168 505 183 466 168 b 381 173 410 168 396 170 b 356 147 374 163 365 155 b 332 129 348 140 340 134 b 422 111 361 117 392 111 b 469 115 437 111 453 112 b 589 181 515 125 555 146 z m 577 -57 b 565 -73 576 -68 572 -73 b 553 -57 557 -73 553 -67 b 565 -42 554 -47 558 -42 b 577 -57 573 -42 577 -47 z m 193 844 l 193 865 l 202 865 b 213 854 210 864 213 861 b 202 844 213 848 210 844 z m 300 846 l 300 865 l 309 865 b 321 856 317 865 321 861 b 309 846 321 849 317 846 z m 443 845 b 427 825 442 831 437 825 b 412 845 417 825 412 831 b 427 865 412 858 418 865 b 443 845 438 865 443 858 z m 548 838 l 555 862 l 564 838 z m 433 760 b 418 739 433 746 427 739 b 401 760 407 739 401 746 b 418 780 403 773 408 780 b 433 760 429 779 433 772 z m 625 196 b 628 191 627 195 628 193 l 628 189 b 627 188 628 189 627 188 b 508 98 587 137 547 107 b 422 85 469 90 440 85 b 300 117 380 85 340 96 l 288 123 b 286 127 287 124 286 126 b 286 130 286 128 286 129 l 288 132 b 386 224 332 157 365 188 b 418 340 408 261 418 300 l 418 342 b 385 458 418 383 407 422 b 288 551 363 496 331 526 b 286 555 287 552 286 553 b 286 557 286 555 286 557 l 288 559 b 427 596 334 584 380 596 b 471 593 442 596 457 595 b 628 494 533 582 585 549 b 629 490 629 493 629 492 b 624 486 629 488 627 487 b 579 469 608 484 594 477 b 543 439 565 460 553 450 b 538 437 541 437 540 437 b 535 438 538 437 536 437 b 479 479 515 458 496 471 b 425 490 461 486 444 490 b 399 488 417 490 408 490 b 439 398 418 460 431 431 b 559 345 486 397 526 378 b 561 342 560 344 561 342 b 559 338 561 340 560 339 b 439 285 526 304 486 286 b 399 195 431 252 418 222 b 422 193 407 193 415 193 b 536 245 467 193 505 210 b 540 247 537 246 538 247 l 541 247 b 545 245 543 246 544 245 b 625 196 569 218 595 202 z m 228 176 b 167 342 187 227 167 282 b 229 507 167 401 187 456 b 232 509 229 509 231 509 b 234 509 233 509 233 509 b 337 433 281 494 316 469 b 363 344 354 406 363 376 l 363 342 b 336 250 362 309 353 279 b 233 174 315 214 280 189 l 232 174 b 228 176 231 174 229 174 z m 461 -57 b 449 -73 460 -68 456 -73 b 437 -57 441 -73 437 -67 b 449 -42 438 -47 442 -42 b 461 -57 457 -42 461 -47 z m 129 679 b 85 661 112 679 98 673 b 68 618 74 650 68 635 l 68 64 b 85 20 68 47 74 32 b 129 3 98 9 112 3 l 684 3 b 726 20 701 3 715 9 b 745 64 739 32 745 47 l 745 618 b 726 661 745 635 739 650 b 684 679 715 673 701 679 z m 595 -34 l 595 -81 l 604 -81 l 604 -50 l 604 -50 l 616 -81 l 623 -81 l 635 -50 l 635 -81 l 646 -81 l 646 -34 l 633 -34 l 620 -66 l 619 -66 l 607 -34 z m 180 814 l 193 814 l 193 834 l 204 834 b 220 840 211 834 216 836 b 227 854 224 844 227 848 b 204 876 226 869 218 876 l 180 876 z m 235 814 l 277 814 l 277 825 l 248 825 l 248 840 l 275 840 l 275 850 l 248 850 l 248 865 l 277 865 l 277 876 l 235 876 z m 288 814 l 300 814 l 300 836 l 310 836 l 321 814 l 336 814 l 323 838 b 334 856 330 841 334 847 b 312 876 333 869 326 876 l 288 876 z m 377 858 l 390 858 b 367 877 388 870 380 877 b 350 871 360 877 354 875 b 343 858 345 868 343 863 b 360 841 343 849 349 843 l 367 840 b 378 831 374 838 377 835 b 366 824 377 826 373 824 b 354 833 359 824 355 827 l 341 833 b 349 818 342 826 344 821 b 367 813 353 814 359 813 b 391 831 382 813 389 819 b 372 850 390 842 384 848 l 366 851 b 357 859 360 852 357 854 b 367 866 357 863 360 866 b 377 858 373 866 376 863 z m 456 845 b 448 868 456 854 454 863 b 427 877 443 873 435 877 b 406 868 419 877 412 873 b 398 845 401 863 398 854 b 406 821 398 835 401 827 b 427 813 412 816 419 813 b 448 821 435 813 443 816 b 456 845 454 827 456 835 z m 518 876 l 505 876 l 505 837 l 505 837 l 478 876 l 466 876 l 466 814 l 479 814 l 479 852 l 507 814 l 518 814 z m 540 814 l 545 827 l 566 827 l 571 814 l 585 814 l 564 876 l 547 876 l 526 814 z m 593 814 l 633 814 l 633 825 l 606 825 l 606 876 l 593 876 z m 237 791 l 237 751 b 225 739 237 743 233 739 b 212 751 216 741 212 744 l 212 791 l 199 791 l 199 750 b 206 734 199 743 201 738 b 225 728 211 730 217 728 b 243 734 233 728 239 730 b 251 750 248 738 251 743 l 251 791 z m 295 772 l 308 772 b 285 791 307 785 298 791 b 268 787 278 791 273 790 b 261 772 264 783 262 779 b 278 755 262 764 267 758 l 285 754 b 296 746 292 753 296 750 b 284 739 295 741 291 739 b 273 748 277 739 274 742 l 260 748 b 267 733 260 741 262 736 b 285 728 271 730 277 728 b 309 746 300 728 308 734 b 290 764 308 756 302 762 l 284 766 b 275 773 278 767 275 769 b 285 781 275 778 278 781 b 295 772 291 781 294 778 z m 318 728 l 359 728 l 359 739 l 331 739 l 331 754 l 357 754 l 357 765 l 331 765 l 331 780 l 359 780 l 359 791 l 318 791 z m 447 760 b 438 783 447 770 444 778 b 418 791 433 789 426 791 b 397 783 410 791 403 789 b 389 760 391 778 389 770 b 397 736 389 749 391 742 b 418 728 403 730 410 728 b 438 736 426 728 433 730 b 447 760 444 742 447 749 z m 509 791 l 496 791 l 496 751 l 495 751 l 468 791 l 456 791 l 456 728 l 469 728 l 469 768 l 470 768 l 497 728 l 509 728 z m 519 728 l 559 728 l 559 739 l 532 739 l 532 791 l 519 791 z m 556 791 l 579 751 l 579 728 l 592 728 l 592 751 l 614 791 l 600 791 l 586 764 l 585 764 l 571 791 z m 167 -81 l 199 -81 l 199 -73 l 177 -73 l 177 -61 l 197 -61 l 197 -53 l 177 -53 l 177 -42 l 199 -42 l 199 -34 l 167 -34 z m 246 -34 l 236 -34 l 236 -63 l 235 -63 l 215 -34 l 207 -34 l 207 -81 l 216 -81 l 216 -51 l 217 -51 l 237 -81 l 246 -81 z m 263 -34 l 252 -34 l 267 -57 l 252 -81 l 263 -81 l 273 -64 l 283 -81 l 294 -81 l 279 -57 l 294 -34 l 283 -34 l 273 -50 z m 298 -34 l 315 -64 l 315 -81 l 325 -81 l 325 -64 l 342 -34 l 331 -34 l 320 -54 l 309 -34 z m 386 -50 b 380 -37 385 -45 383 -41 b 366 -33 376 -35 371 -33 b 350 -39 359 -33 354 -35 b 344 -57 346 -43 344 -50 b 350 -75 344 -65 346 -71 b 366 -81 354 -79 359 -81 b 380 -77 372 -81 376 -80 b 386 -64 383 -73 385 -69 l 376 -64 b 366 -73 374 -70 371 -73 b 353 -57 357 -73 353 -67 b 366 -42 355 -47 359 -42 b 376 -50 371 -42 374 -45 z m 393 -81 l 423 -81 l 423 -73 l 404 -73 l 404 -34 l 393 -34 z m 471 -57 b 465 -39 471 -50 469 -43 b 449 -33 460 -35 456 -33 b 433 -39 443 -33 437 -35 b 427 -57 429 -43 427 -50 b 433 -75 427 -65 429 -71 b 449 -81 437 -79 443 -81 b 465 -75 456 -81 460 -79 b 471 -57 469 -71 471 -65 z m 481 -81 b 487 -76 484 -81 486 -79 b 481 -71 486 -73 484 -71 b 475 -76 478 -71 476 -73 b 481 -81 476 -79 478 -81 z m 536 -50 b 530 -37 536 -45 534 -41 b 516 -33 526 -35 522 -33 b 500 -39 510 -33 505 -35 b 494 -57 496 -43 494 -50 b 500 -75 494 -65 496 -71 b 516 -81 505 -79 510 -81 b 530 -77 522 -81 527 -80 b 536 -64 534 -73 536 -69 l 526 -64 b 516 -73 525 -70 522 -73 b 505 -57 508 -73 505 -67 b 516 -42 505 -47 509 -42 b 526 -50 522 -42 525 -45 z m 587 -57 b 581 -39 587 -50 585 -43 b 565 -33 576 -35 571 -33 b 549 -39 559 -33 553 -35 b 543 -57 545 -43 543 -50 b 549 -75 543 -65 545 -71 b 565 -81 553 -79 559 -81 b 581 -75 571 -81 576 -79 b 587 -57 585 -71 587 -65 z "},"M":{"ha":812,"x_min":0,"x_max":0,"o":"m 539 469 b 589 501 554 483 570 494 b 492 563 555 536 522 557 b 422 572 460 569 437 572 b 332 554 392 572 361 566 b 381 510 350 541 367 526 b 424 514 396 513 410 514 b 539 469 466 514 505 499 z m 306 249 b 338 342 328 277 338 308 b 306 433 338 375 328 406 b 279 382 292 416 283 398 b 274 341 276 366 274 352 b 278 309 274 330 275 319 b 306 249 283 288 292 267 z m 443 373 b 445 341 444 363 445 352 b 443 309 445 331 444 320 b 527 341 474 311 502 322 b 443 373 502 361 474 371 z m 289 231 b 256 292 271 252 260 273 b 250 341 252 312 250 328 b 254 380 250 354 251 368 b 289 452 260 406 271 430 b 239 481 274 465 258 475 b 192 342 208 439 192 392 b 239 201 192 291 208 244 b 266 214 248 204 257 209 b 289 231 274 219 281 224 z m 589 181 b 539 213 570 189 554 199 b 424 168 505 183 466 168 b 381 173 410 168 396 170 b 356 147 374 163 365 155 b 332 129 348 140 340 134 b 422 111 361 117 392 111 b 469 115 437 111 453 112 b 589 181 515 125 555 146 z m 577 -57 b 565 -73 576 -68 572 -73 b 553 -57 557 -73 553 -67 b 565 -42 554 -47 558 -42 b 577 -57 573 -42 577 -47 z m 193 844 l 193 865 l 202 865 b 213 854 210 864 213 861 b 202 844 213 848 210 844 z m 300 846 l 300 865 l 309 865 b 321 856 317 865 321 861 b 309 846 321 849 317 846 z m 443 845 b 427 825 442 831 437 825 b 412 845 417 825 412 831 b 427 865 412 858 418 865 b 443 845 438 865 443 858 z m 548 838 l 555 862 l 564 838 z m 433 760 b 418 739 433 746 427 739 b 401 760 407 739 401 746 b 418 780 403 773 408 780 b 433 760 429 779 433 772 z m 625 196 b 628 191 627 195 628 193 l 628 189 b 627 188 628 189 627 188 b 508 98 587 137 547 107 b 422 85 469 90 440 85 b 300 117 380 85 340 96 l 288 123 b 286 127 287 124 286 126 b 286 130 286 128 286 129 l 288 132 b 386 224 332 157 365 188 b 418 340 408 261 418 300 l 418 342 b 385 458 418 383 407 422 b 288 551 363 496 331 526 b 286 555 287 552 286 553 b 286 557 286 555 286 557 l 288 559 b 427 596 334 584 380 596 b 471 593 442 596 457 595 b 628 494 533 582 585 549 b 629 490 629 493 629 492 b 624 486 629 488 627 487 b 579 469 608 484 594 477 b 543 439 565 460 553 450 b 538 437 541 437 540 437 b 535 438 538 437 536 437 b 479 479 515 458 496 471 b 425 490 461 486 444 490 b 399 488 417 490 408 490 b 439 398 418 460 431 431 b 559 345 486 397 526 378 b 561 342 560 344 561 342 b 559 338 561 340 560 339 b 439 285 526 304 486 286 b 399 195 431 252 418 222 b 422 193 407 193 415 193 b 536 245 467 193 505 210 b 540 247 537 246 538 247 l 541 247 b 545 245 543 246 544 245 b 625 196 569 218 595 202 z m 228 176 b 167 342 187 227 167 282 b 229 507 167 401 187 456 b 232 509 229 509 231 509 b 234 509 233 509 233 509 b 337 433 281 494 316 469 b 363 344 354 406 363 376 l 363 342 b 336 250 362 309 353 279 b 233 174 315 214 280 189 l 232 174 b 228 176 231 174 229 174 z m 461 -57 b 449 -73 460 -68 456 -73 b 437 -57 441 -73 437 -67 b 449 -42 438 -47 442 -42 b 461 -57 457 -42 461 -47 z m 129 679 b 85 661 112 679 98 673 b 68 618 74 650 68 635 l 68 64 b 85 20 68 47 74 32 b 129 3 98 9 112 3 l 684 3 b 726 20 701 3 715 9 b 745 64 739 32 745 47 l 745 618 b 726 661 745 635 739 650 b 684 679 715 673 701 679 z m 595 -34 l 595 -81 l 604 -81 l 604 -50 l 604 -50 l 616 -81 l 623 -81 l 635 -50 l 635 -81 l 646 -81 l 646 -34 l 633 -34 l 620 -66 l 619 -66 l 607 -34 z m 180 814 l 193 814 l 193 834 l 204 834 b 220 840 211 834 216 836 b 227 854 224 844 227 848 b 204 876 226 869 218 876 l 180 876 z m 235 814 l 277 814 l 277 825 l 248 825 l 248 840 l 275 840 l 275 850 l 248 850 l 248 865 l 277 865 l 277 876 l 235 876 z m 288 814 l 300 814 l 300 836 l 310 836 l 321 814 l 336 814 l 323 838 b 334 856 330 841 334 847 b 312 876 333 869 326 876 l 288 876 z m 377 858 l 390 858 b 367 877 388 870 380 877 b 350 871 360 877 354 875 b 343 858 345 868 343 863 b 360 841 343 849 349 843 l 367 840 b 378 831 374 838 377 835 b 366 824 377 826 373 824 b 354 833 359 824 355 827 l 341 833 b 349 818 342 826 344 821 b 367 813 353 814 359 813 b 391 831 382 813 389 819 b 372 850 390 842 384 848 l 366 851 b 357 859 360 852 357 854 b 367 866 357 863 360 866 b 377 858 373 866 376 863 z m 456 845 b 448 868 456 854 454 863 b 427 877 443 873 435 877 b 406 868 419 877 412 873 b 398 845 401 863 398 854 b 406 821 398 835 401 827 b 427 813 412 816 419 813 b 448 821 435 813 443 816 b 456 845 454 827 456 835 z m 518 876 l 505 876 l 505 837 l 505 837 l 478 876 l 466 876 l 466 814 l 479 814 l 479 852 l 507 814 l 518 814 z m 540 814 l 545 827 l 566 827 l 571 814 l 585 814 l 564 876 l 547 876 l 526 814 z m 593 814 l 633 814 l 633 825 l 606 825 l 606 876 l 593 876 z m 237 791 l 237 751 b 225 739 237 743 233 739 b 212 751 216 741 212 744 l 212 791 l 199 791 l 199 750 b 206 734 199 743 201 738 b 225 728 211 730 217 728 b 243 734 233 728 239 730 b 251 750 248 738 251 743 l 251 791 z m 295 772 l 308 772 b 285 791 307 785 298 791 b 268 787 278 791 273 790 b 261 772 264 783 262 779 b 278 755 262 764 267 758 l 285 754 b 296 746 292 753 296 750 b 284 739 295 741 291 739 b 273 748 277 739 274 742 l 260 748 b 267 733 260 741 262 736 b 285 728 271 730 277 728 b 309 746 300 728 308 734 b 290 764 308 756 302 762 l 284 766 b 275 773 278 767 275 769 b 285 781 275 778 278 781 b 295 772 291 781 294 778 z m 318 728 l 359 728 l 359 739 l 331 739 l 331 754 l 357 754 l 357 765 l 331 765 l 331 780 l 359 780 l 359 791 l 318 791 z m 447 760 b 438 783 447 770 444 778 b 418 791 433 789 426 791 b 397 783 410 791 403 789 b 389 760 391 778 389 770 b 397 736 389 749 391 742 b 418 728 403 730 410 728 b 438 736 426 728 433 730 b 447 760 444 742 447 749 z m 509 791 l 496 791 l 496 751 l 495 751 l 468 791 l 456 791 l 456 728 l 469 728 l 469 768 l 470 768 l 497 728 l 509 728 z m 519 728 l 559 728 l 559 739 l 532 739 l 532 791 l 519 791 z m 556 791 l 579 751 l 579 728 l 592 728 l 592 751 l 614 791 l 600 791 l 586 764 l 585 764 l 571 791 z m 167 -81 l 199 -81 l 199 -73 l 177 -73 l 177 -61 l 197 -61 l 197 -53 l 177 -53 l 177 -42 l 199 -42 l 199 -34 l 167 -34 z m 246 -34 l 236 -34 l 236 -63 l 235 -63 l 215 -34 l 207 -34 l 207 -81 l 216 -81 l 216 -51 l 217 -51 l 237 -81 l 246 -81 z m 263 -34 l 252 -34 l 267 -57 l 252 -81 l 263 -81 l 273 -64 l 283 -81 l 294 -81 l 279 -57 l 294 -34 l 283 -34 l 273 -50 z m 298 -34 l 315 -64 l 315 -81 l 325 -81 l 325 -64 l 342 -34 l 331 -34 l 320 -54 l 309 -34 z m 386 -50 b 380 -37 385 -45 383 -41 b 366 -33 376 -35 371 -33 b 350 -39 359 -33 354 -35 b 344 -57 346 -43 344 -50 b 350 -75 344 -65 346 -71 b 366 -81 354 -79 359 -81 b 380 -77 372 -81 376 -80 b 386 -64 383 -73 385 -69 l 376 -64 b 366 -73 374 -70 371 -73 b 353 -57 357 -73 353 -67 b 366 -42 355 -47 359 -42 b 376 -50 371 -42 374 -45 z m 393 -81 l 423 -81 l 423 -73 l 404 -73 l 404 -34 l 393 -34 z m 471 -57 b 465 -39 471 -50 469 -43 b 449 -33 460 -35 456 -33 b 433 -39 443 -33 437 -35 b 427 -57 429 -43 427 -50 b 433 -75 427 -65 429 -71 b 449 -81 437 -79 443 -81 b 465 -75 456 -81 460 -79 b 471 -57 469 -71 471 -65 z m 481 -81 b 487 -76 484 -81 486 -79 b 481 -71 486 -73 484 -71 b 475 -76 478 -71 476 -73 b 481 -81 476 -79 478 -81 z m 536 -50 b 530 -37 536 -45 534 -41 b 516 -33 526 -35 522 -33 b 500 -39 510 -33 505 -35 b 494 -57 496 -43 494 -50 b 500 -75 494 -65 496 -71 b 516 -81 505 -79 510 -81 b 530 -77 522 -81 527 -80 b 536 -64 534 -73 536 -69 l 526 -64 b 516 -73 525 -70 522 -73 b 505 -57 508 -73 505 -67 b 516 -42 505 -47 509 -42 b 526 -50 522 -42 525 -45 z m 587 -57 b 581 -39 587 -50 585 -43 b 565 -33 576 -35 571 -33 b 549 -39 559 -33 553 -35 b 543 -57 545 -43 543 -50 b 549 -75 543 -65 545 -71 b 565 -81 553 -79 559 -81 b 581 -75 571 -81 576 -79 b 587 -57 585 -71 587 -65 z "},"N":{"ha":812,"x_min":0,"x_max":0,"o":"m 539 469 b 589 501 554 483 570 494 b 492 563 555 536 522 557 b 422 572 460 569 437 572 b 332 554 392 572 361 566 b 381 510 350 541 367 526 b 424 514 396 513 410 514 b 539 469 466 514 505 499 z m 306 249 b 338 342 328 277 338 308 b 306 433 338 375 328 406 b 279 382 292 416 283 398 b 274 341 276 366 274 352 b 278 309 274 330 275 319 b 306 249 283 288 292 267 z m 443 373 b 445 341 444 363 445 352 b 443 309 445 331 444 320 b 527 341 474 311 502 322 b 443 373 502 361 474 371 z m 289 231 b 256 292 271 252 260 273 b 250 341 252 312 250 328 b 254 380 250 354 251 368 b 289 452 260 406 271 430 b 239 481 274 465 258 475 b 192 342 208 439 192 392 b 239 201 192 291 208 244 b 266 214 248 204 257 209 b 289 231 274 219 281 224 z m 589 181 b 539 213 570 189 554 199 b 424 168 505 183 466 168 b 381 173 410 168 396 170 b 356 147 374 163 365 155 b 332 129 348 140 340 134 b 422 111 361 117 392 111 b 469 115 437 111 453 112 b 589 181 515 125 555 146 z m 577 -57 b 565 -73 576 -68 572 -73 b 553 -57 557 -73 553 -67 b 565 -42 554 -47 558 -42 b 577 -57 573 -42 577 -47 z m 193 844 l 193 865 l 202 865 b 213 854 210 864 213 861 b 202 844 213 848 210 844 z m 300 846 l 300 865 l 309 865 b 321 856 317 865 321 861 b 309 846 321 849 317 846 z m 443 845 b 427 825 442 831 437 825 b 412 845 417 825 412 831 b 427 865 412 858 418 865 b 443 845 438 865 443 858 z m 548 838 l 555 862 l 564 838 z m 433 760 b 418 739 433 746 427 739 b 401 760 407 739 401 746 b 418 780 403 773 408 780 b 433 760 429 779 433 772 z m 625 196 b 628 191 627 195 628 193 l 628 189 b 627 188 628 189 627 188 b 508 98 587 137 547 107 b 422 85 469 90 440 85 b 300 117 380 85 340 96 l 288 123 b 286 127 287 124 286 126 b 286 130 286 128 286 129 l 288 132 b 386 224 332 157 365 188 b 418 340 408 261 418 300 l 418 342 b 385 458 418 383 407 422 b 288 551 363 496 331 526 b 286 555 287 552 286 553 b 286 557 286 555 286 557 l 288 559 b 427 596 334 584 380 596 b 471 593 442 596 457 595 b 628 494 533 582 585 549 b 629 490 629 493 629 492 b 624 486 629 488 627 487 b 579 469 608 484 594 477 b 543 439 565 460 553 450 b 538 437 541 437 540 437 b 535 438 538 437 536 437 b 479 479 515 458 496 471 b 425 490 461 486 444 490 b 399 488 417 490 408 490 b 439 398 418 460 431 431 b 559 345 486 397 526 378 b 561 342 560 344 561 342 b 559 338 561 340 560 339 b 439 285 526 304 486 286 b 399 195 431 252 418 222 b 422 193 407 193 415 193 b 536 245 467 193 505 210 b 540 247 537 246 538 247 l 541 247 b 545 245 543 246 544 245 b 625 196 569 218 595 202 z m 228 176 b 167 342 187 227 167 282 b 229 507 167 401 187 456 b 232 509 229 509 231 509 b 234 509 233 509 233 509 b 337 433 281 494 316 469 b 363 344 354 406 363 376 l 363 342 b 336 250 362 309 353 279 b 233 174 315 214 280 189 l 232 174 b 228 176 231 174 229 174 z m 461 -57 b 449 -73 460 -68 456 -73 b 437 -57 441 -73 437 -67 b 449 -42 438 -47 442 -42 b 461 -57 457 -42 461 -47 z m 129 679 b 85 661 112 679 98 673 b 68 618 74 650 68 635 l 68 64 b 85 20 68 47 74 32 b 129 3 98 9 112 3 l 684 3 b 726 20 701 3 715 9 b 745 64 739 32 745 47 l 745 618 b 726 661 745 635 739 650 b 684 679 715 673 701 679 z m 595 -34 l 595 -81 l 604 -81 l 604 -50 l 604 -50 l 616 -81 l 623 -81 l 635 -50 l 635 -81 l 646 -81 l 646 -34 l 633 -34 l 620 -66 l 619 -66 l 607 -34 z m 180 814 l 193 814 l 193 834 l 204 834 b 220 840 211 834 216 836 b 227 854 224 844 227 848 b 204 876 226 869 218 876 l 180 876 z m 235 814 l 277 814 l 277 825 l 248 825 l 248 840 l 275 840 l 275 850 l 248 850 l 248 865 l 277 865 l 277 876 l 235 876 z m 288 814 l 300 814 l 300 836 l 310 836 l 321 814 l 336 814 l 323 838 b 334 856 330 841 334 847 b 312 876 333 869 326 876 l 288 876 z m 377 858 l 390 858 b 367 877 388 870 380 877 b 350 871 360 877 354 875 b 343 858 345 868 343 863 b 360 841 343 849 349 843 l 367 840 b 378 831 374 838 377 835 b 366 824 377 826 373 824 b 354 833 359 824 355 827 l 341 833 b 349 818 342 826 344 821 b 367 813 353 814 359 813 b 391 831 382 813 389 819 b 372 850 390 842 384 848 l 366 851 b 357 859 360 852 357 854 b 367 866 357 863 360 866 b 377 858 373 866 376 863 z m 456 845 b 448 868 456 854 454 863 b 427 877 443 873 435 877 b 406 868 419 877 412 873 b 398 845 401 863 398 854 b 406 821 398 835 401 827 b 427 813 412 816 419 813 b 448 821 435 813 443 816 b 456 845 454 827 456 835 z m 518 876 l 505 876 l 505 837 l 505 837 l 478 876 l 466 876 l 466 814 l 479 814 l 479 852 l 507 814 l 518 814 z m 540 814 l 545 827 l 566 827 l 571 814 l 585 814 l 564 876 l 547 876 l 526 814 z m 593 814 l 633 814 l 633 825 l 606 825 l 606 876 l 593 876 z m 237 791 l 237 751 b 225 739 237 743 233 739 b 212 751 216 741 212 744 l 212 791 l 199 791 l 199 750 b 206 734 199 743 201 738 b 225 728 211 730 217 728 b 243 734 233 728 239 730 b 251 750 248 738 251 743 l 251 791 z m 295 772 l 308 772 b 285 791 307 785 298 791 b 268 787 278 791 273 790 b 261 772 264 783 262 779 b 278 755 262 764 267 758 l 285 754 b 296 746 292 753 296 750 b 284 739 295 741 291 739 b 273 748 277 739 274 742 l 260 748 b 267 733 260 741 262 736 b 285 728 271 730 277 728 b 309 746 300 728 308 734 b 290 764 308 756 302 762 l 284 766 b 275 773 278 767 275 769 b 285 781 275 778 278 781 b 295 772 291 781 294 778 z m 318 728 l 359 728 l 359 739 l 331 739 l 331 754 l 357 754 l 357 765 l 331 765 l 331 780 l 359 780 l 359 791 l 318 791 z m 447 760 b 438 783 447 770 444 778 b 418 791 433 789 426 791 b 397 783 410 791 403 789 b 389 760 391 778 389 770 b 397 736 389 749 391 742 b 418 728 403 730 410 728 b 438 736 426 728 433 730 b 447 760 444 742 447 749 z m 509 791 l 496 791 l 496 751 l 495 751 l 468 791 l 456 791 l 456 728 l 469 728 l 469 768 l 470 768 l 497 728 l 509 728 z m 519 728 l 559 728 l 559 739 l 532 739 l 532 791 l 519 791 z m 556 791 l 579 751 l 579 728 l 592 728 l 592 751 l 614 791 l 600 791 l 586 764 l 585 764 l 571 791 z m 167 -81 l 199 -81 l 199 -73 l 177 -73 l 177 -61 l 197 -61 l 197 -53 l 177 -53 l 177 -42 l 199 -42 l 199 -34 l 167 -34 z m 246 -34 l 236 -34 l 236 -63 l 235 -63 l 215 -34 l 207 -34 l 207 -81 l 216 -81 l 216 -51 l 217 -51 l 237 -81 l 246 -81 z m 263 -34 l 252 -34 l 267 -57 l 252 -81 l 263 -81 l 273 -64 l 283 -81 l 294 -81 l 279 -57 l 294 -34 l 283 -34 l 273 -50 z m 298 -34 l 315 -64 l 315 -81 l 325 -81 l 325 -64 l 342 -34 l 331 -34 l 320 -54 l 309 -34 z m 386 -50 b 380 -37 385 -45 383 -41 b 366 -33 376 -35 371 -33 b 350 -39 359 -33 354 -35 b 344 -57 346 -43 344 -50 b 350 -75 344 -65 346 -71 b 366 -81 354 -79 359 -81 b 380 -77 372 -81 376 -80 b 386 -64 383 -73 385 -69 l 376 -64 b 366 -73 374 -70 371 -73 b 353 -57 357 -73 353 -67 b 366 -42 355 -47 359 -42 b 376 -50 371 -42 374 -45 z m 393 -81 l 423 -81 l 423 -73 l 404 -73 l 404 -34 l 393 -34 z m 471 -57 b 465 -39 471 -50 469 -43 b 449 -33 460 -35 456 -33 b 433 -39 443 -33 437 -35 b 427 -57 429 -43 427 -50 b 433 -75 427 -65 429 -71 b 449 -81 437 -79 443 -81 b 465 -75 456 -81 460 -79 b 471 -57 469 -71 471 -65 z m 481 -81 b 487 -76 484 -81 486 -79 b 481 -71 486 -73 484 -71 b 475 -76 478 -71 476 -73 b 481 -81 476 -79 478 -81 z m 536 -50 b 530 -37 536 -45 534 -41 b 516 -33 526 -35 522 -33 b 500 -39 510 -33 505 -35 b 494 -57 496 -43 494 -50 b 500 -75 494 -65 496 -71 b 516 -81 505 -79 510 -81 b 530 -77 522 -81 527 -80 b 536 -64 534 -73 536 -69 l 526 -64 b 516 -73 525 -70 522 -73 b 505 -57 508 -73 505 -67 b 516 -42 505 -47 509 -42 b 526 -50 522 -42 525 -45 z m 587 -57 b 581 -39 587 -50 585 -43 b 565 -33 576 -35 571 -33 b 549 -39 559 -33 553 -35 b 543 -57 545 -43 543 -50 b 549 -75 543 -65 545 -71 b 565 -81 553 -79 559 -81 b 581 -75 571 -81 576 -79 b 587 -57 585 -71 587 -65 z "},"O":{"ha":812,"x_min":0,"x_max":0,"o":"m 539 469 b 589 501 554 483 570 494 b 492 563 555 536 522 557 b 422 572 460 569 437 572 b 332 554 392 572 361 566 b 381 510 350 541 367 526 b 424 514 396 513 410 514 b 539 469 466 514 505 499 z m 306 249 b 338 342 328 277 338 308 b 306 433 338 375 328 406 b 279 382 292 416 283 398 b 274 341 276 366 274 352 b 278 309 274 330 275 319 b 306 249 283 288 292 267 z m 443 373 b 445 341 444 363 445 352 b 443 309 445 331 444 320 b 527 341 474 311 502 322 b 443 373 502 361 474 371 z m 289 231 b 256 292 271 252 260 273 b 250 341 252 312 250 328 b 254 380 250 354 251 368 b 289 452 260 406 271 430 b 239 481 274 465 258 475 b 192 342 208 439 192 392 b 239 201 192 291 208 244 b 266 214 248 204 257 209 b 289 231 274 219 281 224 z m 589 181 b 539 213 570 189 554 199 b 424 168 505 183 466 168 b 381 173 410 168 396 170 b 356 147 374 163 365 155 b 332 129 348 140 340 134 b 422 111 361 117 392 111 b 469 115 437 111 453 112 b 589 181 515 125 555 146 z m 577 -57 b 565 -73 576 -68 572 -73 b 553 -57 557 -73 553 -67 b 565 -42 554 -47 558 -42 b 577 -57 573 -42 577 -47 z m 193 844 l 193 865 l 202 865 b 213 854 210 864 213 861 b 202 844 213 848 210 844 z m 300 846 l 300 865 l 309 865 b 321 856 317 865 321 861 b 309 846 321 849 317 846 z m 443 845 b 427 825 442 831 437 825 b 412 845 417 825 412 831 b 427 865 412 858 418 865 b 443 845 438 865 443 858 z m 548 838 l 555 862 l 564 838 z m 433 760 b 418 739 433 746 427 739 b 401 760 407 739 401 746 b 418 780 403 773 408 780 b 433 760 429 779 433 772 z m 625 196 b 628 191 627 195 628 193 l 628 189 b 627 188 628 189 627 188 b 508 98 587 137 547 107 b 422 85 469 90 440 85 b 300 117 380 85 340 96 l 288 123 b 286 127 287 124 286 126 b 286 130 286 128 286 129 l 288 132 b 386 224 332 157 365 188 b 418 340 408 261 418 300 l 418 342 b 385 458 418 383 407 422 b 288 551 363 496 331 526 b 286 555 287 552 286 553 b 286 557 286 555 286 557 l 288 559 b 427 596 334 584 380 596 b 471 593 442 596 457 595 b 628 494 533 582 585 549 b 629 490 629 493 629 492 b 624 486 629 488 627 487 b 579 469 608 484 594 477 b 543 439 565 460 553 450 b 538 437 541 437 540 437 b 535 438 538 437 536 437 b 479 479 515 458 496 471 b 425 490 461 486 444 490 b 399 488 417 490 408 490 b 439 398 418 460 431 431 b 559 345 486 397 526 378 b 561 342 560 344 561 342 b 559 338 561 340 560 339 b 439 285 526 304 486 286 b 399 195 431 252 418 222 b 422 193 407 193 415 193 b 536 245 467 193 505 210 b 540 247 537 246 538 247 l 541 247 b 545 245 543 246 544 245 b 625 196 569 218 595 202 z m 228 176 b 167 342 187 227 167 282 b 229 507 167 401 187 456 b 232 509 229 509 231 509 b 234 509 233 509 233 509 b 337 433 281 494 316 469 b 363 344 354 406 363 376 l 363 342 b 336 250 362 309 353 279 b 233 174 315 214 280 189 l 232 174 b 228 176 231 174 229 174 z m 461 -57 b 449 -73 460 -68 456 -73 b 437 -57 441 -73 437 -67 b 449 -42 438 -47 442 -42 b 461 -57 457 -42 461 -47 z m 129 679 b 85 661 112 679 98 673 b 68 618 74 650 68 635 l 68 64 b 85 20 68 47 74 32 b 129 3 98 9 112 3 l 684 3 b 726 20 701 3 715 9 b 745 64 739 32 745 47 l 745 618 b 726 661 745 635 739 650 b 684 679 715 673 701 679 z m 595 -34 l 595 -81 l 604 -81 l 604 -50 l 604 -50 l 616 -81 l 623 -81 l 635 -50 l 635 -81 l 646 -81 l 646 -34 l 633 -34 l 620 -66 l 619 -66 l 607 -34 z m 180 814 l 193 814 l 193 834 l 204 834 b 220 840 211 834 216 836 b 227 854 224 844 227 848 b 204 876 226 869 218 876 l 180 876 z m 235 814 l 277 814 l 277 825 l 248 825 l 248 840 l 275 840 l 275 850 l 248 850 l 248 865 l 277 865 l 277 876 l 235 876 z m 288 814 l 300 814 l 300 836 l 310 836 l 321 814 l 336 814 l 323 838 b 334 856 330 841 334 847 b 312 876 333 869 326 876 l 288 876 z m 377 858 l 390 858 b 367 877 388 870 380 877 b 350 871 360 877 354 875 b 343 858 345 868 343 863 b 360 841 343 849 349 843 l 367 840 b 378 831 374 838 377 835 b 366 824 377 826 373 824 b 354 833 359 824 355 827 l 341 833 b 349 818 342 826 344 821 b 367 813 353 814 359 813 b 391 831 382 813 389 819 b 372 850 390 842 384 848 l 366 851 b 357 859 360 852 357 854 b 367 866 357 863 360 866 b 377 858 373 866 376 863 z m 456 845 b 448 868 456 854 454 863 b 427 877 443 873 435 877 b 406 868 419 877 412 873 b 398 845 401 863 398 854 b 406 821 398 835 401 827 b 427 813 412 816 419 813 b 448 821 435 813 443 816 b 456 845 454 827 456 835 z m 518 876 l 505 876 l 505 837 l 505 837 l 478 876 l 466 876 l 466 814 l 479 814 l 479 852 l 507 814 l 518 814 z m 540 814 l 545 827 l 566 827 l 571 814 l 585 814 l 564 876 l 547 876 l 526 814 z m 593 814 l 633 814 l 633 825 l 606 825 l 606 876 l 593 876 z m 237 791 l 237 751 b 225 739 237 743 233 739 b 212 751 216 741 212 744 l 212 791 l 199 791 l 199 750 b 206 734 199 743 201 738 b 225 728 211 730 217 728 b 243 734 233 728 239 730 b 251 750 248 738 251 743 l 251 791 z m 295 772 l 308 772 b 285 791 307 785 298 791 b 268 787 278 791 273 790 b 261 772 264 783 262 779 b 278 755 262 764 267 758 l 285 754 b 296 746 292 753 296 750 b 284 739 295 741 291 739 b 273 748 277 739 274 742 l 260 748 b 267 733 260 741 262 736 b 285 728 271 730 277 728 b 309 746 300 728 308 734 b 290 764 308 756 302 762 l 284 766 b 275 773 278 767 275 769 b 285 781 275 778 278 781 b 295 772 291 781 294 778 z m 318 728 l 359 728 l 359 739 l 331 739 l 331 754 l 357 754 l 357 765 l 331 765 l 331 780 l 359 780 l 359 791 l 318 791 z m 447 760 b 438 783 447 770 444 778 b 418 791 433 789 426 791 b 397 783 410 791 403 789 b 389 760 391 778 389 770 b 397 736 389 749 391 742 b 418 728 403 730 410 728 b 438 736 426 728 433 730 b 447 760 444 742 447 749 z m 509 791 l 496 791 l 496 751 l 495 751 l 468 791 l 456 791 l 456 728 l 469 728 l 469 768 l 470 768 l 497 728 l 509 728 z m 519 728 l 559 728 l 559 739 l 532 739 l 532 791 l 519 791 z m 556 791 l 579 751 l 579 728 l 592 728 l 592 751 l 614 791 l 600 791 l 586 764 l 585 764 l 571 791 z m 167 -81 l 199 -81 l 199 -73 l 177 -73 l 177 -61 l 197 -61 l 197 -53 l 177 -53 l 177 -42 l 199 -42 l 199 -34 l 167 -34 z m 246 -34 l 236 -34 l 236 -63 l 235 -63 l 215 -34 l 207 -34 l 207 -81 l 216 -81 l 216 -51 l 217 -51 l 237 -81 l 246 -81 z m 263 -34 l 252 -34 l 267 -57 l 252 -81 l 263 -81 l 273 -64 l 283 -81 l 294 -81 l 279 -57 l 294 -34 l 283 -34 l 273 -50 z m 298 -34 l 315 -64 l 315 -81 l 325 -81 l 325 -64 l 342 -34 l 331 -34 l 320 -54 l 309 -34 z m 386 -50 b 380 -37 385 -45 383 -41 b 366 -33 376 -35 371 -33 b 350 -39 359 -33 354 -35 b 344 -57 346 -43 344 -50 b 350 -75 344 -65 346 -71 b 366 -81 354 -79 359 -81 b 380 -77 372 -81 376 -80 b 386 -64 383 -73 385 -69 l 376 -64 b 366 -73 374 -70 371 -73 b 353 -57 357 -73 353 -67 b 366 -42 355 -47 359 -42 b 376 -50 371 -42 374 -45 z m 393 -81 l 423 -81 l 423 -73 l 404 -73 l 404 -34 l 393 -34 z m 471 -57 b 465 -39 471 -50 469 -43 b 449 -33 460 -35 456 -33 b 433 -39 443 -33 437 -35 b 427 -57 429 -43 427 -50 b 433 -75 427 -65 429 -71 b 449 -81 437 -79 443 -81 b 465 -75 456 -81 460 -79 b 471 -57 469 -71 471 -65 z m 481 -81 b 487 -76 484 -81 486 -79 b 481 -71 486 -73 484 -71 b 475 -76 478 -71 476 -73 b 481 -81 476 -79 478 -81 z m 536 -50 b 530 -37 536 -45 534 -41 b 516 -33 526 -35 522 -33 b 500 -39 510 -33 505 -35 b 494 -57 496 -43 494 -50 b 500 -75 494 -65 496 -71 b 516 -81 505 -79 510 -81 b 530 -77 522 -81 527 -80 b 536 -64 534 -73 536 -69 l 526 -64 b 516 -73 525 -70 522 -73 b 505 -57 508 -73 505 -67 b 516 -42 505 -47 509 -42 b 526 -50 522 -42 525 -45 z m 587 -57 b 581 -39 587 -50 585 -43 b 565 -33 576 -35 571 -33 b 549 -39 559 -33 553 -35 b 543 -57 545 -43 543 -50 b 549 -75 543 -65 545 -71 b 565 -81 553 -79 559 -81 b 581 -75 571 -81 576 -79 b 587 -57 585 -71 587 -65 z "}}}
